<?xml version="1.0" encoding="utf-8" standalone="no"?>
<!DOCTYPE svg PUBLIC "-//W3C//DTD SVG 1.1//EN"
  "http://www.w3.org/Graphics/SVG/1.1/DTD/svg11.dtd">
<svg xmlns:xlink="http://www.w3.org/1999/xlink" width="618.280312pt" height="217.728192pt" viewBox="0 0 618.280312 217.728192" xmlns="http://www.w3.org/2000/svg" version="1.1">
 <metadata>
  <rdf:RDF xmlns:dc="http://purl.org/dc/elements/1.1/" xmlns:cc="http://creativecommons.org/ns#" xmlns:rdf="http://www.w3.org/1999/02/22-rdf-syntax-ns#">
   <cc:Work>
    <dc:type rdf:resource="http://purl.org/dc/dcmitype/StillImage"/>
    <dc:date>2026-07-20T17:42:52.917094</dc:date>
    <dc:format>image/svg+xml</dc:format>
    <dc:creator>
     <cc:Agent>
      <dc:title>Matplotlib v3.10.8, https://matplotlib.org/</dc:title>
     </cc:Agent>
    </dc:creator>
   </cc:Work>
  </rdf:RDF>
 </metadata>
 <defs>
  <style type="text/css">*{stroke-linejoin: round; stroke-linecap: butt}</style>
 </defs>
 <g id="figure_1">
  <g id="patch_1">
   <path d="M 0 217.728192
L 618.280312 217.728192
L 618.280312 0
L 0 0
z
" style="fill: #ffffff"/>
  </g>
  <g id="axes_1">
   <g id="patch_2">
    <path d="M 42.561719 106.472384
L 45.960687 109.863171
L 44.460942 110.547055
L 50.367211 123.4994
L 50.299041 123.530485
L 44.392772 110.578141
L 42.893026 111.262025
z
" clip-path="url(#p0a3e7f7b2c)" style="fill: #c65911; stroke: #c65911; stroke-linejoin: miter"/>
   </g>
   <g id="patch_3">
    <path d="M 65.221453 97.866122
L 68.141862 101.676847
L 66.564812 102.156271
L 70.705285 115.776246
L 70.633601 115.798038
L 66.493128 102.178063
L 64.916079 102.657486
z
" clip-path="url(#p0a3e7f7b2c)" style="fill: #c65911; stroke: #c65911; stroke-linejoin: miter"/>
   </g>
   <g id="patch_4">
    <path d="M 88.191006 92.632343
L 90.533178 96.823364
L 88.903583 97.071062
L 91.042796 111.144832
L 90.968724 111.156091
L 88.829511 97.082321
L 87.199916 97.330019
z
" clip-path="url(#p0a3e7f7b2c)" style="fill: #c65911; stroke: #c65911; stroke-linejoin: miter"/>
   </g>
   <g id="patch_5">
    <path d="M 111.342077 90.874083
L 113.027851 95.369479
L 111.379539 95.369479
L 111.379539 109.604901
L 111.304616 109.604901
L 111.304616 95.369479
L 109.656304 95.369479
z
" clip-path="url(#p0a3e7f7b2c)" style="fill: #c65911; stroke: #c65911; stroke-linejoin: miter"/>
   </g>
   <g id="patch_6">
    <path d="M 134.493148 92.632343
L 135.484238 97.330019
L 133.854644 97.082321
L 131.715431 111.156091
L 131.641358 111.144832
L 133.780571 97.071062
L 132.150977 96.823364
z
" clip-path="url(#p0a3e7f7b2c)" style="fill: #c65911; stroke: #c65911; stroke-linejoin: miter"/>
   </g>
   <g id="patch_7">
    <path d="M 157.462702 97.866122
L 157.768076 102.657486
L 156.191026 102.178063
L 152.050554 115.798038
L 151.978869 115.776246
L 156.119342 102.156271
L 154.542292 101.676847
z
" clip-path="url(#p0a3e7f7b2c)" style="fill: #c65911; stroke: #c65911; stroke-linejoin: miter"/>
   </g>
   <g id="patch_8">
    <path d="M 180.122435 106.472384
L 179.791128 111.262025
L 178.291383 110.578141
L 172.385114 123.530485
L 172.316943 123.4994
L 178.223213 110.547055
L 176.723467 109.863171
z
" clip-path="url(#p0a3e7f7b2c)" style="fill: #c65911; stroke: #c65911; stroke-linejoin: miter"/>
   </g>
   <g id="line2d_1">
    <path d="M 40.164967 128.151623
L 60.501284 118.878262
L 80.837602 112.696022
L 101.173919 109.604901
L 121.510236 109.604901
L 141.846553 112.696022
L 162.18287 118.878262
L 182.519187 128.151623
" clip-path="url(#p0a3e7f7b2c)" style="fill: none; stroke: #17365d; stroke-width: 2; stroke-linecap: square"/>
   </g>
   <g id="text_1">
    <!-- (a) Original support -->
    <g style="fill: #17365d" transform="translate(49.983562 15.558281) scale(0.11 -0.11)">
     <defs>
      <path id="DejaVuSans-Bold-28" d="M 2413 -844
L 1484 -844
Q 1006 -72 778 623
Q 550 1319 550 2003
Q 550 2688 779 3389
Q 1009 4091 1484 4856
L 2413 4856
Q 2013 4116 1813 3408
Q 1613 2700 1613 2009
Q 1613 1319 1811 609
Q 2009 -100 2413 -844
z
" transform="scale(0.015625)"/>
      <path id="DejaVuSans-Bold-61" d="M 2106 1575
Q 1756 1575 1579 1456
Q 1403 1338 1403 1106
Q 1403 894 1545 773
Q 1688 653 1941 653
Q 2256 653 2472 879
Q 2688 1106 2688 1447
L 2688 1575
L 2106 1575
z
M 3816 1997
L 3816 0
L 2688 0
L 2688 519
Q 2463 200 2181 54
Q 1900 -91 1497 -91
Q 953 -91 614 226
Q 275 544 275 1050
Q 275 1666 698 1953
Q 1122 2241 2028 2241
L 2688 2241
L 2688 2328
Q 2688 2594 2478 2717
Q 2269 2841 1825 2841
Q 1466 2841 1156 2769
Q 847 2697 581 2553
L 581 3406
Q 941 3494 1303 3539
Q 1666 3584 2028 3584
Q 2975 3584 3395 3211
Q 3816 2838 3816 1997
z
" transform="scale(0.015625)"/>
      <path id="DejaVuSans-Bold-29" d="M 513 -844
Q 913 -100 1113 609
Q 1313 1319 1313 2009
Q 1313 2700 1113 3408
Q 913 4116 513 4856
L 1441 4856
Q 1916 4091 2145 3389
Q 2375 2688 2375 2003
Q 2375 1319 2147 623
Q 1919 -72 1441 -844
L 513 -844
z
" transform="scale(0.015625)"/>
      <path id="DejaVuSans-Bold-20" transform="scale(0.015625)"/>
      <path id="DejaVuSans-Bold-4f" d="M 2719 3878
Q 2169 3878 1866 3472
Q 1563 3066 1563 2328
Q 1563 1594 1866 1187
Q 2169 781 2719 781
Q 3272 781 3575 1187
Q 3878 1594 3878 2328
Q 3878 3066 3575 3472
Q 3272 3878 2719 3878
z
M 2719 4750
Q 3844 4750 4481 4106
Q 5119 3463 5119 2328
Q 5119 1197 4481 553
Q 3844 -91 2719 -91
Q 1597 -91 958 553
Q 319 1197 319 2328
Q 319 3463 958 4106
Q 1597 4750 2719 4750
z
" transform="scale(0.015625)"/>
      <path id="DejaVuSans-Bold-72" d="M 3138 2547
Q 2991 2616 2845 2648
Q 2700 2681 2553 2681
Q 2122 2681 1889 2404
Q 1656 2128 1656 1613
L 1656 0
L 538 0
L 538 3500
L 1656 3500
L 1656 2925
Q 1872 3269 2151 3426
Q 2431 3584 2822 3584
Q 2878 3584 2943 3579
Q 3009 3575 3134 3559
L 3138 2547
z
" transform="scale(0.015625)"/>
      <path id="DejaVuSans-Bold-69" d="M 538 3500
L 1656 3500
L 1656 0
L 538 0
L 538 3500
z
M 538 4863
L 1656 4863
L 1656 3950
L 538 3950
L 538 4863
z
" transform="scale(0.015625)"/>
      <path id="DejaVuSans-Bold-67" d="M 2919 594
Q 2688 288 2409 144
Q 2131 0 1766 0
Q 1125 0 706 504
Q 288 1009 288 1791
Q 288 2575 706 3076
Q 1125 3578 1766 3578
Q 2131 3578 2409 3434
Q 2688 3291 2919 2981
L 2919 3500
L 4044 3500
L 4044 353
Q 4044 -491 3511 -936
Q 2978 -1381 1966 -1381
Q 1638 -1381 1331 -1331
Q 1025 -1281 716 -1178
L 716 -306
Q 1009 -475 1290 -558
Q 1572 -641 1856 -641
Q 2406 -641 2662 -400
Q 2919 -159 2919 353
L 2919 594
z
M 2181 2772
Q 1834 2772 1640 2515
Q 1447 2259 1447 1791
Q 1447 1309 1634 1061
Q 1822 813 2181 813
Q 2531 813 2725 1069
Q 2919 1325 2919 1791
Q 2919 2259 2725 2515
Q 2531 2772 2181 2772
z
" transform="scale(0.015625)"/>
      <path id="DejaVuSans-Bold-6e" d="M 4056 2131
L 4056 0
L 2931 0
L 2931 347
L 2931 1631
Q 2931 2084 2911 2256
Q 2891 2428 2841 2509
Q 2775 2619 2662 2680
Q 2550 2741 2406 2741
Q 2056 2741 1856 2470
Q 1656 2200 1656 1722
L 1656 0
L 538 0
L 538 3500
L 1656 3500
L 1656 2988
Q 1909 3294 2193 3439
Q 2478 3584 2822 3584
Q 3428 3584 3742 3212
Q 4056 2841 4056 2131
z
" transform="scale(0.015625)"/>
      <path id="DejaVuSans-Bold-6c" d="M 538 4863
L 1656 4863
L 1656 0
L 538 0
L 538 4863
z
" transform="scale(0.015625)"/>
      <path id="DejaVuSans-Bold-73" d="M 3272 3391
L 3272 2541
Q 2913 2691 2578 2766
Q 2244 2841 1947 2841
Q 1628 2841 1473 2761
Q 1319 2681 1319 2516
Q 1319 2381 1436 2309
Q 1553 2238 1856 2203
L 2053 2175
Q 2913 2066 3209 1816
Q 3506 1566 3506 1031
Q 3506 472 3093 190
Q 2681 -91 1863 -91
Q 1516 -91 1145 -36
Q 775 19 384 128
L 384 978
Q 719 816 1070 734
Q 1422 653 1784 653
Q 2113 653 2278 743
Q 2444 834 2444 1013
Q 2444 1163 2330 1236
Q 2216 1309 1875 1350
L 1678 1375
Q 931 1469 631 1722
Q 331 1975 331 2491
Q 331 3047 712 3315
Q 1094 3584 1881 3584
Q 2191 3584 2531 3537
Q 2872 3491 3272 3391
z
" transform="scale(0.015625)"/>
      <path id="DejaVuSans-Bold-75" d="M 500 1363
L 500 3500
L 1625 3500
L 1625 3150
Q 1625 2866 1622 2436
Q 1619 2006 1619 1863
Q 1619 1441 1641 1255
Q 1663 1069 1716 984
Q 1784 875 1895 815
Q 2006 756 2150 756
Q 2500 756 2700 1025
Q 2900 1294 2900 1772
L 2900 3500
L 4019 3500
L 4019 0
L 2900 0
L 2900 506
Q 2647 200 2364 54
Q 2081 -91 1741 -91
Q 1134 -91 817 281
Q 500 653 500 1363
z
" transform="scale(0.015625)"/>
      <path id="DejaVuSans-Bold-70" d="M 1656 506
L 1656 -1331
L 538 -1331
L 538 3500
L 1656 3500
L 1656 2988
Q 1888 3294 2169 3439
Q 2450 3584 2816 3584
Q 3463 3584 3878 3070
Q 4294 2556 4294 1747
Q 4294 938 3878 423
Q 3463 -91 2816 -91
Q 2450 -91 2169 54
Q 1888 200 1656 506
z
M 2400 2772
Q 2041 2772 1848 2508
Q 1656 2244 1656 1747
Q 1656 1250 1848 986
Q 2041 722 2400 722
Q 2759 722 2948 984
Q 3138 1247 3138 1747
Q 3138 2247 2948 2509
Q 2759 2772 2400 2772
z
" transform="scale(0.015625)"/>
      <path id="DejaVuSans-Bold-6f" d="M 2203 2784
Q 1831 2784 1636 2517
Q 1441 2250 1441 1747
Q 1441 1244 1636 976
Q 1831 709 2203 709
Q 2569 709 2762 976
Q 2956 1244 2956 1747
Q 2956 2250 2762 2517
Q 2569 2784 2203 2784
z
M 2203 3584
Q 3106 3584 3614 3096
Q 4122 2609 4122 1747
Q 4122 884 3614 396
Q 3106 -91 2203 -91
Q 1297 -91 786 396
Q 275 884 275 1747
Q 275 2609 786 3096
Q 1297 3584 2203 3584
z
" transform="scale(0.015625)"/>
      <path id="DejaVuSans-Bold-74" d="M 1759 4494
L 1759 3500
L 2913 3500
L 2913 2700
L 1759 2700
L 1759 1216
Q 1759 972 1856 886
Q 1953 800 2241 800
L 2816 800
L 2816 0
L 1856 0
Q 1194 0 917 276
Q 641 553 641 1216
L 641 2700
L 84 2700
L 84 3500
L 641 3500
L 641 4494
L 1759 4494
z
" transform="scale(0.015625)"/>
     </defs>
     <use xlink:href="#DejaVuSans-Bold-28"/>
     <use xlink:href="#DejaVuSans-Bold-61" transform="translate(45.703125 0)"/>
     <use xlink:href="#DejaVuSans-Bold-29" transform="translate(113.183594 0)"/>
     <use xlink:href="#DejaVuSans-Bold-20" transform="translate(158.886719 0)"/>
     <use xlink:href="#DejaVuSans-Bold-4f" transform="translate(193.701172 0)"/>
     <use xlink:href="#DejaVuSans-Bold-72" transform="translate(278.710938 0)"/>
     <use xlink:href="#DejaVuSans-Bold-69" transform="translate(328.027344 0)"/>
     <use xlink:href="#DejaVuSans-Bold-67" transform="translate(362.304688 0)"/>
     <use xlink:href="#DejaVuSans-Bold-69" transform="translate(433.886719 0)"/>
     <use xlink:href="#DejaVuSans-Bold-6e" transform="translate(468.164062 0)"/>
     <use xlink:href="#DejaVuSans-Bold-61" transform="translate(539.355469 0)"/>
     <use xlink:href="#DejaVuSans-Bold-6c" transform="translate(606.835938 0)"/>
     <use xlink:href="#DejaVuSans-Bold-20" transform="translate(641.113281 0)"/>
     <use xlink:href="#DejaVuSans-Bold-73" transform="translate(675.927734 0)"/>
     <use xlink:href="#DejaVuSans-Bold-75" transform="translate(735.449219 0)"/>
     <use xlink:href="#DejaVuSans-Bold-70" transform="translate(806.640625 0)"/>
     <use xlink:href="#DejaVuSans-Bold-70" transform="translate(878.222656 0)"/>
     <use xlink:href="#DejaVuSans-Bold-6f" transform="translate(949.804688 0)"/>
     <use xlink:href="#DejaVuSans-Bold-72" transform="translate(1018.505859 0)"/>
     <use xlink:href="#DejaVuSans-Bold-74" transform="translate(1067.822266 0)"/>
    </g>
   </g>
  </g>
  <g id="axes_2">
   <g id="patch_9">
    <path d="M 248.480631 106.147005
L 252.05009 109.357828
L 250.587644 110.118213
L 257.154599 122.748428
L 257.088124 122.782991
L 250.521169 110.152776
L 249.058723 110.91316
z
" clip-path="url(#pfb1e623246)" style="fill: #c65911; stroke: #c65911; stroke-linejoin: miter"/>
   </g>
   <g id="patch_10">
    <path d="M 274.8247 97.616921
L 277.12565 101.830714
L 275.493704 102.062416
L 277.494768 116.156492
L 277.420589 116.167024
L 275.419525 102.072948
L 273.787579 102.30465
z
" clip-path="url(#pfb1e623246)" style="fill: #c65911; stroke: #c65911; stroke-linejoin: miter"/>
   </g>
   <g id="patch_11">
    <path d="M 289.360541 93.676385
L 292.889806 96.931337
L 291.418019 97.673481
L 297.827445 110.384362
L 297.760546 110.418096
L 291.35112 97.707214
L 289.879334 98.449359
z
" clip-path="url(#pfb1e623246)" style="fill: #c65911; stroke: #c65911; stroke-linejoin: miter"/>
   </g>
   <g id="patch_12">
    <path d="M 323.691472 91.344059
L 323.966554 96.137258
L 322.392566 95.647876
L 318.166085 109.241407
L 318.09454 109.219163
L 322.321021 95.625631
L 320.747033 95.136249
z
" clip-path="url(#pfb1e623246)" style="fill: #c65911; stroke: #c65911; stroke-linejoin: miter"/>
   </g>
   <g id="patch_13">
    <path d="M 336.610311 93.261088
L 338.733302 97.567285
L 337.093105 97.730641
L 338.503907 111.895982
L 338.429352 111.903407
L 337.01855 97.738066
L 335.378353 97.901422
z
" clip-path="url(#pfb1e623246)" style="fill: #c65911; stroke: #c65911; stroke-linejoin: miter"/>
   </g>
   <g id="patch_14">
    <path d="M 366.52663 98.535594
L 366.208727 103.326143
L 364.707074 102.646459
L 358.837075 115.615281
L 358.768818 115.584386
L 364.638817 102.615564
L 363.137164 101.93588
z
" clip-path="url(#pfb1e623246)" style="fill: #c65911; stroke: #c65911; stroke-linejoin: miter"/>
   </g>
   <g id="patch_15">
    <path d="M 386.549051 106.874001
L 386.31896 111.669569
L 384.805108 111.017508
L 379.17367 124.091687
L 379.104858 124.062047
L 384.736297 110.987869
L 383.222444 110.335808
z
" clip-path="url(#pfb1e623246)" style="fill: #c65911; stroke: #c65911; stroke-linejoin: miter"/>
   </g>
   <g id="line2d_2">
    <path d="M 246.953203 128.151623
L 267.28952 117.379797
L 287.625837 114.94372
L 307.962154 105.858738
L 328.298471 112.601832
L 348.634788 111.197556
L 368.971105 120.002111
L 389.307422 128.151623
" clip-path="url(#pfb1e623246)" style="fill: none; stroke: #17365d; stroke-width: 2; stroke-linecap: square"/>
   </g>
   <g id="text_2">
    <!-- (b) Repeated local updates -->
    <g style="fill: #17365d" transform="translate(234.126406 15.558281) scale(0.11 -0.11)">
     <defs>
      <path id="DejaVuSans-Bold-62" d="M 2400 722
Q 2759 722 2948 984
Q 3138 1247 3138 1747
Q 3138 2247 2948 2509
Q 2759 2772 2400 2772
Q 2041 2772 1848 2508
Q 1656 2244 1656 1747
Q 1656 1250 1848 986
Q 2041 722 2400 722
z
M 1656 2988
Q 1888 3294 2169 3439
Q 2450 3584 2816 3584
Q 3463 3584 3878 3070
Q 4294 2556 4294 1747
Q 4294 938 3878 423
Q 3463 -91 2816 -91
Q 2450 -91 2169 54
Q 1888 200 1656 506
L 1656 0
L 538 0
L 538 4863
L 1656 4863
L 1656 2988
z
" transform="scale(0.015625)"/>
      <path id="DejaVuSans-Bold-52" d="M 2297 2597
Q 2675 2597 2839 2737
Q 3003 2878 3003 3200
Q 3003 3519 2839 3656
Q 2675 3794 2297 3794
L 1791 3794
L 1791 2597
L 2297 2597
z
M 1791 1766
L 1791 0
L 588 0
L 588 4666
L 2425 4666
Q 3347 4666 3776 4356
Q 4206 4047 4206 3378
Q 4206 2916 3982 2619
Q 3759 2322 3309 2181
Q 3556 2125 3751 1926
Q 3947 1728 4147 1325
L 4800 0
L 3519 0
L 2950 1159
Q 2778 1509 2601 1637
Q 2425 1766 2131 1766
L 1791 1766
z
" transform="scale(0.015625)"/>
      <path id="DejaVuSans-Bold-65" d="M 4031 1759
L 4031 1441
L 1416 1441
Q 1456 1047 1700 850
Q 1944 653 2381 653
Q 2734 653 3104 758
Q 3475 863 3866 1075
L 3866 213
Q 3469 63 3072 -14
Q 2675 -91 2278 -91
Q 1328 -91 801 392
Q 275 875 275 1747
Q 275 2603 792 3093
Q 1309 3584 2216 3584
Q 3041 3584 3536 3087
Q 4031 2591 4031 1759
z
M 2881 2131
Q 2881 2450 2695 2645
Q 2509 2841 2209 2841
Q 1884 2841 1681 2658
Q 1478 2475 1428 2131
L 2881 2131
z
" transform="scale(0.015625)"/>
      <path id="DejaVuSans-Bold-64" d="M 2919 2988
L 2919 4863
L 4044 4863
L 4044 0
L 2919 0
L 2919 506
Q 2688 197 2409 53
Q 2131 -91 1766 -91
Q 1119 -91 703 423
Q 288 938 288 1747
Q 288 2556 703 3070
Q 1119 3584 1766 3584
Q 2128 3584 2408 3439
Q 2688 3294 2919 2988
z
M 2181 722
Q 2541 722 2730 984
Q 2919 1247 2919 1747
Q 2919 2247 2730 2509
Q 2541 2772 2181 2772
Q 1825 2772 1636 2509
Q 1447 2247 1447 1747
Q 1447 1247 1636 984
Q 1825 722 2181 722
z
" transform="scale(0.015625)"/>
      <path id="DejaVuSans-Bold-63" d="M 3366 3391
L 3366 2478
Q 3138 2634 2908 2709
Q 2678 2784 2431 2784
Q 1963 2784 1702 2511
Q 1441 2238 1441 1747
Q 1441 1256 1702 982
Q 1963 709 2431 709
Q 2694 709 2930 787
Q 3166 866 3366 1019
L 3366 103
Q 3103 6 2833 -42
Q 2563 -91 2291 -91
Q 1344 -91 809 395
Q 275 881 275 1747
Q 275 2613 809 3098
Q 1344 3584 2291 3584
Q 2566 3584 2833 3536
Q 3100 3488 3366 3391
z
" transform="scale(0.015625)"/>
     </defs>
     <use xlink:href="#DejaVuSans-Bold-28"/>
     <use xlink:href="#DejaVuSans-Bold-62" transform="translate(45.703125 0)"/>
     <use xlink:href="#DejaVuSans-Bold-29" transform="translate(117.285156 0)"/>
     <use xlink:href="#DejaVuSans-Bold-20" transform="translate(162.988281 0)"/>
     <use xlink:href="#DejaVuSans-Bold-52" transform="translate(197.802734 0)"/>
     <use xlink:href="#DejaVuSans-Bold-65" transform="translate(274.804688 0)"/>
     <use xlink:href="#DejaVuSans-Bold-70" transform="translate(342.626953 0)"/>
     <use xlink:href="#DejaVuSans-Bold-65" transform="translate(414.208984 0)"/>
     <use xlink:href="#DejaVuSans-Bold-61" transform="translate(482.03125 0)"/>
     <use xlink:href="#DejaVuSans-Bold-74" transform="translate(549.511719 0)"/>
     <use xlink:href="#DejaVuSans-Bold-65" transform="translate(597.314453 0)"/>
     <use xlink:href="#DejaVuSans-Bold-64" transform="translate(665.136719 0)"/>
     <use xlink:href="#DejaVuSans-Bold-20" transform="translate(736.71875 0)"/>
     <use xlink:href="#DejaVuSans-Bold-6c" transform="translate(771.533203 0)"/>
     <use xlink:href="#DejaVuSans-Bold-6f" transform="translate(805.810547 0)"/>
     <use xlink:href="#DejaVuSans-Bold-63" transform="translate(874.511719 0)"/>
     <use xlink:href="#DejaVuSans-Bold-61" transform="translate(933.789062 0)"/>
     <use xlink:href="#DejaVuSans-Bold-6c" transform="translate(1001.269531 0)"/>
     <use xlink:href="#DejaVuSans-Bold-20" transform="translate(1035.546875 0)"/>
     <use xlink:href="#DejaVuSans-Bold-75" transform="translate(1070.361328 0)"/>
     <use xlink:href="#DejaVuSans-Bold-70" transform="translate(1141.552734 0)"/>
     <use xlink:href="#DejaVuSans-Bold-64" transform="translate(1213.134766 0)"/>
     <use xlink:href="#DejaVuSans-Bold-61" transform="translate(1284.716797 0)"/>
     <use xlink:href="#DejaVuSans-Bold-74" transform="translate(1352.197266 0)"/>
     <use xlink:href="#DejaVuSans-Bold-65" transform="translate(1400 0)"/>
     <use xlink:href="#DejaVuSans-Bold-73" transform="translate(1467.822266 0)"/>
    </g>
   </g>
  </g>
  <g id="axes_3">
   <g id="patch_16">
    <path d="M 456.13819 106.472384
L 459.537158 109.863171
L 458.037412 110.547055
L 463.943682 123.4994
L 463.875511 123.530485
L 457.969242 110.578141
L 456.469497 111.262025
z
" clip-path="url(#p2ff5808ffb)" style="fill: #c65911; stroke: #c65911; stroke-linejoin: miter"/>
   </g>
   <g id="patch_17">
    <path d="M 478.797923 97.866122
L 481.718333 101.676847
L 480.141283 102.156271
L 484.281756 115.776246
L 484.210071 115.798038
L 480.069599 102.178063
L 478.492549 102.657486
z
" clip-path="url(#p2ff5808ffb)" style="fill: #c65911; stroke: #c65911; stroke-linejoin: miter"/>
   </g>
   <g id="patch_18">
    <path d="M 501.767477 92.632343
L 504.109648 96.823364
L 502.480054 97.071062
L 504.619267 111.144832
L 504.545194 111.156091
L 502.405981 97.082321
L 500.776387 97.330019
z
" clip-path="url(#p2ff5808ffb)" style="fill: #c65911; stroke: #c65911; stroke-linejoin: miter"/>
   </g>
   <g id="patch_19">
    <path d="M 524.918548 90.874083
L 526.604321 95.369479
L 524.956009 95.369479
L 524.956009 109.604901
L 524.881086 109.604901
L 524.881086 95.369479
L 523.232774 95.369479
z
" clip-path="url(#p2ff5808ffb)" style="fill: #c65911; stroke: #c65911; stroke-linejoin: miter"/>
   </g>
   <g id="patch_20">
    <path d="M 548.069619 92.632343
L 549.060709 97.330019
L 547.431114 97.082321
L 545.291901 111.156091
L 545.217829 111.144832
L 547.357042 97.071062
L 545.727447 96.823364
z
" clip-path="url(#p2ff5808ffb)" style="fill: #c65911; stroke: #c65911; stroke-linejoin: miter"/>
   </g>
   <g id="patch_21">
    <path d="M 571.039172 97.866122
L 571.344546 102.657486
L 569.767497 102.178063
L 565.627024 115.798038
L 565.55534 115.776246
L 569.695813 102.156271
L 568.118763 101.676847
z
" clip-path="url(#p2ff5808ffb)" style="fill: #c65911; stroke: #c65911; stroke-linejoin: miter"/>
   </g>
   <g id="patch_22">
    <path d="M 593.698906 106.472384
L 593.367599 111.262025
L 591.867853 110.578141
L 585.961584 123.530485
L 585.893414 123.4994
L 591.799683 110.547055
L 590.299938 109.863171
z
" clip-path="url(#p2ff5808ffb)" style="fill: #c65911; stroke: #c65911; stroke-linejoin: miter"/>
   </g>
   <g id="patch_23">
    <path d="M 524.918548 53.775289
L 528.290095 62.016849
L 524.956009 62.016849
L 524.956009 107.720046
L 524.881086 107.720046
L 524.881086 62.016849
L 521.547 62.016849
z
" clip-path="url(#p2ff5808ffb)" style="fill: #548235; stroke: #548235; stroke-width: 2.5; stroke-linejoin: miter"/>
   </g>
   <g id="line2d_3">
    <path d="M 453.741438 128.151623
L 474.077755 118.878262
L 494.414072 112.696022
L 514.750389 109.604901
L 535.086706 109.604901
L 555.423023 112.696022
L 575.759341 118.878262
L 596.095658 128.151623
" clip-path="url(#p2ff5808ffb)" style="fill: none; stroke: #17365d; stroke-width: 2; stroke-linecap: square"/>
   </g>
   <g id="text_3">
    <!-- Σ area-weighted -->
    <g style="fill: #548235" transform="translate(483.464407 31.639221) scale(0.09 -0.09)">
     <defs>
      <path id="DejaVuSans-Bold-3a3" d="M 1684 909
L 3903 909
L 3903 0
L 588 0
L 588 1003
L 2075 2481
L 588 3703
L 588 4666
L 3834 4666
L 3834 3756
L 1738 3756
L 3278 2494
L 1684 909
z
" transform="scale(0.015625)"/>
      <path id="DejaVuSans-Bold-2d" d="M 347 2297
L 2309 2297
L 2309 1388
L 347 1388
L 347 2297
z
" transform="scale(0.015625)"/>
      <path id="DejaVuSans-Bold-77" d="M 225 3500
L 1313 3500
L 1900 1088
L 2491 3500
L 3425 3500
L 4013 1113
L 4603 3500
L 5691 3500
L 4769 0
L 3547 0
L 2956 2406
L 2369 0
L 1147 0
L 225 3500
z
" transform="scale(0.015625)"/>
      <path id="DejaVuSans-Bold-68" d="M 4056 2131
L 4056 0
L 2931 0
L 2931 347
L 2931 1625
Q 2931 2084 2911 2256
Q 2891 2428 2841 2509
Q 2775 2619 2662 2680
Q 2550 2741 2406 2741
Q 2056 2741 1856 2470
Q 1656 2200 1656 1722
L 1656 0
L 538 0
L 538 4863
L 1656 4863
L 1656 2988
Q 1909 3294 2193 3439
Q 2478 3584 2822 3584
Q 3428 3584 3742 3212
Q 4056 2841 4056 2131
z
" transform="scale(0.015625)"/>
     </defs>
     <use xlink:href="#DejaVuSans-Bold-3a3"/>
     <use xlink:href="#DejaVuSans-Bold-20" transform="translate(68.310547 0)"/>
     <use xlink:href="#DejaVuSans-Bold-61" transform="translate(103.125 0)"/>
     <use xlink:href="#DejaVuSans-Bold-72" transform="translate(170.605469 0)"/>
     <use xlink:href="#DejaVuSans-Bold-65" transform="translate(219.921875 0)"/>
     <use xlink:href="#DejaVuSans-Bold-61" transform="translate(287.744141 0)"/>
     <use xlink:href="#DejaVuSans-Bold-2d" transform="translate(355.224609 0)"/>
     <use xlink:href="#DejaVuSans-Bold-77" transform="translate(396.728516 0)"/>
     <use xlink:href="#DejaVuSans-Bold-65" transform="translate(489.111328 0)"/>
     <use xlink:href="#DejaVuSans-Bold-69" transform="translate(556.933594 0)"/>
     <use xlink:href="#DejaVuSans-Bold-67" transform="translate(591.210938 0)"/>
     <use xlink:href="#DejaVuSans-Bold-68" transform="translate(662.792969 0)"/>
     <use xlink:href="#DejaVuSans-Bold-74" transform="translate(733.984375 0)"/>
     <use xlink:href="#DejaVuSans-Bold-65" transform="translate(781.787109 0)"/>
     <use xlink:href="#DejaVuSans-Bold-64" transform="translate(849.609375 0)"/>
    </g>
    <!-- original normals -->
    <g style="fill: #548235" transform="translate(483.491126 41.787565) scale(0.09 -0.09)">
     <defs>
      <path id="DejaVuSans-Bold-6d" d="M 3781 2919
Q 3994 3244 4286 3414
Q 4578 3584 4928 3584
Q 5531 3584 5847 3212
Q 6163 2841 6163 2131
L 6163 0
L 5038 0
L 5038 1825
Q 5041 1866 5042 1909
Q 5044 1953 5044 2034
Q 5044 2406 4934 2573
Q 4825 2741 4581 2741
Q 4263 2741 4089 2478
Q 3916 2216 3909 1719
L 3909 0
L 2784 0
L 2784 1825
Q 2784 2406 2684 2573
Q 2584 2741 2328 2741
Q 2006 2741 1831 2477
Q 1656 2213 1656 1722
L 1656 0
L 531 0
L 531 3500
L 1656 3500
L 1656 2988
Q 1863 3284 2130 3434
Q 2397 3584 2719 3584
Q 3081 3584 3359 3409
Q 3638 3234 3781 2919
z
" transform="scale(0.015625)"/>
     </defs>
     <use xlink:href="#DejaVuSans-Bold-6f"/>
     <use xlink:href="#DejaVuSans-Bold-72" transform="translate(68.701172 0)"/>
     <use xlink:href="#DejaVuSans-Bold-69" transform="translate(118.017578 0)"/>
     <use xlink:href="#DejaVuSans-Bold-67" transform="translate(152.294922 0)"/>
     <use xlink:href="#DejaVuSans-Bold-69" transform="translate(223.876953 0)"/>
     <use xlink:href="#DejaVuSans-Bold-6e" transform="translate(258.154297 0)"/>
     <use xlink:href="#DejaVuSans-Bold-61" transform="translate(329.345703 0)"/>
     <use xlink:href="#DejaVuSans-Bold-6c" transform="translate(396.826172 0)"/>
     <use xlink:href="#DejaVuSans-Bold-20" transform="translate(431.103516 0)"/>
     <use xlink:href="#DejaVuSans-Bold-6e" transform="translate(465.917969 0)"/>
     <use xlink:href="#DejaVuSans-Bold-6f" transform="translate(537.109375 0)"/>
     <use xlink:href="#DejaVuSans-Bold-72" transform="translate(605.810547 0)"/>
     <use xlink:href="#DejaVuSans-Bold-6d" transform="translate(655.126953 0)"/>
     <use xlink:href="#DejaVuSans-Bold-61" transform="translate(759.326172 0)"/>
     <use xlink:href="#DejaVuSans-Bold-6c" transform="translate(826.806641 0)"/>
     <use xlink:href="#DejaVuSans-Bold-73" transform="translate(861.083984 0)"/>
    </g>
   </g>
   <g id="text_4">
    <!-- (c) Cluster-normal memory -->
    <g style="fill: #17365d" transform="translate(441.333157 15.558281) scale(0.11 -0.11)">
     <defs>
      <path id="DejaVuSans-Bold-43" d="M 4288 256
Q 3956 84 3597 -3
Q 3238 -91 2847 -91
Q 1681 -91 1000 561
Q 319 1213 319 2328
Q 319 3447 1000 4098
Q 1681 4750 2847 4750
Q 3238 4750 3597 4662
Q 3956 4575 4288 4403
L 4288 3438
Q 3953 3666 3628 3772
Q 3303 3878 2944 3878
Q 2300 3878 1931 3465
Q 1563 3053 1563 2328
Q 1563 1606 1931 1193
Q 2300 781 2944 781
Q 3303 781 3628 887
Q 3953 994 4288 1222
L 4288 256
z
" transform="scale(0.015625)"/>
      <path id="DejaVuSans-Bold-79" d="M 78 3500
L 1197 3500
L 2138 1125
L 2938 3500
L 4056 3500
L 2584 -331
Q 2363 -916 2067 -1148
Q 1772 -1381 1288 -1381
L 641 -1381
L 641 -647
L 991 -647
Q 1275 -647 1404 -556
Q 1534 -466 1606 -231
L 1638 -134
L 78 3500
z
" transform="scale(0.015625)"/>
     </defs>
     <use xlink:href="#DejaVuSans-Bold-28"/>
     <use xlink:href="#DejaVuSans-Bold-63" transform="translate(45.703125 0)"/>
     <use xlink:href="#DejaVuSans-Bold-29" transform="translate(104.980469 0)"/>
     <use xlink:href="#DejaVuSans-Bold-20" transform="translate(150.683594 0)"/>
     <use xlink:href="#DejaVuSans-Bold-43" transform="translate(185.498047 0)"/>
     <use xlink:href="#DejaVuSans-Bold-6c" transform="translate(258.886719 0)"/>
     <use xlink:href="#DejaVuSans-Bold-75" transform="translate(293.164062 0)"/>
     <use xlink:href="#DejaVuSans-Bold-73" transform="translate(364.355469 0)"/>
     <use xlink:href="#DejaVuSans-Bold-74" transform="translate(423.876953 0)"/>
     <use xlink:href="#DejaVuSans-Bold-65" transform="translate(471.679688 0)"/>
     <use xlink:href="#DejaVuSans-Bold-72" transform="translate(539.501953 0)"/>
     <use xlink:href="#DejaVuSans-Bold-2d" transform="translate(588.818359 0)"/>
     <use xlink:href="#DejaVuSans-Bold-6e" transform="translate(630.322266 0)"/>
     <use xlink:href="#DejaVuSans-Bold-6f" transform="translate(701.513672 0)"/>
     <use xlink:href="#DejaVuSans-Bold-72" transform="translate(770.214844 0)"/>
     <use xlink:href="#DejaVuSans-Bold-6d" transform="translate(819.53125 0)"/>
     <use xlink:href="#DejaVuSans-Bold-61" transform="translate(923.730469 0)"/>
     <use xlink:href="#DejaVuSans-Bold-6c" transform="translate(991.210938 0)"/>
     <use xlink:href="#DejaVuSans-Bold-20" transform="translate(1025.488281 0)"/>
     <use xlink:href="#DejaVuSans-Bold-6d" transform="translate(1060.302734 0)"/>
     <use xlink:href="#DejaVuSans-Bold-65" transform="translate(1164.501953 0)"/>
     <use xlink:href="#DejaVuSans-Bold-6d" transform="translate(1232.324219 0)"/>
     <use xlink:href="#DejaVuSans-Bold-6f" transform="translate(1336.523438 0)"/>
     <use xlink:href="#DejaVuSans-Bold-72" transform="translate(1405.224609 0)"/>
     <use xlink:href="#DejaVuSans-Bold-79" transform="translate(1454.541016 0)"/>
    </g>
   </g>
  </g>
  <g id="text_5">
   <!-- Local face-to-face penalties can drift after many collapses; carrying the sum of original support normals preserves a stable reference. -->
   <g style="fill: #666666" transform="translate(7.2 208.656473) scale(0.09 -0.09)">
    <defs>
     <path id="DejaVuSans-4c" d="M 628 4666
L 1259 4666
L 1259 531
L 3531 531
L 3531 0
L 628 0
L 628 4666
z
" transform="scale(0.015625)"/>
     <path id="DejaVuSans-6f" d="M 1959 3097
Q 1497 3097 1228 2736
Q 959 2375 959 1747
Q 959 1119 1226 758
Q 1494 397 1959 397
Q 2419 397 2687 759
Q 2956 1122 2956 1747
Q 2956 2369 2687 2733
Q 2419 3097 1959 3097
z
M 1959 3584
Q 2709 3584 3137 3096
Q 3566 2609 3566 1747
Q 3566 888 3137 398
Q 2709 -91 1959 -91
Q 1206 -91 779 398
Q 353 888 353 1747
Q 353 2609 779 3096
Q 1206 3584 1959 3584
z
" transform="scale(0.015625)"/>
     <path id="DejaVuSans-63" d="M 3122 3366
L 3122 2828
Q 2878 2963 2633 3030
Q 2388 3097 2138 3097
Q 1578 3097 1268 2742
Q 959 2388 959 1747
Q 959 1106 1268 751
Q 1578 397 2138 397
Q 2388 397 2633 464
Q 2878 531 3122 666
L 3122 134
Q 2881 22 2623 -34
Q 2366 -91 2075 -91
Q 1284 -91 818 406
Q 353 903 353 1747
Q 353 2603 823 3093
Q 1294 3584 2113 3584
Q 2378 3584 2631 3529
Q 2884 3475 3122 3366
z
" transform="scale(0.015625)"/>
     <path id="DejaVuSans-61" d="M 2194 1759
Q 1497 1759 1228 1600
Q 959 1441 959 1056
Q 959 750 1161 570
Q 1363 391 1709 391
Q 2188 391 2477 730
Q 2766 1069 2766 1631
L 2766 1759
L 2194 1759
z
M 3341 1997
L 3341 0
L 2766 0
L 2766 531
Q 2569 213 2275 61
Q 1981 -91 1556 -91
Q 1019 -91 701 211
Q 384 513 384 1019
Q 384 1609 779 1909
Q 1175 2209 1959 2209
L 2766 2209
L 2766 2266
Q 2766 2663 2505 2880
Q 2244 3097 1772 3097
Q 1472 3097 1187 3025
Q 903 2953 641 2809
L 641 3341
Q 956 3463 1253 3523
Q 1550 3584 1831 3584
Q 2591 3584 2966 3190
Q 3341 2797 3341 1997
z
" transform="scale(0.015625)"/>
     <path id="DejaVuSans-6c" d="M 603 4863
L 1178 4863
L 1178 0
L 603 0
L 603 4863
z
" transform="scale(0.015625)"/>
     <path id="DejaVuSans-20" transform="scale(0.015625)"/>
     <path id="DejaVuSans-66" d="M 2375 4863
L 2375 4384
L 1825 4384
Q 1516 4384 1395 4259
Q 1275 4134 1275 3809
L 1275 3500
L 2222 3500
L 2222 3053
L 1275 3053
L 1275 0
L 697 0
L 697 3053
L 147 3053
L 147 3500
L 697 3500
L 697 3744
Q 697 4328 969 4595
Q 1241 4863 1831 4863
L 2375 4863
z
" transform="scale(0.015625)"/>
     <path id="DejaVuSans-65" d="M 3597 1894
L 3597 1613
L 953 1613
Q 991 1019 1311 708
Q 1631 397 2203 397
Q 2534 397 2845 478
Q 3156 559 3463 722
L 3463 178
Q 3153 47 2828 -22
Q 2503 -91 2169 -91
Q 1331 -91 842 396
Q 353 884 353 1716
Q 353 2575 817 3079
Q 1281 3584 2069 3584
Q 2775 3584 3186 3129
Q 3597 2675 3597 1894
z
M 3022 2063
Q 3016 2534 2758 2815
Q 2500 3097 2075 3097
Q 1594 3097 1305 2825
Q 1016 2553 972 2059
L 3022 2063
z
" transform="scale(0.015625)"/>
     <path id="DejaVuSans-2d" d="M 313 2009
L 1997 2009
L 1997 1497
L 313 1497
L 313 2009
z
" transform="scale(0.015625)"/>
     <path id="DejaVuSans-74" d="M 1172 4494
L 1172 3500
L 2356 3500
L 2356 3053
L 1172 3053
L 1172 1153
Q 1172 725 1289 603
Q 1406 481 1766 481
L 2356 481
L 2356 0
L 1766 0
Q 1100 0 847 248
Q 594 497 594 1153
L 594 3053
L 172 3053
L 172 3500
L 594 3500
L 594 4494
L 1172 4494
z
" transform="scale(0.015625)"/>
     <path id="DejaVuSans-70" d="M 1159 525
L 1159 -1331
L 581 -1331
L 581 3500
L 1159 3500
L 1159 2969
Q 1341 3281 1617 3432
Q 1894 3584 2278 3584
Q 2916 3584 3314 3078
Q 3713 2572 3713 1747
Q 3713 922 3314 415
Q 2916 -91 2278 -91
Q 1894 -91 1617 61
Q 1341 213 1159 525
z
M 3116 1747
Q 3116 2381 2855 2742
Q 2594 3103 2138 3103
Q 1681 3103 1420 2742
Q 1159 2381 1159 1747
Q 1159 1113 1420 752
Q 1681 391 2138 391
Q 2594 391 2855 752
Q 3116 1113 3116 1747
z
" transform="scale(0.015625)"/>
     <path id="DejaVuSans-6e" d="M 3513 2113
L 3513 0
L 2938 0
L 2938 2094
Q 2938 2591 2744 2837
Q 2550 3084 2163 3084
Q 1697 3084 1428 2787
Q 1159 2491 1159 1978
L 1159 0
L 581 0
L 581 3500
L 1159 3500
L 1159 2956
Q 1366 3272 1645 3428
Q 1925 3584 2291 3584
Q 2894 3584 3203 3211
Q 3513 2838 3513 2113
z
" transform="scale(0.015625)"/>
     <path id="DejaVuSans-69" d="M 603 3500
L 1178 3500
L 1178 0
L 603 0
L 603 3500
z
M 603 4863
L 1178 4863
L 1178 4134
L 603 4134
L 603 4863
z
" transform="scale(0.015625)"/>
     <path id="DejaVuSans-73" d="M 2834 3397
L 2834 2853
Q 2591 2978 2328 3040
Q 2066 3103 1784 3103
Q 1356 3103 1142 2972
Q 928 2841 928 2578
Q 928 2378 1081 2264
Q 1234 2150 1697 2047
L 1894 2003
Q 2506 1872 2764 1633
Q 3022 1394 3022 966
Q 3022 478 2636 193
Q 2250 -91 1575 -91
Q 1294 -91 989 -36
Q 684 19 347 128
L 347 722
Q 666 556 975 473
Q 1284 391 1588 391
Q 1994 391 2212 530
Q 2431 669 2431 922
Q 2431 1156 2273 1281
Q 2116 1406 1581 1522
L 1381 1569
Q 847 1681 609 1914
Q 372 2147 372 2553
Q 372 3047 722 3315
Q 1072 3584 1716 3584
Q 2034 3584 2315 3537
Q 2597 3491 2834 3397
z
" transform="scale(0.015625)"/>
     <path id="DejaVuSans-64" d="M 2906 2969
L 2906 4863
L 3481 4863
L 3481 0
L 2906 0
L 2906 525
Q 2725 213 2448 61
Q 2172 -91 1784 -91
Q 1150 -91 751 415
Q 353 922 353 1747
Q 353 2572 751 3078
Q 1150 3584 1784 3584
Q 2172 3584 2448 3432
Q 2725 3281 2906 2969
z
M 947 1747
Q 947 1113 1208 752
Q 1469 391 1925 391
Q 2381 391 2643 752
Q 2906 1113 2906 1747
Q 2906 2381 2643 2742
Q 2381 3103 1925 3103
Q 1469 3103 1208 2742
Q 947 2381 947 1747
z
" transform="scale(0.015625)"/>
     <path id="DejaVuSans-72" d="M 2631 2963
Q 2534 3019 2420 3045
Q 2306 3072 2169 3072
Q 1681 3072 1420 2755
Q 1159 2438 1159 1844
L 1159 0
L 581 0
L 581 3500
L 1159 3500
L 1159 2956
Q 1341 3275 1631 3429
Q 1922 3584 2338 3584
Q 2397 3584 2469 3576
Q 2541 3569 2628 3553
L 2631 2963
z
" transform="scale(0.015625)"/>
     <path id="DejaVuSans-6d" d="M 3328 2828
Q 3544 3216 3844 3400
Q 4144 3584 4550 3584
Q 5097 3584 5394 3201
Q 5691 2819 5691 2113
L 5691 0
L 5113 0
L 5113 2094
Q 5113 2597 4934 2840
Q 4756 3084 4391 3084
Q 3944 3084 3684 2787
Q 3425 2491 3425 1978
L 3425 0
L 2847 0
L 2847 2094
Q 2847 2600 2669 2842
Q 2491 3084 2119 3084
Q 1678 3084 1418 2786
Q 1159 2488 1159 1978
L 1159 0
L 581 0
L 581 3500
L 1159 3500
L 1159 2956
Q 1356 3278 1631 3431
Q 1906 3584 2284 3584
Q 2666 3584 2933 3390
Q 3200 3197 3328 2828
z
" transform="scale(0.015625)"/>
     <path id="DejaVuSans-79" d="M 2059 -325
Q 1816 -950 1584 -1140
Q 1353 -1331 966 -1331
L 506 -1331
L 506 -850
L 844 -850
Q 1081 -850 1212 -737
Q 1344 -625 1503 -206
L 1606 56
L 191 3500
L 800 3500
L 1894 763
L 2988 3500
L 3597 3500
L 2059 -325
z
" transform="scale(0.015625)"/>
     <path id="DejaVuSans-3b" d="M 750 3309
L 1409 3309
L 1409 2516
L 750 2516
L 750 3309
z
M 750 794
L 1409 794
L 1409 256
L 897 -744
L 494 -744
L 750 256
L 750 794
z
" transform="scale(0.015625)"/>
     <path id="DejaVuSans-67" d="M 2906 1791
Q 2906 2416 2648 2759
Q 2391 3103 1925 3103
Q 1463 3103 1205 2759
Q 947 2416 947 1791
Q 947 1169 1205 825
Q 1463 481 1925 481
Q 2391 481 2648 825
Q 2906 1169 2906 1791
z
M 3481 434
Q 3481 -459 3084 -895
Q 2688 -1331 1869 -1331
Q 1566 -1331 1297 -1286
Q 1028 -1241 775 -1147
L 775 -588
Q 1028 -725 1275 -790
Q 1522 -856 1778 -856
Q 2344 -856 2625 -561
Q 2906 -266 2906 331
L 2906 616
Q 2728 306 2450 153
Q 2172 0 1784 0
Q 1141 0 747 490
Q 353 981 353 1791
Q 353 2603 747 3093
Q 1141 3584 1784 3584
Q 2172 3584 2450 3431
Q 2728 3278 2906 2969
L 2906 3500
L 3481 3500
L 3481 434
z
" transform="scale(0.015625)"/>
     <path id="DejaVuSans-68" d="M 3513 2113
L 3513 0
L 2938 0
L 2938 2094
Q 2938 2591 2744 2837
Q 2550 3084 2163 3084
Q 1697 3084 1428 2787
Q 1159 2491 1159 1978
L 1159 0
L 581 0
L 581 4863
L 1159 4863
L 1159 2956
Q 1366 3272 1645 3428
Q 1925 3584 2291 3584
Q 2894 3584 3203 3211
Q 3513 2838 3513 2113
z
" transform="scale(0.015625)"/>
     <path id="DejaVuSans-75" d="M 544 1381
L 544 3500
L 1119 3500
L 1119 1403
Q 1119 906 1312 657
Q 1506 409 1894 409
Q 2359 409 2629 706
Q 2900 1003 2900 1516
L 2900 3500
L 3475 3500
L 3475 0
L 2900 0
L 2900 538
Q 2691 219 2414 64
Q 2138 -91 1772 -91
Q 1169 -91 856 284
Q 544 659 544 1381
z
M 1991 3584
L 1991 3584
z
" transform="scale(0.015625)"/>
     <path id="DejaVuSans-76" d="M 191 3500
L 800 3500
L 1894 563
L 2988 3500
L 3597 3500
L 2284 0
L 1503 0
L 191 3500
z
" transform="scale(0.015625)"/>
     <path id="DejaVuSans-62" d="M 3116 1747
Q 3116 2381 2855 2742
Q 2594 3103 2138 3103
Q 1681 3103 1420 2742
Q 1159 2381 1159 1747
Q 1159 1113 1420 752
Q 1681 391 2138 391
Q 2594 391 2855 752
Q 3116 1113 3116 1747
z
M 1159 2969
Q 1341 3281 1617 3432
Q 1894 3584 2278 3584
Q 2916 3584 3314 3078
Q 3713 2572 3713 1747
Q 3713 922 3314 415
Q 2916 -91 2278 -91
Q 1894 -91 1617 61
Q 1341 213 1159 525
L 1159 0
L 581 0
L 581 4863
L 1159 4863
L 1159 2969
z
" transform="scale(0.015625)"/>
     <path id="DejaVuSans-2e" d="M 684 794
L 1344 794
L 1344 0
L 684 0
L 684 794
z
" transform="scale(0.015625)"/>
    </defs>
    <use xlink:href="#DejaVuSans-4c"/>
    <use xlink:href="#DejaVuSans-6f" transform="translate(53.962891 0)"/>
    <use xlink:href="#DejaVuSans-63" transform="translate(115.144531 0)"/>
    <use xlink:href="#DejaVuSans-61" transform="translate(170.125 0)"/>
    <use xlink:href="#DejaVuSans-6c" transform="translate(231.404297 0)"/>
    <use xlink:href="#DejaVuSans-20" transform="translate(259.1875 0)"/>
    <use xlink:href="#DejaVuSans-66" transform="translate(290.974609 0)"/>
    <use xlink:href="#DejaVuSans-61" transform="translate(326.179688 0)"/>
    <use xlink:href="#DejaVuSans-63" transform="translate(387.458984 0)"/>
    <use xlink:href="#DejaVuSans-65" transform="translate(442.439453 0)"/>
    <use xlink:href="#DejaVuSans-2d" transform="translate(503.962891 0)"/>
    <use xlink:href="#DejaVuSans-74" transform="translate(540.046875 0)"/>
    <use xlink:href="#DejaVuSans-6f" transform="translate(579.255859 0)"/>
    <use xlink:href="#DejaVuSans-2d" transform="translate(642.3125 0)"/>
    <use xlink:href="#DejaVuSans-66" transform="translate(678.396484 0)"/>
    <use xlink:href="#DejaVuSans-61" transform="translate(713.601562 0)"/>
    <use xlink:href="#DejaVuSans-63" transform="translate(774.880859 0)"/>
    <use xlink:href="#DejaVuSans-65" transform="translate(829.861328 0)"/>
    <use xlink:href="#DejaVuSans-20" transform="translate(891.384766 0)"/>
    <use xlink:href="#DejaVuSans-70" transform="translate(923.171875 0)"/>
    <use xlink:href="#DejaVuSans-65" transform="translate(986.648438 0)"/>
    <use xlink:href="#DejaVuSans-6e" transform="translate(1048.171875 0)"/>
    <use xlink:href="#DejaVuSans-61" transform="translate(1111.550781 0)"/>
    <use xlink:href="#DejaVuSans-6c" transform="translate(1172.830078 0)"/>
    <use xlink:href="#DejaVuSans-74" transform="translate(1200.613281 0)"/>
    <use xlink:href="#DejaVuSans-69" transform="translate(1239.822266 0)"/>
    <use xlink:href="#DejaVuSans-65" transform="translate(1267.605469 0)"/>
    <use xlink:href="#DejaVuSans-73" transform="translate(1329.128906 0)"/>
    <use xlink:href="#DejaVuSans-20" transform="translate(1381.228516 0)"/>
    <use xlink:href="#DejaVuSans-63" transform="translate(1413.015625 0)"/>
    <use xlink:href="#DejaVuSans-61" transform="translate(1467.996094 0)"/>
    <use xlink:href="#DejaVuSans-6e" transform="translate(1529.275391 0)"/>
    <use xlink:href="#DejaVuSans-20" transform="translate(1592.654297 0)"/>
    <use xlink:href="#DejaVuSans-64" transform="translate(1624.441406 0)"/>
    <use xlink:href="#DejaVuSans-72" transform="translate(1687.917969 0)"/>
    <use xlink:href="#DejaVuSans-69" transform="translate(1729.03125 0)"/>
    <use xlink:href="#DejaVuSans-66" transform="translate(1756.814453 0)"/>
    <use xlink:href="#DejaVuSans-74" transform="translate(1790.269531 0)"/>
    <use xlink:href="#DejaVuSans-20" transform="translate(1829.478516 0)"/>
    <use xlink:href="#DejaVuSans-61" transform="translate(1861.265625 0)"/>
    <use xlink:href="#DejaVuSans-66" transform="translate(1922.544922 0)"/>
    <use xlink:href="#DejaVuSans-74" transform="translate(1956 0)"/>
    <use xlink:href="#DejaVuSans-65" transform="translate(1995.208984 0)"/>
    <use xlink:href="#DejaVuSans-72" transform="translate(2056.732422 0)"/>
    <use xlink:href="#DejaVuSans-20" transform="translate(2097.845703 0)"/>
    <use xlink:href="#DejaVuSans-6d" transform="translate(2129.632812 0)"/>
    <use xlink:href="#DejaVuSans-61" transform="translate(2227.044922 0)"/>
    <use xlink:href="#DejaVuSans-6e" transform="translate(2288.324219 0)"/>
    <use xlink:href="#DejaVuSans-79" transform="translate(2351.703125 0)"/>
    <use xlink:href="#DejaVuSans-20" transform="translate(2410.882812 0)"/>
    <use xlink:href="#DejaVuSans-63" transform="translate(2442.669922 0)"/>
    <use xlink:href="#DejaVuSans-6f" transform="translate(2497.650391 0)"/>
    <use xlink:href="#DejaVuSans-6c" transform="translate(2558.832031 0)"/>
    <use xlink:href="#DejaVuSans-6c" transform="translate(2586.615234 0)"/>
    <use xlink:href="#DejaVuSans-61" transform="translate(2614.398438 0)"/>
    <use xlink:href="#DejaVuSans-70" transform="translate(2675.677734 0)"/>
    <use xlink:href="#DejaVuSans-73" transform="translate(2739.154297 0)"/>
    <use xlink:href="#DejaVuSans-65" transform="translate(2791.253906 0)"/>
    <use xlink:href="#DejaVuSans-73" transform="translate(2852.777344 0)"/>
    <use xlink:href="#DejaVuSans-3b" transform="translate(2904.876953 0)"/>
    <use xlink:href="#DejaVuSans-20" transform="translate(2938.568359 0)"/>
    <use xlink:href="#DejaVuSans-63" transform="translate(2970.355469 0)"/>
    <use xlink:href="#DejaVuSans-61" transform="translate(3025.335938 0)"/>
    <use xlink:href="#DejaVuSans-72" transform="translate(3086.615234 0)"/>
    <use xlink:href="#DejaVuSans-72" transform="translate(3125.978516 0)"/>
    <use xlink:href="#DejaVuSans-79" transform="translate(3167.091797 0)"/>
    <use xlink:href="#DejaVuSans-69" transform="translate(3226.271484 0)"/>
    <use xlink:href="#DejaVuSans-6e" transform="translate(3254.054688 0)"/>
    <use xlink:href="#DejaVuSans-67" transform="translate(3317.433594 0)"/>
    <use xlink:href="#DejaVuSans-20" transform="translate(3380.910156 0)"/>
    <use xlink:href="#DejaVuSans-74" transform="translate(3412.697266 0)"/>
    <use xlink:href="#DejaVuSans-68" transform="translate(3451.90625 0)"/>
    <use xlink:href="#DejaVuSans-65" transform="translate(3515.285156 0)"/>
    <use xlink:href="#DejaVuSans-20" transform="translate(3576.808594 0)"/>
    <use xlink:href="#DejaVuSans-73" transform="translate(3608.595703 0)"/>
    <use xlink:href="#DejaVuSans-75" transform="translate(3660.695312 0)"/>
    <use xlink:href="#DejaVuSans-6d" transform="translate(3724.074219 0)"/>
    <use xlink:href="#DejaVuSans-20" transform="translate(3821.486328 0)"/>
    <use xlink:href="#DejaVuSans-6f" transform="translate(3853.273438 0)"/>
    <use xlink:href="#DejaVuSans-66" transform="translate(3914.455078 0)"/>
    <use xlink:href="#DejaVuSans-20" transform="translate(3949.660156 0)"/>
    <use xlink:href="#DejaVuSans-6f" transform="translate(3981.447266 0)"/>
    <use xlink:href="#DejaVuSans-72" transform="translate(4042.628906 0)"/>
    <use xlink:href="#DejaVuSans-69" transform="translate(4083.742188 0)"/>
    <use xlink:href="#DejaVuSans-67" transform="translate(4111.525391 0)"/>
    <use xlink:href="#DejaVuSans-69" transform="translate(4175.001953 0)"/>
    <use xlink:href="#DejaVuSans-6e" transform="translate(4202.785156 0)"/>
    <use xlink:href="#DejaVuSans-61" transform="translate(4266.164062 0)"/>
    <use xlink:href="#DejaVuSans-6c" transform="translate(4327.443359 0)"/>
    <use xlink:href="#DejaVuSans-20" transform="translate(4355.226562 0)"/>
    <use xlink:href="#DejaVuSans-73" transform="translate(4387.013672 0)"/>
    <use xlink:href="#DejaVuSans-75" transform="translate(4439.113281 0)"/>
    <use xlink:href="#DejaVuSans-70" transform="translate(4502.492188 0)"/>
    <use xlink:href="#DejaVuSans-70" transform="translate(4565.96875 0)"/>
    <use xlink:href="#DejaVuSans-6f" transform="translate(4629.445312 0)"/>
    <use xlink:href="#DejaVuSans-72" transform="translate(4690.626953 0)"/>
    <use xlink:href="#DejaVuSans-74" transform="translate(4731.740234 0)"/>
    <use xlink:href="#DejaVuSans-20" transform="translate(4770.949219 0)"/>
    <use xlink:href="#DejaVuSans-6e" transform="translate(4802.736328 0)"/>
    <use xlink:href="#DejaVuSans-6f" transform="translate(4866.115234 0)"/>
    <use xlink:href="#DejaVuSans-72" transform="translate(4927.296875 0)"/>
    <use xlink:href="#DejaVuSans-6d" transform="translate(4966.660156 0)"/>
    <use xlink:href="#DejaVuSans-61" transform="translate(5064.072266 0)"/>
    <use xlink:href="#DejaVuSans-6c" transform="translate(5125.351562 0)"/>
    <use xlink:href="#DejaVuSans-73" transform="translate(5153.134766 0)"/>
    <use xlink:href="#DejaVuSans-20" transform="translate(5205.234375 0)"/>
    <use xlink:href="#DejaVuSans-70" transform="translate(5237.021484 0)"/>
    <use xlink:href="#DejaVuSans-72" transform="translate(5300.498047 0)"/>
    <use xlink:href="#DejaVuSans-65" transform="translate(5339.361328 0)"/>
    <use xlink:href="#DejaVuSans-73" transform="translate(5400.884766 0)"/>
    <use xlink:href="#DejaVuSans-65" transform="translate(5452.984375 0)"/>
    <use xlink:href="#DejaVuSans-72" transform="translate(5514.507812 0)"/>
    <use xlink:href="#DejaVuSans-76" transform="translate(5555.621094 0)"/>
    <use xlink:href="#DejaVuSans-65" transform="translate(5614.800781 0)"/>
    <use xlink:href="#DejaVuSans-73" transform="translate(5676.324219 0)"/>
    <use xlink:href="#DejaVuSans-20" transform="translate(5728.423828 0)"/>
    <use xlink:href="#DejaVuSans-61" transform="translate(5760.210938 0)"/>
    <use xlink:href="#DejaVuSans-20" transform="translate(5821.490234 0)"/>
    <use xlink:href="#DejaVuSans-73" transform="translate(5853.277344 0)"/>
    <use xlink:href="#DejaVuSans-74" transform="translate(5905.376953 0)"/>
    <use xlink:href="#DejaVuSans-61" transform="translate(5944.585938 0)"/>
    <use xlink:href="#DejaVuSans-62" transform="translate(6005.865234 0)"/>
    <use xlink:href="#DejaVuSans-6c" transform="translate(6069.341797 0)"/>
    <use xlink:href="#DejaVuSans-65" transform="translate(6097.125 0)"/>
    <use xlink:href="#DejaVuSans-20" transform="translate(6158.648438 0)"/>
    <use xlink:href="#DejaVuSans-72" transform="translate(6190.435547 0)"/>
    <use xlink:href="#DejaVuSans-65" transform="translate(6229.298828 0)"/>
    <use xlink:href="#DejaVuSans-66" transform="translate(6290.822266 0)"/>
    <use xlink:href="#DejaVuSans-65" transform="translate(6326.027344 0)"/>
    <use xlink:href="#DejaVuSans-72" transform="translate(6387.550781 0)"/>
    <use xlink:href="#DejaVuSans-65" transform="translate(6426.414062 0)"/>
    <use xlink:href="#DejaVuSans-6e" transform="translate(6487.9375 0)"/>
    <use xlink:href="#DejaVuSans-63" transform="translate(6551.316406 0)"/>
    <use xlink:href="#DejaVuSans-65" transform="translate(6606.296875 0)"/>
    <use xlink:href="#DejaVuSans-2e" transform="translate(6667.820312 0)"/>
   </g>
  </g>
 </g>
 <defs>
  <clipPath id="p0a3e7f7b2c">
   <rect x="25.180312" y="21.558281" width="172.323529" height="146.100384"/>
  </clipPath>
  <clipPath id="pfb1e623246">
   <rect x="231.968548" y="21.558281" width="172.323529" height="146.100384"/>
  </clipPath>
  <clipPath id="p2ff5808ffb">
   <rect x="438.756783" y="21.558281" width="172.323529" height="146.100384"/>
  </clipPath>
 </defs>
</svg>
