<?xml version="1.0" encoding="utf-8" standalone="no"?>
<!DOCTYPE svg PUBLIC "-//W3C//DTD SVG 1.1//EN"
  "http://www.w3.org/Graphics/SVG/1.1/DTD/svg11.dtd">
<svg xmlns:xlink="http://www.w3.org/1999/xlink" width="617.04pt" height="302.688pt" viewBox="0 0 617.04 302.688" xmlns="http://www.w3.org/2000/svg" version="1.1">
 <metadata>
  <rdf:RDF xmlns:dc="http://purl.org/dc/elements/1.1/" xmlns:cc="http://creativecommons.org/ns#" xmlns:rdf="http://www.w3.org/1999/02/22-rdf-syntax-ns#">
   <cc:Work>
    <dc:type rdf:resource="http://purl.org/dc/dcmitype/StillImage"/>
    <dc:date>2026-07-20T01:56:28.826580</dc:date>
    <dc:format>image/svg+xml</dc:format>
    <dc:creator>
     <cc:Agent>
      <dc:title>Matplotlib v3.10.8, https://matplotlib.org/</dc:title>
     </cc:Agent>
    </dc:creator>
   </cc:Work>
  </rdf:RDF>
 </metadata>
 <defs>
  <style type="text/css">*{stroke-linejoin: round; stroke-linecap: butt}</style>
 </defs>
 <g id="figure_1">
  <g id="patch_1">
   <path d="M 0 302.688
L 617.04 302.688
L 617.04 0
L 0 0
z
" style="fill: #ffffff"/>
  </g>
  <g id="axes_1">
   <g id="patch_2">
    <path d="M 29.49768 107.524224
L 123.50952 107.524224
Q 138.57552 107.524224 138.57552 100.317024
L 138.57552 52.461216
Q 138.57552 45.254016 123.50952 45.254016
L 29.49768 45.254016
Q 14.43168 45.254016 14.43168 52.461216
L 14.43168 100.317024
Q 14.43168 107.524224 29.49768 107.524224
z
" clip-path="url(#pae539873d8)" style="fill: #ffffff; stroke: #548235; stroke-width: 1.5; stroke-linejoin: miter"/>
   </g>
   <g id="patch_3">
    <path d="M 162.07848 107.524224
L 256.09032 107.524224
Q 271.15632 107.524224 271.15632 100.317024
L 271.15632 52.461216
Q 271.15632 45.254016 256.09032 45.254016
L 162.07848 45.254016
Q 147.01248 45.254016 147.01248 52.461216
L 147.01248 100.317024
Q 147.01248 107.524224 162.07848 107.524224
z
" clip-path="url(#pae539873d8)" style="fill: #ffffff; stroke: #17365d; stroke-width: 1.5; stroke-linejoin: miter"/>
   </g>
   <g id="patch_4">
    <path d="M 294.65928 107.524224
L 388.67112 107.524224
Q 403.73712 107.524224 403.73712 100.317024
L 403.73712 52.461216
Q 403.73712 45.254016 388.67112 45.254016
L 294.65928 45.254016
Q 279.59328 45.254016 279.59328 52.461216
L 279.59328 100.317024
Q 279.59328 107.524224 294.65928 107.524224
z
" clip-path="url(#pae539873d8)" style="fill: #ffffff; stroke: #548235; stroke-width: 1.5; stroke-linejoin: miter"/>
   </g>
   <g id="patch_5">
    <path d="M 427.24008 107.524224
L 521.25192 107.524224
Q 536.31792 107.524224 536.31792 100.317024
L 536.31792 52.461216
Q 536.31792 45.254016 521.25192 45.254016
L 427.24008 45.254016
Q 412.17408 45.254016 412.17408 52.461216
L 412.17408 100.317024
Q 412.17408 107.524224 427.24008 107.524224
z
" clip-path="url(#pae539873d8)" style="fill: #ffffff; stroke: #366092; stroke-width: 1.5; stroke-linejoin: miter"/>
   </g>
   <g id="patch_6">
    <path d="M 129.725275 76.38912
Q 142.791506 76.38912 154.292489 76.38912
" clip-path="url(#pae539873d8)" style="fill: none; stroke: #17365d; stroke-width: 1.4; stroke-linecap: round"/>
    <path d="M 149.492489 73.98912
L 154.292489 76.38912
L 149.492489 78.78912
z
" clip-path="url(#pae539873d8)" style="fill: #17365d; stroke: #17365d; stroke-width: 1.4; stroke-linecap: round"/>
   </g>
   <g id="patch_7">
    <path d="M 262.306075 76.38912
Q 275.372306 76.38912 286.873289 76.38912
" clip-path="url(#pae539873d8)" style="fill: none; stroke: #17365d; stroke-width: 1.4; stroke-linecap: round"/>
    <path d="M 282.073289 73.98912
L 286.873289 76.38912
L 282.073289 78.78912
z
" clip-path="url(#pae539873d8)" style="fill: #17365d; stroke: #17365d; stroke-width: 1.4; stroke-linecap: round"/>
   </g>
   <g id="patch_8">
    <path d="M 394.886875 76.38912
Q 407.953106 76.38912 419.454089 76.38912
" clip-path="url(#pae539873d8)" style="fill: none; stroke: #366092; stroke-width: 1.4; stroke-linecap: round"/>
    <path d="M 414.654089 73.98912
L 419.454089 76.38912
L 414.654089 78.78912
z
" clip-path="url(#pae539873d8)" style="fill: #366092; stroke: #366092; stroke-width: 1.4; stroke-linecap: round"/>
   </g>
   <g id="patch_9">
    <path d="M 71.68248 228.605184
L 195.82632 228.605184
Q 210.89232 228.605184 210.89232 221.397984
L 210.89232 167.776416
Q 210.89232 160.569216 195.82632 160.569216
L 71.68248 160.569216
Q 56.61648 160.569216 56.61648 167.776416
L 56.61648 221.397984
Q 56.61648 228.605184 71.68248 228.605184
z
" clip-path="url(#pae539873d8)" style="fill: #ffffff; stroke: #366092; stroke-width: 1.5; stroke-linejoin: miter"/>
   </g>
   <g id="patch_10">
    <path d="M 246.44808 228.605184
L 370.59192 228.605184
Q 385.65792 228.605184 385.65792 221.397984
L 385.65792 167.776416
Q 385.65792 160.569216 370.59192 160.569216
L 246.44808 160.569216
Q 231.38208 160.569216 231.38208 167.776416
L 231.38208 221.397984
Q 231.38208 228.605184 246.44808 228.605184
z
" clip-path="url(#pae539873d8)" style="fill: #ffffff; stroke: #548235; stroke-width: 1.5; stroke-linejoin: miter"/>
   </g>
   <g id="patch_11">
    <path d="M 421.21368 228.605184
L 545.35752 228.605184
Q 560.42352 228.605184 560.42352 221.397984
L 560.42352 167.776416
Q 560.42352 160.569216 545.35752 160.569216
L 421.21368 160.569216
Q 406.14768 160.569216 406.14768 167.776416
L 406.14768 221.397984
Q 406.14768 228.605184 421.21368 228.605184
z
" clip-path="url(#pae539873d8)" style="fill: #ffffff; stroke: #c65911; stroke-width: 1.5; stroke-linejoin: miter"/>
   </g>
   <g id="patch_12">
    <path d="M 463.250781 102.738597
Q 311.536298 134.046081 161.354764 165.037228
" clip-path="url(#pae539873d8)" style="fill: none; stroke: #366092; stroke-width: 1.4; stroke-linecap: round"/>
    <path d="M 166.540755 166.417625
L 161.354764 165.037228
L 165.570676 161.716673
z
" clip-path="url(#pae539873d8)" style="fill: #366092; stroke: #366092; stroke-width: 1.4; stroke-linecap: round"/>
   </g>
   <g id="patch_13">
    <path d="M 475.387352 103.038604
Q 392.889402 134.046794 311.856622 164.504277
" clip-path="url(#pae539873d8)" style="fill: none; stroke: #548235; stroke-width: 1.4; stroke-linecap: round"/>
    <path d="M 317.194123 165.062022
L 311.856622 164.504277
L 315.505319 160.568923
z
" clip-path="url(#pae539873d8)" style="fill: #548235; stroke: #548235; stroke-width: 1.4; stroke-linecap: round"/>
   </g>
   <g id="patch_14">
    <path d="M 376.810985 194.5872
Q 395.904864 194.5872 413.433495 194.5872
" clip-path="url(#pae539873d8)" style="fill: none; stroke: #c65911; stroke-width: 1.4; stroke-linecap: round"/>
    <path d="M 408.633495 192.1872
L 413.433495 194.5872
L 408.633495 196.9872
z
" clip-path="url(#pae539873d8)" style="fill: #c65911; stroke: #c65911; stroke-width: 1.4; stroke-linecap: round"/>
   </g>
   <g id="patch_15">
    <path d="M 202.045385 194.5872
Q 221.139264 194.5872 238.667895 194.5872
" clip-path="url(#pae539873d8)" style="fill: none; stroke: #17365d; stroke-width: 1.4; stroke-linecap: round"/>
    <path d="M 233.867895 192.1872
L 238.667895 194.5872
L 233.867895 196.9872
z
" clip-path="url(#pae539873d8)" style="fill: #17365d; stroke: #17365d; stroke-width: 1.4; stroke-linecap: round"/>
   </g>
   <g id="patch_16">
    <path d="M 228.36888 293.469984
L 418.80312 293.469984
Q 433.86912 293.469984 433.86912 286.262784
L 433.86912 252.821376
Q 433.86912 245.614176 418.80312 245.614176
L 228.36888 245.614176
Q 213.30288 245.614176 213.30288 252.821376
L 213.30288 286.262784
Q 213.30288 293.469984 228.36888 293.469984
z
" clip-path="url(#pae539873d8)" style="fill: #ffffff; stroke: #548235; stroke-width: 1.5; stroke-linejoin: miter"/>
   </g>
   <g id="patch_17">
    <path d="M 308.52 225.415048
Q 308.52 238.551558 308.52 250.122821
" clip-path="url(#pae539873d8)" style="fill: none; stroke: #548235; stroke-width: 1.4; stroke-linecap: round"/>
    <path d="M 310.92 245.322821
L 308.52 250.122821
L 306.12 245.322821
z
" clip-path="url(#pae539873d8)" style="fill: #548235; stroke: #548235; stroke-width: 1.4; stroke-linecap: round"/>
   </g>
   <g id="patch_18">
    <path d="M 481.369062 223.982274
Q 432.061681 238.550978 384.255396 252.676158
" clip-path="url(#pae539873d8)" style="fill: none; stroke: #c65911; stroke-width: 1.4; stroke-linecap: round"/>
    <path d="M 389.538722 253.617678
L 384.255396 252.676158
L 388.178608 249.014409
z
" clip-path="url(#pae539873d8)" style="fill: #c65911; stroke: #c65911; stroke-width: 1.4; stroke-linecap: round"/>
   </g>
   <g id="text_1">
    <!-- Accepted parent -->
    <g style="fill: #548235" transform="translate(27.544069 73.059443) scale(0.105 -0.105)">
     <defs>
      <path id="DejaVuSans-Bold-41" d="M 3419 850
L 1538 850
L 1241 0
L 31 0
L 1759 4666
L 3194 4666
L 4922 0
L 3713 0
L 3419 850
z
M 1838 1716
L 3116 1716
L 2478 3572
L 1838 1716
z
" transform="scale(0.015625)"/>
      <path id="DejaVuSans-Bold-63" d="M 3366 3391
L 3366 2478
Q 3138 2634 2908 2709
Q 2678 2784 2431 2784
Q 1963 2784 1702 2511
Q 1441 2238 1441 1747
Q 1441 1256 1702 982
Q 1963 709 2431 709
Q 2694 709 2930 787
Q 3166 866 3366 1019
L 3366 103
Q 3103 6 2833 -42
Q 2563 -91 2291 -91
Q 1344 -91 809 395
Q 275 881 275 1747
Q 275 2613 809 3098
Q 1344 3584 2291 3584
Q 2566 3584 2833 3536
Q 3100 3488 3366 3391
z
" transform="scale(0.015625)"/>
      <path id="DejaVuSans-Bold-65" d="M 4031 1759
L 4031 1441
L 1416 1441
Q 1456 1047 1700 850
Q 1944 653 2381 653
Q 2734 653 3104 758
Q 3475 863 3866 1075
L 3866 213
Q 3469 63 3072 -14
Q 2675 -91 2278 -91
Q 1328 -91 801 392
Q 275 875 275 1747
Q 275 2603 792 3093
Q 1309 3584 2216 3584
Q 3041 3584 3536 3087
Q 4031 2591 4031 1759
z
M 2881 2131
Q 2881 2450 2695 2645
Q 2509 2841 2209 2841
Q 1884 2841 1681 2658
Q 1478 2475 1428 2131
L 2881 2131
z
" transform="scale(0.015625)"/>
      <path id="DejaVuSans-Bold-70" d="M 1656 506
L 1656 -1331
L 538 -1331
L 538 3500
L 1656 3500
L 1656 2988
Q 1888 3294 2169 3439
Q 2450 3584 2816 3584
Q 3463 3584 3878 3070
Q 4294 2556 4294 1747
Q 4294 938 3878 423
Q 3463 -91 2816 -91
Q 2450 -91 2169 54
Q 1888 200 1656 506
z
M 2400 2772
Q 2041 2772 1848 2508
Q 1656 2244 1656 1747
Q 1656 1250 1848 986
Q 2041 722 2400 722
Q 2759 722 2948 984
Q 3138 1247 3138 1747
Q 3138 2247 2948 2509
Q 2759 2772 2400 2772
z
" transform="scale(0.015625)"/>
      <path id="DejaVuSans-Bold-74" d="M 1759 4494
L 1759 3500
L 2913 3500
L 2913 2700
L 1759 2700
L 1759 1216
Q 1759 972 1856 886
Q 1953 800 2241 800
L 2816 800
L 2816 0
L 1856 0
Q 1194 0 917 276
Q 641 553 641 1216
L 641 2700
L 84 2700
L 84 3500
L 641 3500
L 641 4494
L 1759 4494
z
" transform="scale(0.015625)"/>
      <path id="DejaVuSans-Bold-64" d="M 2919 2988
L 2919 4863
L 4044 4863
L 4044 0
L 2919 0
L 2919 506
Q 2688 197 2409 53
Q 2131 -91 1766 -91
Q 1119 -91 703 423
Q 288 938 288 1747
Q 288 2556 703 3070
Q 1119 3584 1766 3584
Q 2128 3584 2408 3439
Q 2688 3294 2919 2988
z
M 2181 722
Q 2541 722 2730 984
Q 2919 1247 2919 1747
Q 2919 2247 2730 2509
Q 2541 2772 2181 2772
Q 1825 2772 1636 2509
Q 1447 2247 1447 1747
Q 1447 1247 1636 984
Q 1825 722 2181 722
z
" transform="scale(0.015625)"/>
      <path id="DejaVuSans-Bold-20" transform="scale(0.015625)"/>
      <path id="DejaVuSans-Bold-61" d="M 2106 1575
Q 1756 1575 1579 1456
Q 1403 1338 1403 1106
Q 1403 894 1545 773
Q 1688 653 1941 653
Q 2256 653 2472 879
Q 2688 1106 2688 1447
L 2688 1575
L 2106 1575
z
M 3816 1997
L 3816 0
L 2688 0
L 2688 519
Q 2463 200 2181 54
Q 1900 -91 1497 -91
Q 953 -91 614 226
Q 275 544 275 1050
Q 275 1666 698 1953
Q 1122 2241 2028 2241
L 2688 2241
L 2688 2328
Q 2688 2594 2478 2717
Q 2269 2841 1825 2841
Q 1466 2841 1156 2769
Q 847 2697 581 2553
L 581 3406
Q 941 3494 1303 3539
Q 1666 3584 2028 3584
Q 2975 3584 3395 3211
Q 3816 2838 3816 1997
z
" transform="scale(0.015625)"/>
      <path id="DejaVuSans-Bold-72" d="M 3138 2547
Q 2991 2616 2845 2648
Q 2700 2681 2553 2681
Q 2122 2681 1889 2404
Q 1656 2128 1656 1613
L 1656 0
L 538 0
L 538 3500
L 1656 3500
L 1656 2925
Q 1872 3269 2151 3426
Q 2431 3584 2822 3584
Q 2878 3584 2943 3579
Q 3009 3575 3134 3559
L 3138 2547
z
" transform="scale(0.015625)"/>
      <path id="DejaVuSans-Bold-6e" d="M 4056 2131
L 4056 0
L 2931 0
L 2931 347
L 2931 1631
Q 2931 2084 2911 2256
Q 2891 2428 2841 2509
Q 2775 2619 2662 2680
Q 2550 2741 2406 2741
Q 2056 2741 1856 2470
Q 1656 2200 1656 1722
L 1656 0
L 538 0
L 538 3500
L 1656 3500
L 1656 2988
Q 1909 3294 2193 3439
Q 2478 3584 2822 3584
Q 3428 3584 3742 3212
Q 4056 2841 4056 2131
z
" transform="scale(0.015625)"/>
     </defs>
     <use xlink:href="#DejaVuSans-Bold-41"/>
     <use xlink:href="#DejaVuSans-Bold-63" transform="translate(77.392578 0)"/>
     <use xlink:href="#DejaVuSans-Bold-63" transform="translate(136.669922 0)"/>
     <use xlink:href="#DejaVuSans-Bold-65" transform="translate(195.947266 0)"/>
     <use xlink:href="#DejaVuSans-Bold-70" transform="translate(263.769531 0)"/>
     <use xlink:href="#DejaVuSans-Bold-74" transform="translate(335.351562 0)"/>
     <use xlink:href="#DejaVuSans-Bold-65" transform="translate(383.154297 0)"/>
     <use xlink:href="#DejaVuSans-Bold-64" transform="translate(450.976562 0)"/>
     <use xlink:href="#DejaVuSans-Bold-20" transform="translate(522.558594 0)"/>
     <use xlink:href="#DejaVuSans-Bold-70" transform="translate(557.373047 0)"/>
     <use xlink:href="#DejaVuSans-Bold-61" transform="translate(628.955078 0)"/>
     <use xlink:href="#DejaVuSans-Bold-72" transform="translate(696.435547 0)"/>
     <use xlink:href="#DejaVuSans-Bold-65" transform="translate(745.751953 0)"/>
     <use xlink:href="#DejaVuSans-Bold-6e" transform="translate(813.574219 0)"/>
     <use xlink:href="#DejaVuSans-Bold-74" transform="translate(884.765625 0)"/>
    </g>
   </g>
   <g id="text_2">
    <!-- fetched-back source -->
    <g style="fill: #666666" transform="translate(34.303936 85.244931) scale(0.083 -0.083)">
     <defs>
      <path id="DejaVuSans-66" d="M 2375 4863
L 2375 4384
L 1825 4384
Q 1516 4384 1395 4259
Q 1275 4134 1275 3809
L 1275 3500
L 2222 3500
L 2222 3053
L 1275 3053
L 1275 0
L 697 0
L 697 3053
L 147 3053
L 147 3500
L 697 3500
L 697 3744
Q 697 4328 969 4595
Q 1241 4863 1831 4863
L 2375 4863
z
" transform="scale(0.015625)"/>
      <path id="DejaVuSans-65" d="M 3597 1894
L 3597 1613
L 953 1613
Q 991 1019 1311 708
Q 1631 397 2203 397
Q 2534 397 2845 478
Q 3156 559 3463 722
L 3463 178
Q 3153 47 2828 -22
Q 2503 -91 2169 -91
Q 1331 -91 842 396
Q 353 884 353 1716
Q 353 2575 817 3079
Q 1281 3584 2069 3584
Q 2775 3584 3186 3129
Q 3597 2675 3597 1894
z
M 3022 2063
Q 3016 2534 2758 2815
Q 2500 3097 2075 3097
Q 1594 3097 1305 2825
Q 1016 2553 972 2059
L 3022 2063
z
" transform="scale(0.015625)"/>
      <path id="DejaVuSans-74" d="M 1172 4494
L 1172 3500
L 2356 3500
L 2356 3053
L 1172 3053
L 1172 1153
Q 1172 725 1289 603
Q 1406 481 1766 481
L 2356 481
L 2356 0
L 1766 0
Q 1100 0 847 248
Q 594 497 594 1153
L 594 3053
L 172 3053
L 172 3500
L 594 3500
L 594 4494
L 1172 4494
z
" transform="scale(0.015625)"/>
      <path id="DejaVuSans-63" d="M 3122 3366
L 3122 2828
Q 2878 2963 2633 3030
Q 2388 3097 2138 3097
Q 1578 3097 1268 2742
Q 959 2388 959 1747
Q 959 1106 1268 751
Q 1578 397 2138 397
Q 2388 397 2633 464
Q 2878 531 3122 666
L 3122 134
Q 2881 22 2623 -34
Q 2366 -91 2075 -91
Q 1284 -91 818 406
Q 353 903 353 1747
Q 353 2603 823 3093
Q 1294 3584 2113 3584
Q 2378 3584 2631 3529
Q 2884 3475 3122 3366
z
" transform="scale(0.015625)"/>
      <path id="DejaVuSans-68" d="M 3513 2113
L 3513 0
L 2938 0
L 2938 2094
Q 2938 2591 2744 2837
Q 2550 3084 2163 3084
Q 1697 3084 1428 2787
Q 1159 2491 1159 1978
L 1159 0
L 581 0
L 581 4863
L 1159 4863
L 1159 2956
Q 1366 3272 1645 3428
Q 1925 3584 2291 3584
Q 2894 3584 3203 3211
Q 3513 2838 3513 2113
z
" transform="scale(0.015625)"/>
      <path id="DejaVuSans-64" d="M 2906 2969
L 2906 4863
L 3481 4863
L 3481 0
L 2906 0
L 2906 525
Q 2725 213 2448 61
Q 2172 -91 1784 -91
Q 1150 -91 751 415
Q 353 922 353 1747
Q 353 2572 751 3078
Q 1150 3584 1784 3584
Q 2172 3584 2448 3432
Q 2725 3281 2906 2969
z
M 947 1747
Q 947 1113 1208 752
Q 1469 391 1925 391
Q 2381 391 2643 752
Q 2906 1113 2906 1747
Q 2906 2381 2643 2742
Q 2381 3103 1925 3103
Q 1469 3103 1208 2742
Q 947 2381 947 1747
z
" transform="scale(0.015625)"/>
      <path id="DejaVuSans-2d" d="M 313 2009
L 1997 2009
L 1997 1497
L 313 1497
L 313 2009
z
" transform="scale(0.015625)"/>
      <path id="DejaVuSans-62" d="M 3116 1747
Q 3116 2381 2855 2742
Q 2594 3103 2138 3103
Q 1681 3103 1420 2742
Q 1159 2381 1159 1747
Q 1159 1113 1420 752
Q 1681 391 2138 391
Q 2594 391 2855 752
Q 3116 1113 3116 1747
z
M 1159 2969
Q 1341 3281 1617 3432
Q 1894 3584 2278 3584
Q 2916 3584 3314 3078
Q 3713 2572 3713 1747
Q 3713 922 3314 415
Q 2916 -91 2278 -91
Q 1894 -91 1617 61
Q 1341 213 1159 525
L 1159 0
L 581 0
L 581 4863
L 1159 4863
L 1159 2969
z
" transform="scale(0.015625)"/>
      <path id="DejaVuSans-61" d="M 2194 1759
Q 1497 1759 1228 1600
Q 959 1441 959 1056
Q 959 750 1161 570
Q 1363 391 1709 391
Q 2188 391 2477 730
Q 2766 1069 2766 1631
L 2766 1759
L 2194 1759
z
M 3341 1997
L 3341 0
L 2766 0
L 2766 531
Q 2569 213 2275 61
Q 1981 -91 1556 -91
Q 1019 -91 701 211
Q 384 513 384 1019
Q 384 1609 779 1909
Q 1175 2209 1959 2209
L 2766 2209
L 2766 2266
Q 2766 2663 2505 2880
Q 2244 3097 1772 3097
Q 1472 3097 1187 3025
Q 903 2953 641 2809
L 641 3341
Q 956 3463 1253 3523
Q 1550 3584 1831 3584
Q 2591 3584 2966 3190
Q 3341 2797 3341 1997
z
" transform="scale(0.015625)"/>
      <path id="DejaVuSans-6b" d="M 581 4863
L 1159 4863
L 1159 1991
L 2875 3500
L 3609 3500
L 1753 1863
L 3688 0
L 2938 0
L 1159 1709
L 1159 0
L 581 0
L 581 4863
z
" transform="scale(0.015625)"/>
      <path id="DejaVuSans-20" transform="scale(0.015625)"/>
      <path id="DejaVuSans-73" d="M 2834 3397
L 2834 2853
Q 2591 2978 2328 3040
Q 2066 3103 1784 3103
Q 1356 3103 1142 2972
Q 928 2841 928 2578
Q 928 2378 1081 2264
Q 1234 2150 1697 2047
L 1894 2003
Q 2506 1872 2764 1633
Q 3022 1394 3022 966
Q 3022 478 2636 193
Q 2250 -91 1575 -91
Q 1294 -91 989 -36
Q 684 19 347 128
L 347 722
Q 666 556 975 473
Q 1284 391 1588 391
Q 1994 391 2212 530
Q 2431 669 2431 922
Q 2431 1156 2273 1281
Q 2116 1406 1581 1522
L 1381 1569
Q 847 1681 609 1914
Q 372 2147 372 2553
Q 372 3047 722 3315
Q 1072 3584 1716 3584
Q 2034 3584 2315 3537
Q 2597 3491 2834 3397
z
" transform="scale(0.015625)"/>
      <path id="DejaVuSans-6f" d="M 1959 3097
Q 1497 3097 1228 2736
Q 959 2375 959 1747
Q 959 1119 1226 758
Q 1494 397 1959 397
Q 2419 397 2687 759
Q 2956 1122 2956 1747
Q 2956 2369 2687 2733
Q 2419 3097 1959 3097
z
M 1959 3584
Q 2709 3584 3137 3096
Q 3566 2609 3566 1747
Q 3566 888 3137 398
Q 2709 -91 1959 -91
Q 1206 -91 779 398
Q 353 888 353 1747
Q 353 2609 779 3096
Q 1206 3584 1959 3584
z
" transform="scale(0.015625)"/>
      <path id="DejaVuSans-75" d="M 544 1381
L 544 3500
L 1119 3500
L 1119 1403
Q 1119 906 1312 657
Q 1506 409 1894 409
Q 2359 409 2629 706
Q 2900 1003 2900 1516
L 2900 3500
L 3475 3500
L 3475 0
L 2900 0
L 2900 538
Q 2691 219 2414 64
Q 2138 -91 1772 -91
Q 1169 -91 856 284
Q 544 659 544 1381
z
M 1991 3584
L 1991 3584
z
" transform="scale(0.015625)"/>
      <path id="DejaVuSans-72" d="M 2631 2963
Q 2534 3019 2420 3045
Q 2306 3072 2169 3072
Q 1681 3072 1420 2755
Q 1159 2438 1159 1844
L 1159 0
L 581 0
L 581 3500
L 1159 3500
L 1159 2956
Q 1341 3275 1631 3429
Q 1922 3584 2338 3584
Q 2397 3584 2469 3576
Q 2541 3569 2628 3553
L 2631 2963
z
" transform="scale(0.015625)"/>
     </defs>
     <use xlink:href="#DejaVuSans-66"/>
     <use xlink:href="#DejaVuSans-65" transform="translate(35.205078 0)"/>
     <use xlink:href="#DejaVuSans-74" transform="translate(96.728516 0)"/>
     <use xlink:href="#DejaVuSans-63" transform="translate(135.9375 0)"/>
     <use xlink:href="#DejaVuSans-68" transform="translate(190.917969 0)"/>
     <use xlink:href="#DejaVuSans-65" transform="translate(254.296875 0)"/>
     <use xlink:href="#DejaVuSans-64" transform="translate(315.820312 0)"/>
     <use xlink:href="#DejaVuSans-2d" transform="translate(379.296875 0)"/>
     <use xlink:href="#DejaVuSans-62" transform="translate(415.380859 0)"/>
     <use xlink:href="#DejaVuSans-61" transform="translate(478.857422 0)"/>
     <use xlink:href="#DejaVuSans-63" transform="translate(540.136719 0)"/>
     <use xlink:href="#DejaVuSans-6b" transform="translate(595.117188 0)"/>
     <use xlink:href="#DejaVuSans-20" transform="translate(653.027344 0)"/>
     <use xlink:href="#DejaVuSans-73" transform="translate(684.814453 0)"/>
     <use xlink:href="#DejaVuSans-6f" transform="translate(736.914062 0)"/>
     <use xlink:href="#DejaVuSans-75" transform="translate(798.095703 0)"/>
     <use xlink:href="#DejaVuSans-72" transform="translate(861.474609 0)"/>
     <use xlink:href="#DejaVuSans-63" transform="translate(900.337891 0)"/>
     <use xlink:href="#DejaVuSans-65" transform="translate(955.318359 0)"/>
    </g>
    <!-- known counts + hash -->
    <g style="fill: #666666" transform="translate(31.637561 93.908445) scale(0.083 -0.083)">
     <defs>
      <path id="DejaVuSans-6e" d="M 3513 2113
L 3513 0
L 2938 0
L 2938 2094
Q 2938 2591 2744 2837
Q 2550 3084 2163 3084
Q 1697 3084 1428 2787
Q 1159 2491 1159 1978
L 1159 0
L 581 0
L 581 3500
L 1159 3500
L 1159 2956
Q 1366 3272 1645 3428
Q 1925 3584 2291 3584
Q 2894 3584 3203 3211
Q 3513 2838 3513 2113
z
" transform="scale(0.015625)"/>
      <path id="DejaVuSans-77" d="M 269 3500
L 844 3500
L 1563 769
L 2278 3500
L 2956 3500
L 3675 769
L 4391 3500
L 4966 3500
L 4050 0
L 3372 0
L 2619 2869
L 1863 0
L 1184 0
L 269 3500
z
" transform="scale(0.015625)"/>
      <path id="DejaVuSans-2b" d="M 2944 4013
L 2944 2272
L 4684 2272
L 4684 1741
L 2944 1741
L 2944 0
L 2419 0
L 2419 1741
L 678 1741
L 678 2272
L 2419 2272
L 2419 4013
L 2944 4013
z
" transform="scale(0.015625)"/>
     </defs>
     <use xlink:href="#DejaVuSans-6b"/>
     <use xlink:href="#DejaVuSans-6e" transform="translate(57.910156 0)"/>
     <use xlink:href="#DejaVuSans-6f" transform="translate(121.289062 0)"/>
     <use xlink:href="#DejaVuSans-77" transform="translate(182.470703 0)"/>
     <use xlink:href="#DejaVuSans-6e" transform="translate(264.257812 0)"/>
     <use xlink:href="#DejaVuSans-20" transform="translate(327.636719 0)"/>
     <use xlink:href="#DejaVuSans-63" transform="translate(359.423828 0)"/>
     <use xlink:href="#DejaVuSans-6f" transform="translate(414.404297 0)"/>
     <use xlink:href="#DejaVuSans-75" transform="translate(475.585938 0)"/>
     <use xlink:href="#DejaVuSans-6e" transform="translate(538.964844 0)"/>
     <use xlink:href="#DejaVuSans-74" transform="translate(602.34375 0)"/>
     <use xlink:href="#DejaVuSans-73" transform="translate(641.552734 0)"/>
     <use xlink:href="#DejaVuSans-20" transform="translate(693.652344 0)"/>
     <use xlink:href="#DejaVuSans-2b" transform="translate(725.439453 0)"/>
     <use xlink:href="#DejaVuSans-20" transform="translate(809.228516 0)"/>
     <use xlink:href="#DejaVuSans-68" transform="translate(841.015625 0)"/>
     <use xlink:href="#DejaVuSans-61" transform="translate(904.394531 0)"/>
     <use xlink:href="#DejaVuSans-73" transform="translate(965.673828 0)"/>
     <use xlink:href="#DejaVuSans-68" transform="translate(1017.773438 0)"/>
    </g>
   </g>
   <g id="text_3">
    <!-- Isolated probe -->
    <g style="fill: #17365d" transform="translate(166.128736 73.059443) scale(0.105 -0.105)">
     <defs>
      <path id="DejaVuSans-Bold-49" d="M 588 4666
L 1791 4666
L 1791 0
L 588 0
L 588 4666
z
" transform="scale(0.015625)"/>
      <path id="DejaVuSans-Bold-73" d="M 3272 3391
L 3272 2541
Q 2913 2691 2578 2766
Q 2244 2841 1947 2841
Q 1628 2841 1473 2761
Q 1319 2681 1319 2516
Q 1319 2381 1436 2309
Q 1553 2238 1856 2203
L 2053 2175
Q 2913 2066 3209 1816
Q 3506 1566 3506 1031
Q 3506 472 3093 190
Q 2681 -91 1863 -91
Q 1516 -91 1145 -36
Q 775 19 384 128
L 384 978
Q 719 816 1070 734
Q 1422 653 1784 653
Q 2113 653 2278 743
Q 2444 834 2444 1013
Q 2444 1163 2330 1236
Q 2216 1309 1875 1350
L 1678 1375
Q 931 1469 631 1722
Q 331 1975 331 2491
Q 331 3047 712 3315
Q 1094 3584 1881 3584
Q 2191 3584 2531 3537
Q 2872 3491 3272 3391
z
" transform="scale(0.015625)"/>
      <path id="DejaVuSans-Bold-6f" d="M 2203 2784
Q 1831 2784 1636 2517
Q 1441 2250 1441 1747
Q 1441 1244 1636 976
Q 1831 709 2203 709
Q 2569 709 2762 976
Q 2956 1244 2956 1747
Q 2956 2250 2762 2517
Q 2569 2784 2203 2784
z
M 2203 3584
Q 3106 3584 3614 3096
Q 4122 2609 4122 1747
Q 4122 884 3614 396
Q 3106 -91 2203 -91
Q 1297 -91 786 396
Q 275 884 275 1747
Q 275 2609 786 3096
Q 1297 3584 2203 3584
z
" transform="scale(0.015625)"/>
      <path id="DejaVuSans-Bold-6c" d="M 538 4863
L 1656 4863
L 1656 0
L 538 0
L 538 4863
z
" transform="scale(0.015625)"/>
      <path id="DejaVuSans-Bold-62" d="M 2400 722
Q 2759 722 2948 984
Q 3138 1247 3138 1747
Q 3138 2247 2948 2509
Q 2759 2772 2400 2772
Q 2041 2772 1848 2508
Q 1656 2244 1656 1747
Q 1656 1250 1848 986
Q 2041 722 2400 722
z
M 1656 2988
Q 1888 3294 2169 3439
Q 2450 3584 2816 3584
Q 3463 3584 3878 3070
Q 4294 2556 4294 1747
Q 4294 938 3878 423
Q 3463 -91 2816 -91
Q 2450 -91 2169 54
Q 1888 200 1656 506
L 1656 0
L 538 0
L 538 4863
L 1656 4863
L 1656 2988
z
" transform="scale(0.015625)"/>
     </defs>
     <use xlink:href="#DejaVuSans-Bold-49"/>
     <use xlink:href="#DejaVuSans-Bold-73" transform="translate(37.207031 0)"/>
     <use xlink:href="#DejaVuSans-Bold-6f" transform="translate(96.728516 0)"/>
     <use xlink:href="#DejaVuSans-Bold-6c" transform="translate(165.429688 0)"/>
     <use xlink:href="#DejaVuSans-Bold-61" transform="translate(199.707031 0)"/>
     <use xlink:href="#DejaVuSans-Bold-74" transform="translate(267.1875 0)"/>
     <use xlink:href="#DejaVuSans-Bold-65" transform="translate(314.990234 0)"/>
     <use xlink:href="#DejaVuSans-Bold-64" transform="translate(382.8125 0)"/>
     <use xlink:href="#DejaVuSans-Bold-20" transform="translate(454.394531 0)"/>
     <use xlink:href="#DejaVuSans-Bold-70" transform="translate(489.208984 0)"/>
     <use xlink:href="#DejaVuSans-Bold-72" transform="translate(560.791016 0)"/>
     <use xlink:href="#DejaVuSans-Bold-6f" transform="translate(610.107422 0)"/>
     <use xlink:href="#DejaVuSans-Bold-62" transform="translate(678.808594 0)"/>
     <use xlink:href="#DejaVuSans-Bold-65" transform="translate(750.390625 0)"/>
    </g>
   </g>
   <g id="text_4">
    <!-- one case or one digit -->
    <g style="fill: #666666" transform="translate(165.375173 85.244931) scale(0.083 -0.083)">
     <defs>
      <path id="DejaVuSans-69" d="M 603 3500
L 1178 3500
L 1178 0
L 603 0
L 603 3500
z
M 603 4863
L 1178 4863
L 1178 4134
L 603 4134
L 603 4863
z
" transform="scale(0.015625)"/>
      <path id="DejaVuSans-67" d="M 2906 1791
Q 2906 2416 2648 2759
Q 2391 3103 1925 3103
Q 1463 3103 1205 2759
Q 947 2416 947 1791
Q 947 1169 1205 825
Q 1463 481 1925 481
Q 2391 481 2648 825
Q 2906 1169 2906 1791
z
M 3481 434
Q 3481 -459 3084 -895
Q 2688 -1331 1869 -1331
Q 1566 -1331 1297 -1286
Q 1028 -1241 775 -1147
L 775 -588
Q 1028 -725 1275 -790
Q 1522 -856 1778 -856
Q 2344 -856 2625 -561
Q 2906 -266 2906 331
L 2906 616
Q 2728 306 2450 153
Q 2172 0 1784 0
Q 1141 0 747 490
Q 353 981 353 1791
Q 353 2603 747 3093
Q 1141 3584 1784 3584
Q 2172 3584 2450 3431
Q 2728 3278 2906 2969
L 2906 3500
L 3481 3500
L 3481 434
z
" transform="scale(0.015625)"/>
     </defs>
     <use xlink:href="#DejaVuSans-6f"/>
     <use xlink:href="#DejaVuSans-6e" transform="translate(61.181641 0)"/>
     <use xlink:href="#DejaVuSans-65" transform="translate(124.560547 0)"/>
     <use xlink:href="#DejaVuSans-20" transform="translate(186.083984 0)"/>
     <use xlink:href="#DejaVuSans-63" transform="translate(217.871094 0)"/>
     <use xlink:href="#DejaVuSans-61" transform="translate(272.851562 0)"/>
     <use xlink:href="#DejaVuSans-73" transform="translate(334.130859 0)"/>
     <use xlink:href="#DejaVuSans-65" transform="translate(386.230469 0)"/>
     <use xlink:href="#DejaVuSans-20" transform="translate(447.753906 0)"/>
     <use xlink:href="#DejaVuSans-6f" transform="translate(479.541016 0)"/>
     <use xlink:href="#DejaVuSans-72" transform="translate(540.722656 0)"/>
     <use xlink:href="#DejaVuSans-20" transform="translate(581.835938 0)"/>
     <use xlink:href="#DejaVuSans-6f" transform="translate(613.623047 0)"/>
     <use xlink:href="#DejaVuSans-6e" transform="translate(674.804688 0)"/>
     <use xlink:href="#DejaVuSans-65" transform="translate(738.183594 0)"/>
     <use xlink:href="#DejaVuSans-20" transform="translate(799.707031 0)"/>
     <use xlink:href="#DejaVuSans-64" transform="translate(831.494141 0)"/>
     <use xlink:href="#DejaVuSans-69" transform="translate(894.970703 0)"/>
     <use xlink:href="#DejaVuSans-67" transform="translate(922.753906 0)"/>
     <use xlink:href="#DejaVuSans-69" transform="translate(986.230469 0)"/>
     <use xlink:href="#DejaVuSans-74" transform="translate(1014.013672 0)"/>
    </g>
    <!-- other outputs identical -->
    <g style="fill: #666666" transform="translate(161.812009 93.908445) scale(0.083 -0.083)">
     <defs>
      <path id="DejaVuSans-70" d="M 1159 525
L 1159 -1331
L 581 -1331
L 581 3500
L 1159 3500
L 1159 2969
Q 1341 3281 1617 3432
Q 1894 3584 2278 3584
Q 2916 3584 3314 3078
Q 3713 2572 3713 1747
Q 3713 922 3314 415
Q 2916 -91 2278 -91
Q 1894 -91 1617 61
Q 1341 213 1159 525
z
M 3116 1747
Q 3116 2381 2855 2742
Q 2594 3103 2138 3103
Q 1681 3103 1420 2742
Q 1159 2381 1159 1747
Q 1159 1113 1420 752
Q 1681 391 2138 391
Q 2594 391 2855 752
Q 3116 1113 3116 1747
z
" transform="scale(0.015625)"/>
      <path id="DejaVuSans-6c" d="M 603 4863
L 1178 4863
L 1178 0
L 603 0
L 603 4863
z
" transform="scale(0.015625)"/>
     </defs>
     <use xlink:href="#DejaVuSans-6f"/>
     <use xlink:href="#DejaVuSans-74" transform="translate(61.181641 0)"/>
     <use xlink:href="#DejaVuSans-68" transform="translate(100.390625 0)"/>
     <use xlink:href="#DejaVuSans-65" transform="translate(163.769531 0)"/>
     <use xlink:href="#DejaVuSans-72" transform="translate(225.292969 0)"/>
     <use xlink:href="#DejaVuSans-20" transform="translate(266.40625 0)"/>
     <use xlink:href="#DejaVuSans-6f" transform="translate(298.193359 0)"/>
     <use xlink:href="#DejaVuSans-75" transform="translate(359.375 0)"/>
     <use xlink:href="#DejaVuSans-74" transform="translate(422.753906 0)"/>
     <use xlink:href="#DejaVuSans-70" transform="translate(461.962891 0)"/>
     <use xlink:href="#DejaVuSans-75" transform="translate(525.439453 0)"/>
     <use xlink:href="#DejaVuSans-74" transform="translate(588.818359 0)"/>
     <use xlink:href="#DejaVuSans-73" transform="translate(628.027344 0)"/>
     <use xlink:href="#DejaVuSans-20" transform="translate(680.126953 0)"/>
     <use xlink:href="#DejaVuSans-69" transform="translate(711.914062 0)"/>
     <use xlink:href="#DejaVuSans-64" transform="translate(739.697266 0)"/>
     <use xlink:href="#DejaVuSans-65" transform="translate(803.173828 0)"/>
     <use xlink:href="#DejaVuSans-6e" transform="translate(864.697266 0)"/>
     <use xlink:href="#DejaVuSans-74" transform="translate(928.076172 0)"/>
     <use xlink:href="#DejaVuSans-69" transform="translate(967.285156 0)"/>
     <use xlink:href="#DejaVuSans-63" transform="translate(995.068359 0)"/>
     <use xlink:href="#DejaVuSans-61" transform="translate(1050.048828 0)"/>
     <use xlink:href="#DejaVuSans-6c" transform="translate(1111.328125 0)"/>
    </g>
   </g>
   <g id="text_5">
    <!-- Kattis response -->
    <g style="fill: #548235" transform="translate(295.221567 73.059443) scale(0.105 -0.105)">
     <defs>
      <path id="DejaVuSans-Bold-4b" d="M 588 4666
L 1791 4666
L 1791 2963
L 3525 4666
L 4922 4666
L 2675 2456
L 5153 0
L 3647 0
L 1791 1838
L 1791 0
L 588 0
L 588 4666
z
" transform="scale(0.015625)"/>
      <path id="DejaVuSans-Bold-69" d="M 538 3500
L 1656 3500
L 1656 0
L 538 0
L 538 3500
z
M 538 4863
L 1656 4863
L 1656 3950
L 538 3950
L 538 4863
z
" transform="scale(0.015625)"/>
     </defs>
     <use xlink:href="#DejaVuSans-Bold-4b"/>
     <use xlink:href="#DejaVuSans-Bold-61" transform="translate(77.490234 0)"/>
     <use xlink:href="#DejaVuSans-Bold-74" transform="translate(144.970703 0)"/>
     <use xlink:href="#DejaVuSans-Bold-74" transform="translate(192.773438 0)"/>
     <use xlink:href="#DejaVuSans-Bold-69" transform="translate(240.576172 0)"/>
     <use xlink:href="#DejaVuSans-Bold-73" transform="translate(274.853516 0)"/>
     <use xlink:href="#DejaVuSans-Bold-20" transform="translate(334.375 0)"/>
     <use xlink:href="#DejaVuSans-Bold-72" transform="translate(369.189453 0)"/>
     <use xlink:href="#DejaVuSans-Bold-65" transform="translate(418.505859 0)"/>
     <use xlink:href="#DejaVuSans-Bold-73" transform="translate(486.328125 0)"/>
     <use xlink:href="#DejaVuSans-Bold-70" transform="translate(545.849609 0)"/>
     <use xlink:href="#DejaVuSans-Bold-6f" transform="translate(617.431641 0)"/>
     <use xlink:href="#DejaVuSans-Bold-6e" transform="translate(686.132812 0)"/>
     <use xlink:href="#DejaVuSans-Bold-73" transform="translate(757.324219 0)"/>
     <use xlink:href="#DejaVuSans-Bold-65" transform="translate(816.845703 0)"/>
    </g>
   </g>
   <g id="text_6">
    <!-- aggregate score -->
    <g style="fill: #666666" transform="translate(307.860208 85.244931) scale(0.083 -0.083)">
     <use xlink:href="#DejaVuSans-61"/>
     <use xlink:href="#DejaVuSans-67" transform="translate(61.279297 0)"/>
     <use xlink:href="#DejaVuSans-67" transform="translate(124.755859 0)"/>
     <use xlink:href="#DejaVuSans-72" transform="translate(188.232422 0)"/>
     <use xlink:href="#DejaVuSans-65" transform="translate(227.095703 0)"/>
     <use xlink:href="#DejaVuSans-67" transform="translate(288.619141 0)"/>
     <use xlink:href="#DejaVuSans-61" transform="translate(352.095703 0)"/>
     <use xlink:href="#DejaVuSans-74" transform="translate(413.375 0)"/>
     <use xlink:href="#DejaVuSans-65" transform="translate(452.583984 0)"/>
     <use xlink:href="#DejaVuSans-20" transform="translate(514.107422 0)"/>
     <use xlink:href="#DejaVuSans-73" transform="translate(545.894531 0)"/>
     <use xlink:href="#DejaVuSans-63" transform="translate(597.994141 0)"/>
     <use xlink:href="#DejaVuSans-6f" transform="translate(652.974609 0)"/>
     <use xlink:href="#DejaVuSans-72" transform="translate(714.15625 0)"/>
     <use xlink:href="#DejaVuSans-65" transform="translate(753.019531 0)"/>
    </g>
    <!-- verdict + tests -->
    <g style="fill: #666666" transform="translate(311.079052 93.908445) scale(0.083 -0.083)">
     <defs>
      <path id="DejaVuSans-76" d="M 191 3500
L 800 3500
L 1894 563
L 2988 3500
L 3597 3500
L 2284 0
L 1503 0
L 191 3500
z
" transform="scale(0.015625)"/>
     </defs>
     <use xlink:href="#DejaVuSans-76"/>
     <use xlink:href="#DejaVuSans-65" transform="translate(59.179688 0)"/>
     <use xlink:href="#DejaVuSans-72" transform="translate(120.703125 0)"/>
     <use xlink:href="#DejaVuSans-64" transform="translate(160.066406 0)"/>
     <use xlink:href="#DejaVuSans-69" transform="translate(223.542969 0)"/>
     <use xlink:href="#DejaVuSans-63" transform="translate(251.326172 0)"/>
     <use xlink:href="#DejaVuSans-74" transform="translate(306.306641 0)"/>
     <use xlink:href="#DejaVuSans-20" transform="translate(345.515625 0)"/>
     <use xlink:href="#DejaVuSans-2b" transform="translate(377.302734 0)"/>
     <use xlink:href="#DejaVuSans-20" transform="translate(461.091797 0)"/>
     <use xlink:href="#DejaVuSans-74" transform="translate(492.878906 0)"/>
     <use xlink:href="#DejaVuSans-65" transform="translate(532.087891 0)"/>
     <use xlink:href="#DejaVuSans-73" transform="translate(593.611328 0)"/>
     <use xlink:href="#DejaVuSans-74" transform="translate(645.710938 0)"/>
     <use xlink:href="#DejaVuSans-73" transform="translate(684.919922 0)"/>
    </g>
   </g>
   <g id="text_7">
    <!-- Exact decoding -->
    <g style="fill: #366092" transform="translate(429.190336 73.018427) scale(0.105 -0.105)">
     <defs>
      <path id="DejaVuSans-Bold-45" d="M 588 4666
L 3834 4666
L 3834 3756
L 1791 3756
L 1791 2888
L 3713 2888
L 3713 1978
L 1791 1978
L 1791 909
L 3903 909
L 3903 0
L 588 0
L 588 4666
z
" transform="scale(0.015625)"/>
      <path id="DejaVuSans-Bold-78" d="M 1422 1791
L 159 3500
L 1344 3500
L 2059 2463
L 2784 3500
L 3969 3500
L 2706 1797
L 4031 0
L 2847 0
L 2059 1106
L 1281 0
L 97 0
L 1422 1791
z
" transform="scale(0.015625)"/>
      <path id="DejaVuSans-Bold-67" d="M 2919 594
Q 2688 288 2409 144
Q 2131 0 1766 0
Q 1125 0 706 504
Q 288 1009 288 1791
Q 288 2575 706 3076
Q 1125 3578 1766 3578
Q 2131 3578 2409 3434
Q 2688 3291 2919 2981
L 2919 3500
L 4044 3500
L 4044 353
Q 4044 -491 3511 -936
Q 2978 -1381 1966 -1381
Q 1638 -1381 1331 -1331
Q 1025 -1281 716 -1178
L 716 -306
Q 1009 -475 1290 -558
Q 1572 -641 1856 -641
Q 2406 -641 2662 -400
Q 2919 -159 2919 353
L 2919 594
z
M 2181 2772
Q 1834 2772 1640 2515
Q 1447 2259 1447 1791
Q 1447 1309 1634 1061
Q 1822 813 2181 813
Q 2531 813 2725 1069
Q 2919 1325 2919 1791
Q 2919 2259 2725 2515
Q 2531 2772 2181 2772
z
" transform="scale(0.015625)"/>
     </defs>
     <use xlink:href="#DejaVuSans-Bold-45"/>
     <use xlink:href="#DejaVuSans-Bold-78" transform="translate(68.310547 0)"/>
     <use xlink:href="#DejaVuSans-Bold-61" transform="translate(132.8125 0)"/>
     <use xlink:href="#DejaVuSans-Bold-63" transform="translate(200.292969 0)"/>
     <use xlink:href="#DejaVuSans-Bold-74" transform="translate(259.570312 0)"/>
     <use xlink:href="#DejaVuSans-Bold-20" transform="translate(307.373047 0)"/>
     <use xlink:href="#DejaVuSans-Bold-64" transform="translate(342.1875 0)"/>
     <use xlink:href="#DejaVuSans-Bold-65" transform="translate(413.769531 0)"/>
     <use xlink:href="#DejaVuSans-Bold-63" transform="translate(481.591797 0)"/>
     <use xlink:href="#DejaVuSans-Bold-6f" transform="translate(540.869141 0)"/>
     <use xlink:href="#DejaVuSans-Bold-64" transform="translate(609.570312 0)"/>
     <use xlink:href="#DejaVuSans-Bold-69" transform="translate(681.152344 0)"/>
     <use xlink:href="#DejaVuSans-Bold-6e" transform="translate(715.429688 0)"/>
     <use xlink:href="#DejaVuSans-Bold-67" transform="translate(786.621094 0)"/>
    </g>
   </g>
   <g id="text_8">
    <!-- score equation → count -->
    <g style="fill: #666666" transform="translate(425.643664 85.244931) scale(0.083 -0.083)">
     <defs>
      <path id="DejaVuSans-71" d="M 947 1747
Q 947 1113 1208 752
Q 1469 391 1925 391
Q 2381 391 2643 752
Q 2906 1113 2906 1747
Q 2906 2381 2643 2742
Q 2381 3103 1925 3103
Q 1469 3103 1208 2742
Q 947 2381 947 1747
z
M 2906 525
Q 2725 213 2448 61
Q 2172 -91 1784 -91
Q 1150 -91 751 415
Q 353 922 353 1747
Q 353 2572 751 3078
Q 1150 3584 1784 3584
Q 2172 3584 2448 3432
Q 2725 3281 2906 2969
L 2906 3500
L 3481 3500
L 3481 -1331
L 2906 -1331
L 2906 525
z
" transform="scale(0.015625)"/>
      <path id="DejaVuSans-2192" d="M 5050 2147
L 5050 1866
L 3822 638
L 3447 1013
L 4175 1741
L 366 1741
L 366 2272
L 4175 2272
L 3447 3000
L 3822 3375
L 5050 2147
z
" transform="scale(0.015625)"/>
     </defs>
     <use xlink:href="#DejaVuSans-73"/>
     <use xlink:href="#DejaVuSans-63" transform="translate(52.099609 0)"/>
     <use xlink:href="#DejaVuSans-6f" transform="translate(107.080078 0)"/>
     <use xlink:href="#DejaVuSans-72" transform="translate(168.261719 0)"/>
     <use xlink:href="#DejaVuSans-65" transform="translate(207.125 0)"/>
     <use xlink:href="#DejaVuSans-20" transform="translate(268.648438 0)"/>
     <use xlink:href="#DejaVuSans-65" transform="translate(300.435547 0)"/>
     <use xlink:href="#DejaVuSans-71" transform="translate(361.958984 0)"/>
     <use xlink:href="#DejaVuSans-75" transform="translate(425.435547 0)"/>
     <use xlink:href="#DejaVuSans-61" transform="translate(488.814453 0)"/>
     <use xlink:href="#DejaVuSans-74" transform="translate(550.09375 0)"/>
     <use xlink:href="#DejaVuSans-69" transform="translate(589.302734 0)"/>
     <use xlink:href="#DejaVuSans-6f" transform="translate(617.085938 0)"/>
     <use xlink:href="#DejaVuSans-6e" transform="translate(678.267578 0)"/>
     <use xlink:href="#DejaVuSans-20" transform="translate(741.646484 0)"/>
     <use xlink:href="#DejaVuSans-2192" transform="translate(773.433594 0)"/>
     <use xlink:href="#DejaVuSans-20" transform="translate(857.222656 0)"/>
     <use xlink:href="#DejaVuSans-63" transform="translate(889.009766 0)"/>
     <use xlink:href="#DejaVuSans-6f" transform="translate(943.990234 0)"/>
     <use xlink:href="#DejaVuSans-75" transform="translate(1005.171875 0)"/>
     <use xlink:href="#DejaVuSans-6e" transform="translate(1068.550781 0)"/>
     <use xlink:href="#DejaVuSans-74" transform="translate(1131.929688 0)"/>
    </g>
    <!-- rounding certificate -->
    <g style="fill: #666666" transform="translate(433.52218 93.908445) scale(0.083 -0.083)">
     <use xlink:href="#DejaVuSans-72"/>
     <use xlink:href="#DejaVuSans-6f" transform="translate(38.863281 0)"/>
     <use xlink:href="#DejaVuSans-75" transform="translate(100.044922 0)"/>
     <use xlink:href="#DejaVuSans-6e" transform="translate(163.423828 0)"/>
     <use xlink:href="#DejaVuSans-64" transform="translate(226.802734 0)"/>
     <use xlink:href="#DejaVuSans-69" transform="translate(290.279297 0)"/>
     <use xlink:href="#DejaVuSans-6e" transform="translate(318.0625 0)"/>
     <use xlink:href="#DejaVuSans-67" transform="translate(381.441406 0)"/>
     <use xlink:href="#DejaVuSans-20" transform="translate(444.917969 0)"/>
     <use xlink:href="#DejaVuSans-63" transform="translate(476.705078 0)"/>
     <use xlink:href="#DejaVuSans-65" transform="translate(531.685547 0)"/>
     <use xlink:href="#DejaVuSans-72" transform="translate(593.208984 0)"/>
     <use xlink:href="#DejaVuSans-74" transform="translate(634.322266 0)"/>
     <use xlink:href="#DejaVuSans-69" transform="translate(673.53125 0)"/>
     <use xlink:href="#DejaVuSans-66" transform="translate(701.314453 0)"/>
     <use xlink:href="#DejaVuSans-69" transform="translate(736.519531 0)"/>
     <use xlink:href="#DejaVuSans-63" transform="translate(764.302734 0)"/>
     <use xlink:href="#DejaVuSans-61" transform="translate(819.283203 0)"/>
     <use xlink:href="#DejaVuSans-74" transform="translate(880.5625 0)"/>
     <use xlink:href="#DejaVuSans-65" transform="translate(919.771484 0)"/>
    </g>
   </g>
   <g id="text_9">
    <!-- Identity evidence -->
    <g style="fill: #366092" transform="translate(82.164127 190.524616) scale(0.105 -0.105)">
     <defs>
      <path id="DejaVuSans-Bold-79" d="M 78 3500
L 1197 3500
L 2138 1125
L 2938 3500
L 4056 3500
L 2584 -331
Q 2363 -916 2067 -1148
Q 1772 -1381 1288 -1381
L 641 -1381
L 641 -647
L 991 -647
Q 1275 -647 1404 -556
Q 1534 -466 1606 -231
L 1638 -134
L 78 3500
z
" transform="scale(0.015625)"/>
      <path id="DejaVuSans-Bold-76" d="M 97 3500
L 1216 3500
L 2088 1081
L 2956 3500
L 4078 3500
L 2700 0
L 1472 0
L 97 3500
z
" transform="scale(0.015625)"/>
     </defs>
     <use xlink:href="#DejaVuSans-Bold-49"/>
     <use xlink:href="#DejaVuSans-Bold-64" transform="translate(37.207031 0)"/>
     <use xlink:href="#DejaVuSans-Bold-65" transform="translate(108.789062 0)"/>
     <use xlink:href="#DejaVuSans-Bold-6e" transform="translate(176.611328 0)"/>
     <use xlink:href="#DejaVuSans-Bold-74" transform="translate(247.802734 0)"/>
     <use xlink:href="#DejaVuSans-Bold-69" transform="translate(295.605469 0)"/>
     <use xlink:href="#DejaVuSans-Bold-74" transform="translate(329.882812 0)"/>
     <use xlink:href="#DejaVuSans-Bold-79" transform="translate(377.685547 0)"/>
     <use xlink:href="#DejaVuSans-Bold-20" transform="translate(442.871094 0)"/>
     <use xlink:href="#DejaVuSans-Bold-65" transform="translate(477.685547 0)"/>
     <use xlink:href="#DejaVuSans-Bold-76" transform="translate(545.507812 0)"/>
     <use xlink:href="#DejaVuSans-Bold-69" transform="translate(610.693359 0)"/>
     <use xlink:href="#DejaVuSans-Bold-64" transform="translate(644.970703 0)"/>
     <use xlink:href="#DejaVuSans-Bold-65" transform="translate(716.552734 0)"/>
     <use xlink:href="#DejaVuSans-Bold-6e" transform="translate(784.375 0)"/>
     <use xlink:href="#DejaVuSans-Bold-63" transform="translate(855.566406 0)"/>
     <use xlink:href="#DejaVuSans-Bold-65" transform="translate(914.84375 0)"/>
    </g>
   </g>
   <g id="text_10">
    <!-- normalized invariant digits -->
    <g style="fill: #666666" transform="translate(78.250744 204.65382) scale(0.083 -0.083)">
     <defs>
      <path id="DejaVuSans-6d" d="M 3328 2828
Q 3544 3216 3844 3400
Q 4144 3584 4550 3584
Q 5097 3584 5394 3201
Q 5691 2819 5691 2113
L 5691 0
L 5113 0
L 5113 2094
Q 5113 2597 4934 2840
Q 4756 3084 4391 3084
Q 3944 3084 3684 2787
Q 3425 2491 3425 1978
L 3425 0
L 2847 0
L 2847 2094
Q 2847 2600 2669 2842
Q 2491 3084 2119 3084
Q 1678 3084 1418 2786
Q 1159 2488 1159 1978
L 1159 0
L 581 0
L 581 3500
L 1159 3500
L 1159 2956
Q 1356 3278 1631 3431
Q 1906 3584 2284 3584
Q 2666 3584 2933 3390
Q 3200 3197 3328 2828
z
" transform="scale(0.015625)"/>
      <path id="DejaVuSans-7a" d="M 353 3500
L 3084 3500
L 3084 2975
L 922 459
L 3084 459
L 3084 0
L 275 0
L 275 525
L 2438 3041
L 353 3041
L 353 3500
z
" transform="scale(0.015625)"/>
     </defs>
     <use xlink:href="#DejaVuSans-6e"/>
     <use xlink:href="#DejaVuSans-6f" transform="translate(63.378906 0)"/>
     <use xlink:href="#DejaVuSans-72" transform="translate(124.560547 0)"/>
     <use xlink:href="#DejaVuSans-6d" transform="translate(163.923828 0)"/>
     <use xlink:href="#DejaVuSans-61" transform="translate(261.335938 0)"/>
     <use xlink:href="#DejaVuSans-6c" transform="translate(322.615234 0)"/>
     <use xlink:href="#DejaVuSans-69" transform="translate(350.398438 0)"/>
     <use xlink:href="#DejaVuSans-7a" transform="translate(378.181641 0)"/>
     <use xlink:href="#DejaVuSans-65" transform="translate(430.671875 0)"/>
     <use xlink:href="#DejaVuSans-64" transform="translate(492.195312 0)"/>
     <use xlink:href="#DejaVuSans-20" transform="translate(555.671875 0)"/>
     <use xlink:href="#DejaVuSans-69" transform="translate(587.458984 0)"/>
     <use xlink:href="#DejaVuSans-6e" transform="translate(615.242188 0)"/>
     <use xlink:href="#DejaVuSans-76" transform="translate(678.621094 0)"/>
     <use xlink:href="#DejaVuSans-61" transform="translate(737.800781 0)"/>
     <use xlink:href="#DejaVuSans-72" transform="translate(799.080078 0)"/>
     <use xlink:href="#DejaVuSans-69" transform="translate(840.193359 0)"/>
     <use xlink:href="#DejaVuSans-61" transform="translate(867.976562 0)"/>
     <use xlink:href="#DejaVuSans-6e" transform="translate(929.255859 0)"/>
     <use xlink:href="#DejaVuSans-74" transform="translate(992.634766 0)"/>
     <use xlink:href="#DejaVuSans-20" transform="translate(1031.84375 0)"/>
     <use xlink:href="#DejaVuSans-64" transform="translate(1063.630859 0)"/>
     <use xlink:href="#DejaVuSans-69" transform="translate(1127.107422 0)"/>
     <use xlink:href="#DejaVuSans-67" transform="translate(1154.890625 0)"/>
     <use xlink:href="#DejaVuSans-69" transform="translate(1218.367188 0)"/>
     <use xlink:href="#DejaVuSans-74" transform="translate(1246.150391 0)"/>
     <use xlink:href="#DejaVuSans-73" transform="translate(1285.359375 0)"/>
    </g>
    <!-- proxy-family hypothesis -->
    <g style="fill: #666666" transform="translate(84.085384 213.317334) scale(0.083 -0.083)">
     <defs>
      <path id="DejaVuSans-78" d="M 3513 3500
L 2247 1797
L 3578 0
L 2900 0
L 1881 1375
L 863 0
L 184 0
L 1544 1831
L 300 3500
L 978 3500
L 1906 2253
L 2834 3500
L 3513 3500
z
" transform="scale(0.015625)"/>
      <path id="DejaVuSans-79" d="M 2059 -325
Q 1816 -950 1584 -1140
Q 1353 -1331 966 -1331
L 506 -1331
L 506 -850
L 844 -850
Q 1081 -850 1212 -737
Q 1344 -625 1503 -206
L 1606 56
L 191 3500
L 800 3500
L 1894 763
L 2988 3500
L 3597 3500
L 2059 -325
z
" transform="scale(0.015625)"/>
     </defs>
     <use xlink:href="#DejaVuSans-70"/>
     <use xlink:href="#DejaVuSans-72" transform="translate(63.476562 0)"/>
     <use xlink:href="#DejaVuSans-6f" transform="translate(102.339844 0)"/>
     <use xlink:href="#DejaVuSans-78" transform="translate(160.396484 0)"/>
     <use xlink:href="#DejaVuSans-79" transform="translate(219.576172 0)"/>
     <use xlink:href="#DejaVuSans-2d" transform="translate(277.005859 0)"/>
     <use xlink:href="#DejaVuSans-66" transform="translate(313.089844 0)"/>
     <use xlink:href="#DejaVuSans-61" transform="translate(348.294922 0)"/>
     <use xlink:href="#DejaVuSans-6d" transform="translate(409.574219 0)"/>
     <use xlink:href="#DejaVuSans-69" transform="translate(506.986328 0)"/>
     <use xlink:href="#DejaVuSans-6c" transform="translate(534.769531 0)"/>
     <use xlink:href="#DejaVuSans-79" transform="translate(562.552734 0)"/>
     <use xlink:href="#DejaVuSans-20" transform="translate(621.732422 0)"/>
     <use xlink:href="#DejaVuSans-68" transform="translate(653.519531 0)"/>
     <use xlink:href="#DejaVuSans-79" transform="translate(716.898438 0)"/>
     <use xlink:href="#DejaVuSans-70" transform="translate(776.078125 0)"/>
     <use xlink:href="#DejaVuSans-6f" transform="translate(839.554688 0)"/>
     <use xlink:href="#DejaVuSans-74" transform="translate(900.736328 0)"/>
     <use xlink:href="#DejaVuSans-68" transform="translate(939.945312 0)"/>
     <use xlink:href="#DejaVuSans-65" transform="translate(1003.324219 0)"/>
     <use xlink:href="#DejaVuSans-73" transform="translate(1064.847656 0)"/>
     <use xlink:href="#DejaVuSans-69" transform="translate(1116.947266 0)"/>
     <use xlink:href="#DejaVuSans-73" transform="translate(1144.730469 0)"/>
    </g>
   </g>
   <g id="text_11">
    <!-- Acceptance evidence -->
    <g style="fill: #548235" transform="translate(246.110625 190.565632) scale(0.105 -0.105)">
     <use xlink:href="#DejaVuSans-Bold-41"/>
     <use xlink:href="#DejaVuSans-Bold-63" transform="translate(77.392578 0)"/>
     <use xlink:href="#DejaVuSans-Bold-63" transform="translate(136.669922 0)"/>
     <use xlink:href="#DejaVuSans-Bold-65" transform="translate(195.947266 0)"/>
     <use xlink:href="#DejaVuSans-Bold-70" transform="translate(263.769531 0)"/>
     <use xlink:href="#DejaVuSans-Bold-74" transform="translate(335.351562 0)"/>
     <use xlink:href="#DejaVuSans-Bold-61" transform="translate(383.154297 0)"/>
     <use xlink:href="#DejaVuSans-Bold-6e" transform="translate(450.634766 0)"/>
     <use xlink:href="#DejaVuSans-Bold-63" transform="translate(521.826172 0)"/>
     <use xlink:href="#DejaVuSans-Bold-65" transform="translate(581.103516 0)"/>
     <use xlink:href="#DejaVuSans-Bold-20" transform="translate(648.925781 0)"/>
     <use xlink:href="#DejaVuSans-Bold-65" transform="translate(683.740234 0)"/>
     <use xlink:href="#DejaVuSans-Bold-76" transform="translate(751.5625 0)"/>
     <use xlink:href="#DejaVuSans-Bold-69" transform="translate(816.748047 0)"/>
     <use xlink:href="#DejaVuSans-Bold-64" transform="translate(851.025391 0)"/>
     <use xlink:href="#DejaVuSans-Bold-65" transform="translate(922.607422 0)"/>
     <use xlink:href="#DejaVuSans-Bold-6e" transform="translate(990.429688 0)"/>
     <use xlink:href="#DejaVuSans-Bold-63" transform="translate(1061.621094 0)"/>
     <use xlink:href="#DejaVuSans-Bold-65" transform="translate(1120.898438 0)"/>
    </g>
   </g>
   <g id="text_12">
    <!-- isolated pass/fail bracket -->
    <g style="fill: #666666" transform="translate(256.708547 204.65382) scale(0.083 -0.083)">
     <defs>
      <path id="DejaVuSans-2f" d="M 1625 4666
L 2156 4666
L 531 -594
L 0 -594
L 1625 4666
z
" transform="scale(0.015625)"/>
     </defs>
     <use xlink:href="#DejaVuSans-69"/>
     <use xlink:href="#DejaVuSans-73" transform="translate(27.783203 0)"/>
     <use xlink:href="#DejaVuSans-6f" transform="translate(79.882812 0)"/>
     <use xlink:href="#DejaVuSans-6c" transform="translate(141.064453 0)"/>
     <use xlink:href="#DejaVuSans-61" transform="translate(168.847656 0)"/>
     <use xlink:href="#DejaVuSans-74" transform="translate(230.126953 0)"/>
     <use xlink:href="#DejaVuSans-65" transform="translate(269.335938 0)"/>
     <use xlink:href="#DejaVuSans-64" transform="translate(330.859375 0)"/>
     <use xlink:href="#DejaVuSans-20" transform="translate(394.335938 0)"/>
     <use xlink:href="#DejaVuSans-70" transform="translate(426.123047 0)"/>
     <use xlink:href="#DejaVuSans-61" transform="translate(489.599609 0)"/>
     <use xlink:href="#DejaVuSans-73" transform="translate(550.878906 0)"/>
     <use xlink:href="#DejaVuSans-73" transform="translate(602.978516 0)"/>
     <use xlink:href="#DejaVuSans-2f" transform="translate(655.078125 0)"/>
     <use xlink:href="#DejaVuSans-66" transform="translate(688.769531 0)"/>
     <use xlink:href="#DejaVuSans-61" transform="translate(723.974609 0)"/>
     <use xlink:href="#DejaVuSans-69" transform="translate(785.253906 0)"/>
     <use xlink:href="#DejaVuSans-6c" transform="translate(813.037109 0)"/>
     <use xlink:href="#DejaVuSans-20" transform="translate(840.820312 0)"/>
     <use xlink:href="#DejaVuSans-62" transform="translate(872.607422 0)"/>
     <use xlink:href="#DejaVuSans-72" transform="translate(936.083984 0)"/>
     <use xlink:href="#DejaVuSans-61" transform="translate(977.197266 0)"/>
     <use xlink:href="#DejaVuSans-63" transform="translate(1038.476562 0)"/>
     <use xlink:href="#DejaVuSans-6b" transform="translate(1093.457031 0)"/>
     <use xlink:href="#DejaVuSans-65" transform="translate(1147.742188 0)"/>
     <use xlink:href="#DejaVuSans-74" transform="translate(1209.265625 0)"/>
    </g>
    <!-- observed Kattis frontier -->
    <g style="fill: #666666" transform="translate(259.599281 213.317334) scale(0.083 -0.083)">
     <defs>
      <path id="DejaVuSans-4b" d="M 628 4666
L 1259 4666
L 1259 2694
L 3353 4666
L 4166 4666
L 1850 2491
L 4331 0
L 3500 0
L 1259 2247
L 1259 0
L 628 0
L 628 4666
z
" transform="scale(0.015625)"/>
     </defs>
     <use xlink:href="#DejaVuSans-6f"/>
     <use xlink:href="#DejaVuSans-62" transform="translate(61.181641 0)"/>
     <use xlink:href="#DejaVuSans-73" transform="translate(124.658203 0)"/>
     <use xlink:href="#DejaVuSans-65" transform="translate(176.757812 0)"/>
     <use xlink:href="#DejaVuSans-72" transform="translate(238.28125 0)"/>
     <use xlink:href="#DejaVuSans-76" transform="translate(279.394531 0)"/>
     <use xlink:href="#DejaVuSans-65" transform="translate(338.574219 0)"/>
     <use xlink:href="#DejaVuSans-64" transform="translate(400.097656 0)"/>
     <use xlink:href="#DejaVuSans-20" transform="translate(463.574219 0)"/>
     <use xlink:href="#DejaVuSans-4b" transform="translate(495.361328 0)"/>
     <use xlink:href="#DejaVuSans-61" transform="translate(559.1875 0)"/>
     <use xlink:href="#DejaVuSans-74" transform="translate(620.466797 0)"/>
     <use xlink:href="#DejaVuSans-74" transform="translate(659.675781 0)"/>
     <use xlink:href="#DejaVuSans-69" transform="translate(698.884766 0)"/>
     <use xlink:href="#DejaVuSans-73" transform="translate(726.667969 0)"/>
     <use xlink:href="#DejaVuSans-20" transform="translate(778.767578 0)"/>
     <use xlink:href="#DejaVuSans-66" transform="translate(810.554688 0)"/>
     <use xlink:href="#DejaVuSans-72" transform="translate(845.759766 0)"/>
     <use xlink:href="#DejaVuSans-6f" transform="translate(884.623047 0)"/>
     <use xlink:href="#DejaVuSans-6e" transform="translate(945.804688 0)"/>
     <use xlink:href="#DejaVuSans-74" transform="translate(1009.183594 0)"/>
     <use xlink:href="#DejaVuSans-69" transform="translate(1048.392578 0)"/>
     <use xlink:href="#DejaVuSans-65" transform="translate(1076.175781 0)"/>
     <use xlink:href="#DejaVuSans-72" transform="translate(1137.699219 0)"/>
    </g>
   </g>
   <g id="text_13">
    <!-- Local stress test -->
    <g style="fill: #c65911" transform="translate(434.48603 190.565632) scale(0.105 -0.105)">
     <defs>
      <path id="DejaVuSans-Bold-4c" d="M 588 4666
L 1791 4666
L 1791 909
L 3903 909
L 3903 0
L 588 0
L 588 4666
z
" transform="scale(0.015625)"/>
     </defs>
     <use xlink:href="#DejaVuSans-Bold-4c"/>
     <use xlink:href="#DejaVuSans-Bold-6f" transform="translate(63.720703 0)"/>
     <use xlink:href="#DejaVuSans-Bold-63" transform="translate(132.421875 0)"/>
     <use xlink:href="#DejaVuSans-Bold-61" transform="translate(191.699219 0)"/>
     <use xlink:href="#DejaVuSans-Bold-6c" transform="translate(259.179688 0)"/>
     <use xlink:href="#DejaVuSans-Bold-20" transform="translate(293.457031 0)"/>
     <use xlink:href="#DejaVuSans-Bold-73" transform="translate(328.271484 0)"/>
     <use xlink:href="#DejaVuSans-Bold-74" transform="translate(387.792969 0)"/>
     <use xlink:href="#DejaVuSans-Bold-72" transform="translate(435.595703 0)"/>
     <use xlink:href="#DejaVuSans-Bold-65" transform="translate(484.912109 0)"/>
     <use xlink:href="#DejaVuSans-Bold-73" transform="translate(552.734375 0)"/>
     <use xlink:href="#DejaVuSans-Bold-73" transform="translate(612.255859 0)"/>
     <use xlink:href="#DejaVuSans-Bold-20" transform="translate(671.777344 0)"/>
     <use xlink:href="#DejaVuSans-Bold-74" transform="translate(706.591797 0)"/>
     <use xlink:href="#DejaVuSans-Bold-65" transform="translate(754.394531 0)"/>
     <use xlink:href="#DejaVuSans-Bold-73" transform="translate(822.216797 0)"/>
     <use xlink:href="#DejaVuSans-Bold-74" transform="translate(881.738281 0)"/>
    </g>
   </g>
   <g id="text_14">
    <!-- licensed proxy rotations -->
    <g style="fill: #666666" transform="translate(433.523858 204.65382) scale(0.083 -0.083)">
     <use xlink:href="#DejaVuSans-6c"/>
     <use xlink:href="#DejaVuSans-69" transform="translate(27.783203 0)"/>
     <use xlink:href="#DejaVuSans-63" transform="translate(55.566406 0)"/>
     <use xlink:href="#DejaVuSans-65" transform="translate(110.546875 0)"/>
     <use xlink:href="#DejaVuSans-6e" transform="translate(172.070312 0)"/>
     <use xlink:href="#DejaVuSans-73" transform="translate(235.449219 0)"/>
     <use xlink:href="#DejaVuSans-65" transform="translate(287.548828 0)"/>
     <use xlink:href="#DejaVuSans-64" transform="translate(349.072266 0)"/>
     <use xlink:href="#DejaVuSans-20" transform="translate(412.548828 0)"/>
     <use xlink:href="#DejaVuSans-70" transform="translate(444.335938 0)"/>
     <use xlink:href="#DejaVuSans-72" transform="translate(507.8125 0)"/>
     <use xlink:href="#DejaVuSans-6f" transform="translate(546.675781 0)"/>
     <use xlink:href="#DejaVuSans-78" transform="translate(604.732422 0)"/>
     <use xlink:href="#DejaVuSans-79" transform="translate(663.912109 0)"/>
     <use xlink:href="#DejaVuSans-20" transform="translate(723.091797 0)"/>
     <use xlink:href="#DejaVuSans-72" transform="translate(754.878906 0)"/>
     <use xlink:href="#DejaVuSans-6f" transform="translate(793.742188 0)"/>
     <use xlink:href="#DejaVuSans-74" transform="translate(854.923828 0)"/>
     <use xlink:href="#DejaVuSans-61" transform="translate(894.132812 0)"/>
     <use xlink:href="#DejaVuSans-74" transform="translate(955.412109 0)"/>
     <use xlink:href="#DejaVuSans-69" transform="translate(994.621094 0)"/>
     <use xlink:href="#DejaVuSans-6f" transform="translate(1022.404297 0)"/>
     <use xlink:href="#DejaVuSans-6e" transform="translate(1083.585938 0)"/>
     <use xlink:href="#DejaVuSans-73" transform="translate(1146.964844 0)"/>
    </g>
    <!-- 1024² component checks -->
    <g style="fill: #666666" transform="translate(430.631827 213.317334) scale(0.083 -0.083)">
     <defs>
      <path id="DejaVuSans-31" d="M 794 531
L 1825 531
L 1825 4091
L 703 3866
L 703 4441
L 1819 4666
L 2450 4666
L 2450 531
L 3481 531
L 3481 0
L 794 0
L 794 531
z
" transform="scale(0.015625)"/>
      <path id="DejaVuSans-30" d="M 2034 4250
Q 1547 4250 1301 3770
Q 1056 3291 1056 2328
Q 1056 1369 1301 889
Q 1547 409 2034 409
Q 2525 409 2770 889
Q 3016 1369 3016 2328
Q 3016 3291 2770 3770
Q 2525 4250 2034 4250
z
M 2034 4750
Q 2819 4750 3233 4129
Q 3647 3509 3647 2328
Q 3647 1150 3233 529
Q 2819 -91 2034 -91
Q 1250 -91 836 529
Q 422 1150 422 2328
Q 422 3509 836 4129
Q 1250 4750 2034 4750
z
" transform="scale(0.015625)"/>
      <path id="DejaVuSans-32" d="M 1228 531
L 3431 531
L 3431 0
L 469 0
L 469 531
Q 828 903 1448 1529
Q 2069 2156 2228 2338
Q 2531 2678 2651 2914
Q 2772 3150 2772 3378
Q 2772 3750 2511 3984
Q 2250 4219 1831 4219
Q 1534 4219 1204 4116
Q 875 4013 500 3803
L 500 4441
Q 881 4594 1212 4672
Q 1544 4750 1819 4750
Q 2544 4750 2975 4387
Q 3406 4025 3406 3419
Q 3406 3131 3298 2873
Q 3191 2616 2906 2266
Q 2828 2175 2409 1742
Q 1991 1309 1228 531
z
" transform="scale(0.015625)"/>
      <path id="DejaVuSans-34" d="M 2419 4116
L 825 1625
L 2419 1625
L 2419 4116
z
M 2253 4666
L 3047 4666
L 3047 1625
L 3713 1625
L 3713 1100
L 3047 1100
L 3047 0
L 2419 0
L 2419 1100
L 313 1100
L 313 1709
L 2253 4666
z
" transform="scale(0.015625)"/>
      <path id="DejaVuSans-b2" d="M 838 2444
L 2163 2444
L 2163 2088
L 294 2088
L 294 2431
Q 400 2528 597 2703
Q 1672 3656 1672 3950
Q 1672 4156 1509 4282
Q 1347 4409 1081 4409
Q 919 4409 728 4354
Q 538 4300 313 4191
L 313 4575
Q 553 4663 761 4706
Q 969 4750 1147 4750
Q 1600 4750 1872 4544
Q 2144 4338 2144 4000
Q 2144 3566 1109 2678
Q 934 2528 838 2444
z
" transform="scale(0.015625)"/>
     </defs>
     <use xlink:href="#DejaVuSans-31"/>
     <use xlink:href="#DejaVuSans-30" transform="translate(63.623047 0)"/>
     <use xlink:href="#DejaVuSans-32" transform="translate(127.246094 0)"/>
     <use xlink:href="#DejaVuSans-34" transform="translate(190.869141 0)"/>
     <use xlink:href="#DejaVuSans-b2" transform="translate(254.492188 0)"/>
     <use xlink:href="#DejaVuSans-20" transform="translate(294.580078 0)"/>
     <use xlink:href="#DejaVuSans-63" transform="translate(326.367188 0)"/>
     <use xlink:href="#DejaVuSans-6f" transform="translate(381.347656 0)"/>
     <use xlink:href="#DejaVuSans-6d" transform="translate(442.529297 0)"/>
     <use xlink:href="#DejaVuSans-70" transform="translate(539.941406 0)"/>
     <use xlink:href="#DejaVuSans-6f" transform="translate(603.417969 0)"/>
     <use xlink:href="#DejaVuSans-6e" transform="translate(664.599609 0)"/>
     <use xlink:href="#DejaVuSans-65" transform="translate(727.978516 0)"/>
     <use xlink:href="#DejaVuSans-6e" transform="translate(789.501953 0)"/>
     <use xlink:href="#DejaVuSans-74" transform="translate(852.880859 0)"/>
     <use xlink:href="#DejaVuSans-20" transform="translate(892.089844 0)"/>
     <use xlink:href="#DejaVuSans-63" transform="translate(923.876953 0)"/>
     <use xlink:href="#DejaVuSans-68" transform="translate(978.857422 0)"/>
     <use xlink:href="#DejaVuSans-65" transform="translate(1042.236328 0)"/>
     <use xlink:href="#DejaVuSans-63" transform="translate(1103.759766 0)"/>
     <use xlink:href="#DejaVuSans-6b" transform="translate(1158.740234 0)"/>
     <use xlink:href="#DejaVuSans-73" transform="translate(1216.650391 0)"/>
    </g>
   </g>
   <g id="text_15">
    <!-- Fail-closed integration -->
    <g style="fill: #548235" transform="translate(257.046352 267.901115) scale(0.105 -0.105)">
     <defs>
      <path id="DejaVuSans-Bold-46" d="M 588 4666
L 3834 4666
L 3834 3756
L 1791 3756
L 1791 2888
L 3713 2888
L 3713 1978
L 1791 1978
L 1791 0
L 588 0
L 588 4666
z
" transform="scale(0.015625)"/>
      <path id="DejaVuSans-Bold-2d" d="M 347 2297
L 2309 2297
L 2309 1388
L 347 1388
L 347 2297
z
" transform="scale(0.015625)"/>
     </defs>
     <use xlink:href="#DejaVuSans-Bold-46"/>
     <use xlink:href="#DejaVuSans-Bold-61" transform="translate(62.435547 0)"/>
     <use xlink:href="#DejaVuSans-Bold-69" transform="translate(129.916016 0)"/>
     <use xlink:href="#DejaVuSans-Bold-6c" transform="translate(164.193359 0)"/>
     <use xlink:href="#DejaVuSans-Bold-2d" transform="translate(198.470703 0)"/>
     <use xlink:href="#DejaVuSans-Bold-63" transform="translate(239.974609 0)"/>
     <use xlink:href="#DejaVuSans-Bold-6c" transform="translate(299.251953 0)"/>
     <use xlink:href="#DejaVuSans-Bold-6f" transform="translate(333.529297 0)"/>
     <use xlink:href="#DejaVuSans-Bold-73" transform="translate(402.230469 0)"/>
     <use xlink:href="#DejaVuSans-Bold-65" transform="translate(461.751953 0)"/>
     <use xlink:href="#DejaVuSans-Bold-64" transform="translate(529.574219 0)"/>
     <use xlink:href="#DejaVuSans-Bold-20" transform="translate(601.15625 0)"/>
     <use xlink:href="#DejaVuSans-Bold-69" transform="translate(635.970703 0)"/>
     <use xlink:href="#DejaVuSans-Bold-6e" transform="translate(670.248047 0)"/>
     <use xlink:href="#DejaVuSans-Bold-74" transform="translate(741.439453 0)"/>
     <use xlink:href="#DejaVuSans-Bold-65" transform="translate(789.242188 0)"/>
     <use xlink:href="#DejaVuSans-Bold-67" transform="translate(857.064453 0)"/>
     <use xlink:href="#DejaVuSans-Bold-72" transform="translate(928.646484 0)"/>
     <use xlink:href="#DejaVuSans-Bold-61" transform="translate(977.962891 0)"/>
     <use xlink:href="#DejaVuSans-Bold-74" transform="translate(1045.443359 0)"/>
     <use xlink:href="#DejaVuSans-Bold-69" transform="translate(1093.246094 0)"/>
     <use xlink:href="#DejaVuSans-Bold-6f" transform="translate(1127.523438 0)"/>
     <use xlink:href="#DejaVuSans-Bold-6e" transform="translate(1196.224609 0)"/>
    </g>
   </g>
   <g id="text_16">
    <!-- commit only Accepted-parent -->
    <g style="fill: #666666" transform="translate(262.052523 275.370867) scale(0.083 -0.083)">
     <defs>
      <path id="DejaVuSans-41" d="M 2188 4044
L 1331 1722
L 3047 1722
L 2188 4044
z
M 1831 4666
L 2547 4666
L 4325 0
L 3669 0
L 3244 1197
L 1141 1197
L 716 0
L 50 0
L 1831 4666
z
" transform="scale(0.015625)"/>
     </defs>
     <use xlink:href="#DejaVuSans-63"/>
     <use xlink:href="#DejaVuSans-6f" transform="translate(54.980469 0)"/>
     <use xlink:href="#DejaVuSans-6d" transform="translate(116.162109 0)"/>
     <use xlink:href="#DejaVuSans-6d" transform="translate(213.574219 0)"/>
     <use xlink:href="#DejaVuSans-69" transform="translate(310.986328 0)"/>
     <use xlink:href="#DejaVuSans-74" transform="translate(338.769531 0)"/>
     <use xlink:href="#DejaVuSans-20" transform="translate(377.978516 0)"/>
     <use xlink:href="#DejaVuSans-6f" transform="translate(409.765625 0)"/>
     <use xlink:href="#DejaVuSans-6e" transform="translate(470.947266 0)"/>
     <use xlink:href="#DejaVuSans-6c" transform="translate(534.326172 0)"/>
     <use xlink:href="#DejaVuSans-79" transform="translate(562.109375 0)"/>
     <use xlink:href="#DejaVuSans-20" transform="translate(621.289062 0)"/>
     <use xlink:href="#DejaVuSans-41" transform="translate(653.076172 0)"/>
     <use xlink:href="#DejaVuSans-63" transform="translate(719.734375 0)"/>
     <use xlink:href="#DejaVuSans-63" transform="translate(774.714844 0)"/>
     <use xlink:href="#DejaVuSans-65" transform="translate(829.695312 0)"/>
     <use xlink:href="#DejaVuSans-70" transform="translate(891.21875 0)"/>
     <use xlink:href="#DejaVuSans-74" transform="translate(954.695312 0)"/>
     <use xlink:href="#DejaVuSans-65" transform="translate(993.904297 0)"/>
     <use xlink:href="#DejaVuSans-64" transform="translate(1055.427734 0)"/>
     <use xlink:href="#DejaVuSans-2d" transform="translate(1118.904297 0)"/>
     <use xlink:href="#DejaVuSans-70" transform="translate(1154.988281 0)"/>
     <use xlink:href="#DejaVuSans-61" transform="translate(1218.464844 0)"/>
     <use xlink:href="#DejaVuSans-72" transform="translate(1279.744141 0)"/>
     <use xlink:href="#DejaVuSans-65" transform="translate(1318.607422 0)"/>
     <use xlink:href="#DejaVuSans-6e" transform="translate(1380.130859 0)"/>
     <use xlink:href="#DejaVuSans-74" transform="translate(1443.509766 0)"/>
    </g>
    <!-- locally validated transactions -->
    <g style="fill: #666666" transform="translate(262.766453 284.034381) scale(0.083 -0.083)">
     <use xlink:href="#DejaVuSans-6c"/>
     <use xlink:href="#DejaVuSans-6f" transform="translate(27.783203 0)"/>
     <use xlink:href="#DejaVuSans-63" transform="translate(88.964844 0)"/>
     <use xlink:href="#DejaVuSans-61" transform="translate(143.945312 0)"/>
     <use xlink:href="#DejaVuSans-6c" transform="translate(205.224609 0)"/>
     <use xlink:href="#DejaVuSans-6c" transform="translate(233.007812 0)"/>
     <use xlink:href="#DejaVuSans-79" transform="translate(260.791016 0)"/>
     <use xlink:href="#DejaVuSans-20" transform="translate(319.970703 0)"/>
     <use xlink:href="#DejaVuSans-76" transform="translate(351.757812 0)"/>
     <use xlink:href="#DejaVuSans-61" transform="translate(410.9375 0)"/>
     <use xlink:href="#DejaVuSans-6c" transform="translate(472.216797 0)"/>
     <use xlink:href="#DejaVuSans-69" transform="translate(500 0)"/>
     <use xlink:href="#DejaVuSans-64" transform="translate(527.783203 0)"/>
     <use xlink:href="#DejaVuSans-61" transform="translate(591.259766 0)"/>
     <use xlink:href="#DejaVuSans-74" transform="translate(652.539062 0)"/>
     <use xlink:href="#DejaVuSans-65" transform="translate(691.748047 0)"/>
     <use xlink:href="#DejaVuSans-64" transform="translate(753.271484 0)"/>
     <use xlink:href="#DejaVuSans-20" transform="translate(816.748047 0)"/>
     <use xlink:href="#DejaVuSans-74" transform="translate(848.535156 0)"/>
     <use xlink:href="#DejaVuSans-72" transform="translate(887.744141 0)"/>
     <use xlink:href="#DejaVuSans-61" transform="translate(928.857422 0)"/>
     <use xlink:href="#DejaVuSans-6e" transform="translate(990.136719 0)"/>
     <use xlink:href="#DejaVuSans-73" transform="translate(1053.515625 0)"/>
     <use xlink:href="#DejaVuSans-61" transform="translate(1105.615234 0)"/>
     <use xlink:href="#DejaVuSans-63" transform="translate(1166.894531 0)"/>
     <use xlink:href="#DejaVuSans-74" transform="translate(1221.875 0)"/>
     <use xlink:href="#DejaVuSans-69" transform="translate(1261.083984 0)"/>
     <use xlink:href="#DejaVuSans-6f" transform="translate(1288.867188 0)"/>
     <use xlink:href="#DejaVuSans-6e" transform="translate(1350.048828 0)"/>
     <use xlink:href="#DejaVuSans-73" transform="translate(1413.427734 0)"/>
    </g>
   </g>
   <g id="text_17">
    <!-- Controlled hidden-constraint evidence protocol -->
    <g style="fill: #17365d" transform="translate(121.581719 24.49728) scale(0.14 -0.14)">
     <defs>
      <path id="DejaVuSans-Bold-43" d="M 4288 256
Q 3956 84 3597 -3
Q 3238 -91 2847 -91
Q 1681 -91 1000 561
Q 319 1213 319 2328
Q 319 3447 1000 4098
Q 1681 4750 2847 4750
Q 3238 4750 3597 4662
Q 3956 4575 4288 4403
L 4288 3438
Q 3953 3666 3628 3772
Q 3303 3878 2944 3878
Q 2300 3878 1931 3465
Q 1563 3053 1563 2328
Q 1563 1606 1931 1193
Q 2300 781 2944 781
Q 3303 781 3628 887
Q 3953 994 4288 1222
L 4288 256
z
" transform="scale(0.015625)"/>
      <path id="DejaVuSans-Bold-68" d="M 4056 2131
L 4056 0
L 2931 0
L 2931 347
L 2931 1625
Q 2931 2084 2911 2256
Q 2891 2428 2841 2509
Q 2775 2619 2662 2680
Q 2550 2741 2406 2741
Q 2056 2741 1856 2470
Q 1656 2200 1656 1722
L 1656 0
L 538 0
L 538 4863
L 1656 4863
L 1656 2988
Q 1909 3294 2193 3439
Q 2478 3584 2822 3584
Q 3428 3584 3742 3212
Q 4056 2841 4056 2131
z
" transform="scale(0.015625)"/>
     </defs>
     <use xlink:href="#DejaVuSans-Bold-43"/>
     <use xlink:href="#DejaVuSans-Bold-6f" transform="translate(73.388672 0)"/>
     <use xlink:href="#DejaVuSans-Bold-6e" transform="translate(142.089844 0)"/>
     <use xlink:href="#DejaVuSans-Bold-74" transform="translate(213.28125 0)"/>
     <use xlink:href="#DejaVuSans-Bold-72" transform="translate(261.083984 0)"/>
     <use xlink:href="#DejaVuSans-Bold-6f" transform="translate(310.400391 0)"/>
     <use xlink:href="#DejaVuSans-Bold-6c" transform="translate(379.101562 0)"/>
     <use xlink:href="#DejaVuSans-Bold-6c" transform="translate(413.378906 0)"/>
     <use xlink:href="#DejaVuSans-Bold-65" transform="translate(447.65625 0)"/>
     <use xlink:href="#DejaVuSans-Bold-64" transform="translate(515.478516 0)"/>
     <use xlink:href="#DejaVuSans-Bold-20" transform="translate(587.060547 0)"/>
     <use xlink:href="#DejaVuSans-Bold-68" transform="translate(621.875 0)"/>
     <use xlink:href="#DejaVuSans-Bold-69" transform="translate(693.066406 0)"/>
     <use xlink:href="#DejaVuSans-Bold-64" transform="translate(727.34375 0)"/>
     <use xlink:href="#DejaVuSans-Bold-64" transform="translate(798.925781 0)"/>
     <use xlink:href="#DejaVuSans-Bold-65" transform="translate(870.507812 0)"/>
     <use xlink:href="#DejaVuSans-Bold-6e" transform="translate(938.330078 0)"/>
     <use xlink:href="#DejaVuSans-Bold-2d" transform="translate(1009.521484 0)"/>
     <use xlink:href="#DejaVuSans-Bold-63" transform="translate(1051.025391 0)"/>
     <use xlink:href="#DejaVuSans-Bold-6f" transform="translate(1110.302734 0)"/>
     <use xlink:href="#DejaVuSans-Bold-6e" transform="translate(1179.003906 0)"/>
     <use xlink:href="#DejaVuSans-Bold-73" transform="translate(1250.195312 0)"/>
     <use xlink:href="#DejaVuSans-Bold-74" transform="translate(1309.716797 0)"/>
     <use xlink:href="#DejaVuSans-Bold-72" transform="translate(1357.519531 0)"/>
     <use xlink:href="#DejaVuSans-Bold-61" transform="translate(1406.835938 0)"/>
     <use xlink:href="#DejaVuSans-Bold-69" transform="translate(1474.316406 0)"/>
     <use xlink:href="#DejaVuSans-Bold-6e" transform="translate(1508.59375 0)"/>
     <use xlink:href="#DejaVuSans-Bold-74" transform="translate(1579.785156 0)"/>
     <use xlink:href="#DejaVuSans-Bold-20" transform="translate(1627.587891 0)"/>
     <use xlink:href="#DejaVuSans-Bold-65" transform="translate(1662.402344 0)"/>
     <use xlink:href="#DejaVuSans-Bold-76" transform="translate(1730.224609 0)"/>
     <use xlink:href="#DejaVuSans-Bold-69" transform="translate(1795.410156 0)"/>
     <use xlink:href="#DejaVuSans-Bold-64" transform="translate(1829.6875 0)"/>
     <use xlink:href="#DejaVuSans-Bold-65" transform="translate(1901.269531 0)"/>
     <use xlink:href="#DejaVuSans-Bold-6e" transform="translate(1969.091797 0)"/>
     <use xlink:href="#DejaVuSans-Bold-63" transform="translate(2040.283203 0)"/>
     <use xlink:href="#DejaVuSans-Bold-65" transform="translate(2099.560547 0)"/>
     <use xlink:href="#DejaVuSans-Bold-20" transform="translate(2167.382812 0)"/>
     <use xlink:href="#DejaVuSans-Bold-70" transform="translate(2202.197266 0)"/>
     <use xlink:href="#DejaVuSans-Bold-72" transform="translate(2273.779297 0)"/>
     <use xlink:href="#DejaVuSans-Bold-6f" transform="translate(2323.095703 0)"/>
     <use xlink:href="#DejaVuSans-Bold-74" transform="translate(2391.796875 0)"/>
     <use xlink:href="#DejaVuSans-Bold-6f" transform="translate(2439.599609 0)"/>
     <use xlink:href="#DejaVuSans-Bold-63" transform="translate(2508.300781 0)"/>
     <use xlink:href="#DejaVuSans-Bold-6f" transform="translate(2567.578125 0)"/>
     <use xlink:href="#DejaVuSans-Bold-6c" transform="translate(2636.279297 0)"/>
    </g>
   </g>
   <g id="text_18">
    <!-- green = Kattis observation     blue = reconstructed or inferred     orange = local proxy -->
    <g style="fill: #666666" transform="translate(124.967148 40.35312) scale(0.085 -0.085)">
     <defs>
      <path id="DejaVuSans-3d" d="M 678 2906
L 4684 2906
L 4684 2381
L 678 2381
L 678 2906
z
M 678 1631
L 4684 1631
L 4684 1100
L 678 1100
L 678 1631
z
" transform="scale(0.015625)"/>
     </defs>
     <use xlink:href="#DejaVuSans-67"/>
     <use xlink:href="#DejaVuSans-72" transform="translate(63.476562 0)"/>
     <use xlink:href="#DejaVuSans-65" transform="translate(102.339844 0)"/>
     <use xlink:href="#DejaVuSans-65" transform="translate(163.863281 0)"/>
     <use xlink:href="#DejaVuSans-6e" transform="translate(225.386719 0)"/>
     <use xlink:href="#DejaVuSans-20" transform="translate(288.765625 0)"/>
     <use xlink:href="#DejaVuSans-3d" transform="translate(320.552734 0)"/>
     <use xlink:href="#DejaVuSans-20" transform="translate(404.341797 0)"/>
     <use xlink:href="#DejaVuSans-4b" transform="translate(436.128906 0)"/>
     <use xlink:href="#DejaVuSans-61" transform="translate(499.955078 0)"/>
     <use xlink:href="#DejaVuSans-74" transform="translate(561.234375 0)"/>
     <use xlink:href="#DejaVuSans-74" transform="translate(600.443359 0)"/>
     <use xlink:href="#DejaVuSans-69" transform="translate(639.652344 0)"/>
     <use xlink:href="#DejaVuSans-73" transform="translate(667.435547 0)"/>
     <use xlink:href="#DejaVuSans-20" transform="translate(719.535156 0)"/>
     <use xlink:href="#DejaVuSans-6f" transform="translate(751.322266 0)"/>
     <use xlink:href="#DejaVuSans-62" transform="translate(812.503906 0)"/>
     <use xlink:href="#DejaVuSans-73" transform="translate(875.980469 0)"/>
     <use xlink:href="#DejaVuSans-65" transform="translate(928.080078 0)"/>
     <use xlink:href="#DejaVuSans-72" transform="translate(989.603516 0)"/>
     <use xlink:href="#DejaVuSans-76" transform="translate(1030.716797 0)"/>
     <use xlink:href="#DejaVuSans-61" transform="translate(1089.896484 0)"/>
     <use xlink:href="#DejaVuSans-74" transform="translate(1151.175781 0)"/>
     <use xlink:href="#DejaVuSans-69" transform="translate(1190.384766 0)"/>
     <use xlink:href="#DejaVuSans-6f" transform="translate(1218.167969 0)"/>
     <use xlink:href="#DejaVuSans-6e" transform="translate(1279.349609 0)"/>
     <use xlink:href="#DejaVuSans-20" transform="translate(1342.728516 0)"/>
     <use xlink:href="#DejaVuSans-20" transform="translate(1374.515625 0)"/>
     <use xlink:href="#DejaVuSans-20" transform="translate(1406.302734 0)"/>
     <use xlink:href="#DejaVuSans-20" transform="translate(1438.089844 0)"/>
     <use xlink:href="#DejaVuSans-20" transform="translate(1469.876953 0)"/>
     <use xlink:href="#DejaVuSans-62" transform="translate(1501.664062 0)"/>
     <use xlink:href="#DejaVuSans-6c" transform="translate(1565.140625 0)"/>
     <use xlink:href="#DejaVuSans-75" transform="translate(1592.923828 0)"/>
     <use xlink:href="#DejaVuSans-65" transform="translate(1656.302734 0)"/>
     <use xlink:href="#DejaVuSans-20" transform="translate(1717.826172 0)"/>
     <use xlink:href="#DejaVuSans-3d" transform="translate(1749.613281 0)"/>
     <use xlink:href="#DejaVuSans-20" transform="translate(1833.402344 0)"/>
     <use xlink:href="#DejaVuSans-72" transform="translate(1865.189453 0)"/>
     <use xlink:href="#DejaVuSans-65" transform="translate(1904.052734 0)"/>
     <use xlink:href="#DejaVuSans-63" transform="translate(1965.576172 0)"/>
     <use xlink:href="#DejaVuSans-6f" transform="translate(2020.556641 0)"/>
     <use xlink:href="#DejaVuSans-6e" transform="translate(2081.738281 0)"/>
     <use xlink:href="#DejaVuSans-73" transform="translate(2145.117188 0)"/>
     <use xlink:href="#DejaVuSans-74" transform="translate(2197.216797 0)"/>
     <use xlink:href="#DejaVuSans-72" transform="translate(2236.425781 0)"/>
     <use xlink:href="#DejaVuSans-75" transform="translate(2277.539062 0)"/>
     <use xlink:href="#DejaVuSans-63" transform="translate(2340.917969 0)"/>
     <use xlink:href="#DejaVuSans-74" transform="translate(2395.898438 0)"/>
     <use xlink:href="#DejaVuSans-65" transform="translate(2435.107422 0)"/>
     <use xlink:href="#DejaVuSans-64" transform="translate(2496.630859 0)"/>
     <use xlink:href="#DejaVuSans-20" transform="translate(2560.107422 0)"/>
     <use xlink:href="#DejaVuSans-6f" transform="translate(2591.894531 0)"/>
     <use xlink:href="#DejaVuSans-72" transform="translate(2653.076172 0)"/>
     <use xlink:href="#DejaVuSans-20" transform="translate(2694.189453 0)"/>
     <use xlink:href="#DejaVuSans-69" transform="translate(2725.976562 0)"/>
     <use xlink:href="#DejaVuSans-6e" transform="translate(2753.759766 0)"/>
     <use xlink:href="#DejaVuSans-66" transform="translate(2817.138672 0)"/>
     <use xlink:href="#DejaVuSans-65" transform="translate(2852.34375 0)"/>
     <use xlink:href="#DejaVuSans-72" transform="translate(2913.867188 0)"/>
     <use xlink:href="#DejaVuSans-72" transform="translate(2953.230469 0)"/>
     <use xlink:href="#DejaVuSans-65" transform="translate(2992.09375 0)"/>
     <use xlink:href="#DejaVuSans-64" transform="translate(3053.617188 0)"/>
     <use xlink:href="#DejaVuSans-20" transform="translate(3117.09375 0)"/>
     <use xlink:href="#DejaVuSans-20" transform="translate(3148.880859 0)"/>
     <use xlink:href="#DejaVuSans-20" transform="translate(3180.667969 0)"/>
     <use xlink:href="#DejaVuSans-20" transform="translate(3212.455078 0)"/>
     <use xlink:href="#DejaVuSans-20" transform="translate(3244.242188 0)"/>
     <use xlink:href="#DejaVuSans-6f" transform="translate(3276.029297 0)"/>
     <use xlink:href="#DejaVuSans-72" transform="translate(3337.210938 0)"/>
     <use xlink:href="#DejaVuSans-61" transform="translate(3378.324219 0)"/>
     <use xlink:href="#DejaVuSans-6e" transform="translate(3439.603516 0)"/>
     <use xlink:href="#DejaVuSans-67" transform="translate(3502.982422 0)"/>
     <use xlink:href="#DejaVuSans-65" transform="translate(3566.458984 0)"/>
     <use xlink:href="#DejaVuSans-20" transform="translate(3627.982422 0)"/>
     <use xlink:href="#DejaVuSans-3d" transform="translate(3659.769531 0)"/>
     <use xlink:href="#DejaVuSans-20" transform="translate(3743.558594 0)"/>
     <use xlink:href="#DejaVuSans-6c" transform="translate(3775.345703 0)"/>
     <use xlink:href="#DejaVuSans-6f" transform="translate(3803.128906 0)"/>
     <use xlink:href="#DejaVuSans-63" transform="translate(3864.310547 0)"/>
     <use xlink:href="#DejaVuSans-61" transform="translate(3919.291016 0)"/>
     <use xlink:href="#DejaVuSans-6c" transform="translate(3980.570312 0)"/>
     <use xlink:href="#DejaVuSans-20" transform="translate(4008.353516 0)"/>
     <use xlink:href="#DejaVuSans-70" transform="translate(4040.140625 0)"/>
     <use xlink:href="#DejaVuSans-72" transform="translate(4103.617188 0)"/>
     <use xlink:href="#DejaVuSans-6f" transform="translate(4142.480469 0)"/>
     <use xlink:href="#DejaVuSans-78" transform="translate(4200.537109 0)"/>
     <use xlink:href="#DejaVuSans-79" transform="translate(4259.716797 0)"/>
    </g>
   </g>
  </g>
 </g>
 <defs>
  <clipPath id="pae539873d8">
   <rect x="7.2" y="7.2" width="602.64" height="288.288"/>
  </clipPath>
 </defs>
</svg>
