<?xml version="1.0" encoding="utf-8" standalone="no"?>
<!DOCTYPE svg PUBLIC "-//W3C//DTD SVG 1.1//EN"
  "http://www.w3.org/Graphics/SVG/1.1/DTD/svg11.dtd">
<svg xmlns:xlink="http://www.w3.org/1999/xlink" width="600.3pt" height="313.776pt" viewBox="0 0 600.3 313.776" xmlns="http://www.w3.org/2000/svg" version="1.1">
 <metadata>
  <rdf:RDF xmlns:dc="http://purl.org/dc/elements/1.1/" xmlns:cc="http://creativecommons.org/ns#" xmlns:rdf="http://www.w3.org/1999/02/22-rdf-syntax-ns#">
   <cc:Work>
    <dc:type rdf:resource="http://purl.org/dc/dcmitype/StillImage"/>
    <dc:date>2026-07-19T20:17:15.765871</dc:date>
    <dc:format>image/svg+xml</dc:format>
    <dc:creator>
     <cc:Agent>
      <dc:title>Matplotlib v3.10.8, https://matplotlib.org/</dc:title>
     </cc:Agent>
    </dc:creator>
   </cc:Work>
  </rdf:RDF>
 </metadata>
 <defs>
  <style type="text/css">*{stroke-linejoin: round; stroke-linecap: butt}</style>
 </defs>
 <g id="figure_1">
  <g id="patch_1">
   <path d="M 0 313.776
L 600.3 313.776
L 600.3 0
L 0 0
z
" style="fill: #ffffff"/>
  </g>
  <g id="axes_1">
   <g id="patch_2">
    <path d="M 28.8783 120.364128
L 126.1377 120.364128
Q 140.7852 120.364128 140.7852 112.879728
L 140.7852 57.195792
Q 140.7852 49.711392 126.1377 49.711392
L 28.8783 49.711392
Q 14.2308 49.711392 14.2308 57.195792
L 14.2308 112.879728
Q 14.2308 120.364128 28.8783 120.364128
z
" clip-path="url(#pba5a924ca3)" style="fill: #ffffff; stroke: #17365d; stroke-width: 1.5; stroke-linejoin: miter"/>
   </g>
   <g id="patch_3">
    <path d="M 175.3533 120.364128
L 284.3307 120.364128
Q 298.9782 120.364128 298.9782 112.879728
L 298.9782 57.195792
Q 298.9782 49.711392 284.3307 49.711392
L 175.3533 49.711392
Q 160.7058 49.711392 160.7058 57.195792
L 160.7058 112.879728
Q 160.7058 120.364128 175.3533 120.364128
z
" clip-path="url(#pba5a924ca3)" style="fill: #ffffff; stroke: #17365d; stroke-width: 1.5; stroke-linejoin: miter"/>
   </g>
   <g id="patch_4">
    <path d="M 339.4053 120.364128
L 436.6647 120.364128
Q 451.3122 120.364128 451.3122 112.879728
L 451.3122 57.195792
Q 451.3122 49.711392 436.6647 49.711392
L 339.4053 49.711392
Q 324.7578 49.711392 324.7578 57.195792
L 324.7578 112.879728
Q 324.7578 120.364128 339.4053 120.364128
z
" clip-path="url(#pba5a924ca3)" style="fill: #ffffff; stroke: #17365d; stroke-width: 1.5; stroke-linejoin: miter"/>
   </g>
   <g id="patch_5">
    <path d="M 485.8803 120.364128
L 571.4217 120.364128
Q 586.0692 120.364128 586.0692 112.879728
L 586.0692 57.195792
Q 586.0692 49.711392 571.4217 49.711392
L 485.8803 49.711392
Q 471.2328 49.711392 471.2328 57.195792
L 471.2328 112.879728
Q 471.2328 120.364128 485.8803 120.364128
z
" clip-path="url(#pba5a924ca3)" style="fill: #ffffff; stroke: #548235; stroke-width: 1.5; stroke-linejoin: miter"/>
   </g>
   <g id="patch_6">
    <path d="M 132.239085 85.03776
Q 150.747837 85.03776 167.691341 85.03776
" clip-path="url(#pba5a924ca3)" style="fill: none; stroke: #366092; stroke-width: 1.4; stroke-linecap: round"/>
    <path d="M 162.891341 82.63776
L 167.691341 85.03776
L 162.891341 87.43776
z
" clip-path="url(#pba5a924ca3)" style="fill: #366092; stroke: #366092; stroke-width: 1.4; stroke-linecap: round"/>
   </g>
   <g id="patch_7">
    <path d="M 290.431727 85.03776
Q 311.866837 85.03776 331.7367 85.03776
" clip-path="url(#pba5a924ca3)" style="fill: none; stroke: #366092; stroke-width: 1.4; stroke-linecap: round"/>
    <path d="M 326.9367 82.63776
L 331.7367 85.03776
L 326.9367 87.43776
z
" clip-path="url(#pba5a924ca3)" style="fill: #366092; stroke: #366092; stroke-width: 1.4; stroke-linecap: round"/>
   </g>
   <g id="patch_8">
    <path d="M 442.766085 85.03776
Q 461.274837 85.03776 478.218341 85.03776
" clip-path="url(#pba5a924ca3)" style="fill: none; stroke: #366092; stroke-width: 1.4; stroke-linecap: round"/>
    <path d="M 473.418341 82.63776
L 478.218341 85.03776
L 473.418341 87.43776
z
" clip-path="url(#pba5a924ca3)" style="fill: #366092; stroke: #366092; stroke-width: 1.4; stroke-linecap: round"/>
   </g>
   <g id="patch_9">
    <path d="M 122.6223 246.102048
L 243.3177 246.102048
Q 257.9652 246.102048 257.9652 238.617648
L 257.9652 176.946192
Q 257.9652 169.461792 243.3177 169.461792
L 122.6223 169.461792
Q 107.9748 169.461792 107.9748 176.946192
L 107.9748 238.617648
Q 107.9748 246.102048 122.6223 246.102048
z
" clip-path="url(#pba5a924ca3)" style="fill: #ffffff; stroke: #c65911; stroke-width: 1.5; stroke-linejoin: miter"/>
   </g>
   <g id="patch_10">
    <path d="M 280.8153 246.102048
L 401.5107 246.102048
Q 416.1582 246.102048 416.1582 238.617648
L 416.1582 176.946192
Q 416.1582 169.461792 401.5107 169.461792
L 280.8153 169.461792
Q 266.1678 169.461792 266.1678 176.946192
L 266.1678 238.617648
Q 266.1678 246.102048 280.8153 246.102048
z
" clip-path="url(#pba5a924ca3)" style="fill: #ffffff; stroke: #c65911; stroke-width: 1.5; stroke-linejoin: miter"/>
   </g>
   <g id="patch_11">
    <path d="M 439.0083 246.102048
L 559.7037 246.102048
Q 574.3512 246.102048 574.3512 238.617648
L 574.3512 176.946192
Q 574.3512 169.461792 559.7037 169.461792
L 439.0083 169.461792
Q 424.3608 169.461792 424.3608 176.946192
L 424.3608 238.617648
Q 424.3608 246.102048 439.0083 246.102048
z
" clip-path="url(#pba5a924ca3)" style="fill: #ffffff; stroke: #548235; stroke-width: 1.5; stroke-linejoin: miter"/>
   </g>
   <g id="patch_12">
    <path d="M 222.854041 116.623536
Q 203.478002 144.910767 184.986505 171.906648
" clip-path="url(#pba5a924ca3)" style="fill: none; stroke: #c65911; stroke-width: 1.4; stroke-linecap: round"/>
    <path d="M 189.679081 169.302856
L 184.986505 171.906648
L 185.719017 166.590313
z
" clip-path="url(#pba5a924ca3)" style="fill: #c65911; stroke: #c65911; stroke-width: 1.4; stroke-linecap: round"/>
   </g>
   <g id="patch_13">
    <path d="M 249.418012 207.78192
Q 262.064731 207.78192 273.146203 207.78192
" clip-path="url(#pba5a924ca3)" style="fill: none; stroke: #c65911; stroke-width: 1.4; stroke-linecap: round"/>
    <path d="M 268.346203 205.38192
L 273.146203 207.78192
L 268.346203 210.18192
z
" clip-path="url(#pba5a924ca3)" style="fill: #c65911; stroke: #c65911; stroke-width: 1.4; stroke-linecap: round"/>
   </g>
   <g id="patch_14">
    <path d="M 407.611012 207.78192
Q 420.257731 207.78192 431.339203 207.78192
" clip-path="url(#pba5a924ca3)" style="fill: none; stroke: #548235; stroke-width: 1.4; stroke-linecap: round"/>
    <path d="M 426.539203 205.38192
L 431.339203 207.78192
L 426.539203 210.18192
z
" clip-path="url(#pba5a924ca3)" style="fill: #548235; stroke: #548235; stroke-width: 1.4; stroke-linecap: round"/>
   </g>
   <g id="patch_15">
    <path d="M 500.084084 172.990423
Q 511.074222 144.912393 521.493846 118.291934
" clip-path="url(#pba5a924ca3)" style="fill: none; stroke: #548235; stroke-width: 1.4; stroke-linecap: round"/>
    <path d="M 517.509404 121.886962
L 521.493846 118.291934
L 521.979203 123.636504
z
" clip-path="url(#pba5a924ca3)" style="fill: #548235; stroke: #548235; stroke-width: 1.4; stroke-linecap: round"/>
   </g>
   <g id="text_1">
    <!-- Input mesh -->
    <g style="fill: #17365d" transform="translate(44.09175 80.75008) scale(0.105 -0.105)">
     <defs>
      <path id="DejaVuSans-Bold-49" d="M 588 4666
L 1791 4666
L 1791 0
L 588 0
L 588 4666
z
" transform="scale(0.015625)"/>
      <path id="DejaVuSans-Bold-6e" d="M 4056 2131
L 4056 0
L 2931 0
L 2931 347
L 2931 1631
Q 2931 2084 2911 2256
Q 2891 2428 2841 2509
Q 2775 2619 2662 2680
Q 2550 2741 2406 2741
Q 2056 2741 1856 2470
Q 1656 2200 1656 1722
L 1656 0
L 538 0
L 538 3500
L 1656 3500
L 1656 2988
Q 1909 3294 2193 3439
Q 2478 3584 2822 3584
Q 3428 3584 3742 3212
Q 4056 2841 4056 2131
z
" transform="scale(0.015625)"/>
      <path id="DejaVuSans-Bold-70" d="M 1656 506
L 1656 -1331
L 538 -1331
L 538 3500
L 1656 3500
L 1656 2988
Q 1888 3294 2169 3439
Q 2450 3584 2816 3584
Q 3463 3584 3878 3070
Q 4294 2556 4294 1747
Q 4294 938 3878 423
Q 3463 -91 2816 -91
Q 2450 -91 2169 54
Q 1888 200 1656 506
z
M 2400 2772
Q 2041 2772 1848 2508
Q 1656 2244 1656 1747
Q 1656 1250 1848 986
Q 2041 722 2400 722
Q 2759 722 2948 984
Q 3138 1247 3138 1747
Q 3138 2247 2948 2509
Q 2759 2772 2400 2772
z
" transform="scale(0.015625)"/>
      <path id="DejaVuSans-Bold-75" d="M 500 1363
L 500 3500
L 1625 3500
L 1625 3150
Q 1625 2866 1622 2436
Q 1619 2006 1619 1863
Q 1619 1441 1641 1255
Q 1663 1069 1716 984
Q 1784 875 1895 815
Q 2006 756 2150 756
Q 2500 756 2700 1025
Q 2900 1294 2900 1772
L 2900 3500
L 4019 3500
L 4019 0
L 2900 0
L 2900 506
Q 2647 200 2364 54
Q 2081 -91 1741 -91
Q 1134 -91 817 281
Q 500 653 500 1363
z
" transform="scale(0.015625)"/>
      <path id="DejaVuSans-Bold-74" d="M 1759 4494
L 1759 3500
L 2913 3500
L 2913 2700
L 1759 2700
L 1759 1216
Q 1759 972 1856 886
Q 1953 800 2241 800
L 2816 800
L 2816 0
L 1856 0
Q 1194 0 917 276
Q 641 553 641 1216
L 641 2700
L 84 2700
L 84 3500
L 641 3500
L 641 4494
L 1759 4494
z
" transform="scale(0.015625)"/>
      <path id="DejaVuSans-Bold-20" transform="scale(0.015625)"/>
      <path id="DejaVuSans-Bold-6d" d="M 3781 2919
Q 3994 3244 4286 3414
Q 4578 3584 4928 3584
Q 5531 3584 5847 3212
Q 6163 2841 6163 2131
L 6163 0
L 5038 0
L 5038 1825
Q 5041 1866 5042 1909
Q 5044 1953 5044 2034
Q 5044 2406 4934 2573
Q 4825 2741 4581 2741
Q 4263 2741 4089 2478
Q 3916 2216 3909 1719
L 3909 0
L 2784 0
L 2784 1825
Q 2784 2406 2684 2573
Q 2584 2741 2328 2741
Q 2006 2741 1831 2477
Q 1656 2213 1656 1722
L 1656 0
L 531 0
L 531 3500
L 1656 3500
L 1656 2988
Q 1863 3284 2130 3434
Q 2397 3584 2719 3584
Q 3081 3584 3359 3409
Q 3638 3234 3781 2919
z
" transform="scale(0.015625)"/>
      <path id="DejaVuSans-Bold-65" d="M 4031 1759
L 4031 1441
L 1416 1441
Q 1456 1047 1700 850
Q 1944 653 2381 653
Q 2734 653 3104 758
Q 3475 863 3866 1075
L 3866 213
Q 3469 63 3072 -14
Q 2675 -91 2278 -91
Q 1328 -91 801 392
Q 275 875 275 1747
Q 275 2603 792 3093
Q 1309 3584 2216 3584
Q 3041 3584 3536 3087
Q 4031 2591 4031 1759
z
M 2881 2131
Q 2881 2450 2695 2645
Q 2509 2841 2209 2841
Q 1884 2841 1681 2658
Q 1478 2475 1428 2131
L 2881 2131
z
" transform="scale(0.015625)"/>
      <path id="DejaVuSans-Bold-73" d="M 3272 3391
L 3272 2541
Q 2913 2691 2578 2766
Q 2244 2841 1947 2841
Q 1628 2841 1473 2761
Q 1319 2681 1319 2516
Q 1319 2381 1436 2309
Q 1553 2238 1856 2203
L 2053 2175
Q 2913 2066 3209 1816
Q 3506 1566 3506 1031
Q 3506 472 3093 190
Q 2681 -91 1863 -91
Q 1516 -91 1145 -36
Q 775 19 384 128
L 384 978
Q 719 816 1070 734
Q 1422 653 1784 653
Q 2113 653 2278 743
Q 2444 834 2444 1013
Q 2444 1163 2330 1236
Q 2216 1309 1875 1350
L 1678 1375
Q 931 1469 631 1722
Q 331 1975 331 2491
Q 331 3047 712 3315
Q 1094 3584 1881 3584
Q 2191 3584 2531 3537
Q 2872 3491 3272 3391
z
" transform="scale(0.015625)"/>
      <path id="DejaVuSans-Bold-68" d="M 4056 2131
L 4056 0
L 2931 0
L 2931 347
L 2931 1625
Q 2931 2084 2911 2256
Q 2891 2428 2841 2509
Q 2775 2619 2662 2680
Q 2550 2741 2406 2741
Q 2056 2741 1856 2470
Q 1656 2200 1656 1722
L 1656 0
L 538 0
L 538 4863
L 1656 4863
L 1656 2988
Q 1909 3294 2193 3439
Q 2478 3584 2822 3584
Q 3428 3584 3742 3212
Q 4056 2841 4056 2131
z
" transform="scale(0.015625)"/>
     </defs>
     <use xlink:href="#DejaVuSans-Bold-49"/>
     <use xlink:href="#DejaVuSans-Bold-6e" transform="translate(37.207031 0)"/>
     <use xlink:href="#DejaVuSans-Bold-70" transform="translate(108.398438 0)"/>
     <use xlink:href="#DejaVuSans-Bold-75" transform="translate(179.980469 0)"/>
     <use xlink:href="#DejaVuSans-Bold-74" transform="translate(251.171875 0)"/>
     <use xlink:href="#DejaVuSans-Bold-20" transform="translate(298.974609 0)"/>
     <use xlink:href="#DejaVuSans-Bold-6d" transform="translate(333.789062 0)"/>
     <use xlink:href="#DejaVuSans-Bold-65" transform="translate(437.988281 0)"/>
     <use xlink:href="#DejaVuSans-Bold-73" transform="translate(505.810547 0)"/>
     <use xlink:href="#DejaVuSans-Bold-68" transform="translate(565.332031 0)"/>
    </g>
   </g>
   <g id="text_2">
    <!-- stream parser -->
    <g style="fill: #666666" transform="translate(48.343227 95.570076) scale(0.083 -0.083)">
     <defs>
      <path id="DejaVuSans-73" d="M 2834 3397
L 2834 2853
Q 2591 2978 2328 3040
Q 2066 3103 1784 3103
Q 1356 3103 1142 2972
Q 928 2841 928 2578
Q 928 2378 1081 2264
Q 1234 2150 1697 2047
L 1894 2003
Q 2506 1872 2764 1633
Q 3022 1394 3022 966
Q 3022 478 2636 193
Q 2250 -91 1575 -91
Q 1294 -91 989 -36
Q 684 19 347 128
L 347 722
Q 666 556 975 473
Q 1284 391 1588 391
Q 1994 391 2212 530
Q 2431 669 2431 922
Q 2431 1156 2273 1281
Q 2116 1406 1581 1522
L 1381 1569
Q 847 1681 609 1914
Q 372 2147 372 2553
Q 372 3047 722 3315
Q 1072 3584 1716 3584
Q 2034 3584 2315 3537
Q 2597 3491 2834 3397
z
" transform="scale(0.015625)"/>
      <path id="DejaVuSans-74" d="M 1172 4494
L 1172 3500
L 2356 3500
L 2356 3053
L 1172 3053
L 1172 1153
Q 1172 725 1289 603
Q 1406 481 1766 481
L 2356 481
L 2356 0
L 1766 0
Q 1100 0 847 248
Q 594 497 594 1153
L 594 3053
L 172 3053
L 172 3500
L 594 3500
L 594 4494
L 1172 4494
z
" transform="scale(0.015625)"/>
      <path id="DejaVuSans-72" d="M 2631 2963
Q 2534 3019 2420 3045
Q 2306 3072 2169 3072
Q 1681 3072 1420 2755
Q 1159 2438 1159 1844
L 1159 0
L 581 0
L 581 3500
L 1159 3500
L 1159 2956
Q 1341 3275 1631 3429
Q 1922 3584 2338 3584
Q 2397 3584 2469 3576
Q 2541 3569 2628 3553
L 2631 2963
z
" transform="scale(0.015625)"/>
      <path id="DejaVuSans-65" d="M 3597 1894
L 3597 1613
L 953 1613
Q 991 1019 1311 708
Q 1631 397 2203 397
Q 2534 397 2845 478
Q 3156 559 3463 722
L 3463 178
Q 3153 47 2828 -22
Q 2503 -91 2169 -91
Q 1331 -91 842 396
Q 353 884 353 1716
Q 353 2575 817 3079
Q 1281 3584 2069 3584
Q 2775 3584 3186 3129
Q 3597 2675 3597 1894
z
M 3022 2063
Q 3016 2534 2758 2815
Q 2500 3097 2075 3097
Q 1594 3097 1305 2825
Q 1016 2553 972 2059
L 3022 2063
z
" transform="scale(0.015625)"/>
      <path id="DejaVuSans-61" d="M 2194 1759
Q 1497 1759 1228 1600
Q 959 1441 959 1056
Q 959 750 1161 570
Q 1363 391 1709 391
Q 2188 391 2477 730
Q 2766 1069 2766 1631
L 2766 1759
L 2194 1759
z
M 3341 1997
L 3341 0
L 2766 0
L 2766 531
Q 2569 213 2275 61
Q 1981 -91 1556 -91
Q 1019 -91 701 211
Q 384 513 384 1019
Q 384 1609 779 1909
Q 1175 2209 1959 2209
L 2766 2209
L 2766 2266
Q 2766 2663 2505 2880
Q 2244 3097 1772 3097
Q 1472 3097 1187 3025
Q 903 2953 641 2809
L 641 3341
Q 956 3463 1253 3523
Q 1550 3584 1831 3584
Q 2591 3584 2966 3190
Q 3341 2797 3341 1997
z
" transform="scale(0.015625)"/>
      <path id="DejaVuSans-6d" d="M 3328 2828
Q 3544 3216 3844 3400
Q 4144 3584 4550 3584
Q 5097 3584 5394 3201
Q 5691 2819 5691 2113
L 5691 0
L 5113 0
L 5113 2094
Q 5113 2597 4934 2840
Q 4756 3084 4391 3084
Q 3944 3084 3684 2787
Q 3425 2491 3425 1978
L 3425 0
L 2847 0
L 2847 2094
Q 2847 2600 2669 2842
Q 2491 3084 2119 3084
Q 1678 3084 1418 2786
Q 1159 2488 1159 1978
L 1159 0
L 581 0
L 581 3500
L 1159 3500
L 1159 2956
Q 1356 3278 1631 3431
Q 1906 3584 2284 3584
Q 2666 3584 2933 3390
Q 3200 3197 3328 2828
z
" transform="scale(0.015625)"/>
      <path id="DejaVuSans-20" transform="scale(0.015625)"/>
      <path id="DejaVuSans-70" d="M 1159 525
L 1159 -1331
L 581 -1331
L 581 3500
L 1159 3500
L 1159 2969
Q 1341 3281 1617 3432
Q 1894 3584 2278 3584
Q 2916 3584 3314 3078
Q 3713 2572 3713 1747
Q 3713 922 3314 415
Q 2916 -91 2278 -91
Q 1894 -91 1617 61
Q 1341 213 1159 525
z
M 3116 1747
Q 3116 2381 2855 2742
Q 2594 3103 2138 3103
Q 1681 3103 1420 2742
Q 1159 2381 1159 1747
Q 1159 1113 1420 752
Q 1681 391 2138 391
Q 2594 391 2855 752
Q 3116 1113 3116 1747
z
" transform="scale(0.015625)"/>
     </defs>
     <use xlink:href="#DejaVuSans-73"/>
     <use xlink:href="#DejaVuSans-74" transform="translate(52.099609 0)"/>
     <use xlink:href="#DejaVuSans-72" transform="translate(91.308594 0)"/>
     <use xlink:href="#DejaVuSans-65" transform="translate(130.171875 0)"/>
     <use xlink:href="#DejaVuSans-61" transform="translate(191.695312 0)"/>
     <use xlink:href="#DejaVuSans-6d" transform="translate(252.974609 0)"/>
     <use xlink:href="#DejaVuSans-20" transform="translate(350.386719 0)"/>
     <use xlink:href="#DejaVuSans-70" transform="translate(382.173828 0)"/>
     <use xlink:href="#DejaVuSans-61" transform="translate(445.650391 0)"/>
     <use xlink:href="#DejaVuSans-72" transform="translate(506.929688 0)"/>
     <use xlink:href="#DejaVuSans-73" transform="translate(548.042969 0)"/>
     <use xlink:href="#DejaVuSans-65" transform="translate(600.142578 0)"/>
     <use xlink:href="#DejaVuSans-72" transform="translate(661.666016 0)"/>
    </g>
    <!-- case signature -->
    <g style="fill: #666666" transform="translate(47.102766 104.23359) scale(0.083 -0.083)">
     <defs>
      <path id="DejaVuSans-63" d="M 3122 3366
L 3122 2828
Q 2878 2963 2633 3030
Q 2388 3097 2138 3097
Q 1578 3097 1268 2742
Q 959 2388 959 1747
Q 959 1106 1268 751
Q 1578 397 2138 397
Q 2388 397 2633 464
Q 2878 531 3122 666
L 3122 134
Q 2881 22 2623 -34
Q 2366 -91 2075 -91
Q 1284 -91 818 406
Q 353 903 353 1747
Q 353 2603 823 3093
Q 1294 3584 2113 3584
Q 2378 3584 2631 3529
Q 2884 3475 3122 3366
z
" transform="scale(0.015625)"/>
      <path id="DejaVuSans-69" d="M 603 3500
L 1178 3500
L 1178 0
L 603 0
L 603 3500
z
M 603 4863
L 1178 4863
L 1178 4134
L 603 4134
L 603 4863
z
" transform="scale(0.015625)"/>
      <path id="DejaVuSans-67" d="M 2906 1791
Q 2906 2416 2648 2759
Q 2391 3103 1925 3103
Q 1463 3103 1205 2759
Q 947 2416 947 1791
Q 947 1169 1205 825
Q 1463 481 1925 481
Q 2391 481 2648 825
Q 2906 1169 2906 1791
z
M 3481 434
Q 3481 -459 3084 -895
Q 2688 -1331 1869 -1331
Q 1566 -1331 1297 -1286
Q 1028 -1241 775 -1147
L 775 -588
Q 1028 -725 1275 -790
Q 1522 -856 1778 -856
Q 2344 -856 2625 -561
Q 2906 -266 2906 331
L 2906 616
Q 2728 306 2450 153
Q 2172 0 1784 0
Q 1141 0 747 490
Q 353 981 353 1791
Q 353 2603 747 3093
Q 1141 3584 1784 3584
Q 2172 3584 2450 3431
Q 2728 3278 2906 2969
L 2906 3500
L 3481 3500
L 3481 434
z
" transform="scale(0.015625)"/>
      <path id="DejaVuSans-6e" d="M 3513 2113
L 3513 0
L 2938 0
L 2938 2094
Q 2938 2591 2744 2837
Q 2550 3084 2163 3084
Q 1697 3084 1428 2787
Q 1159 2491 1159 1978
L 1159 0
L 581 0
L 581 3500
L 1159 3500
L 1159 2956
Q 1366 3272 1645 3428
Q 1925 3584 2291 3584
Q 2894 3584 3203 3211
Q 3513 2838 3513 2113
z
" transform="scale(0.015625)"/>
      <path id="DejaVuSans-75" d="M 544 1381
L 544 3500
L 1119 3500
L 1119 1403
Q 1119 906 1312 657
Q 1506 409 1894 409
Q 2359 409 2629 706
Q 2900 1003 2900 1516
L 2900 3500
L 3475 3500
L 3475 0
L 2900 0
L 2900 538
Q 2691 219 2414 64
Q 2138 -91 1772 -91
Q 1169 -91 856 284
Q 544 659 544 1381
z
M 1991 3584
L 1991 3584
z
" transform="scale(0.015625)"/>
     </defs>
     <use xlink:href="#DejaVuSans-63"/>
     <use xlink:href="#DejaVuSans-61" transform="translate(54.980469 0)"/>
     <use xlink:href="#DejaVuSans-73" transform="translate(116.259766 0)"/>
     <use xlink:href="#DejaVuSans-65" transform="translate(168.359375 0)"/>
     <use xlink:href="#DejaVuSans-20" transform="translate(229.882812 0)"/>
     <use xlink:href="#DejaVuSans-73" transform="translate(261.669922 0)"/>
     <use xlink:href="#DejaVuSans-69" transform="translate(313.769531 0)"/>
     <use xlink:href="#DejaVuSans-67" transform="translate(341.552734 0)"/>
     <use xlink:href="#DejaVuSans-6e" transform="translate(405.029297 0)"/>
     <use xlink:href="#DejaVuSans-61" transform="translate(468.408203 0)"/>
     <use xlink:href="#DejaVuSans-74" transform="translate(529.6875 0)"/>
     <use xlink:href="#DejaVuSans-75" transform="translate(568.896484 0)"/>
     <use xlink:href="#DejaVuSans-72" transform="translate(632.275391 0)"/>
     <use xlink:href="#DejaVuSans-65" transform="translate(671.138672 0)"/>
    </g>
   </g>
   <g id="text_3">
    <!-- Guarded QEM -->
    <g style="fill: #17365d" transform="translate(189.485086 80.75008) scale(0.105 -0.105)">
     <defs>
      <path id="DejaVuSans-Bold-47" d="M 4781 347
Q 4331 128 3847 18
Q 3363 -91 2847 -91
Q 1681 -91 1000 561
Q 319 1213 319 2328
Q 319 3456 1012 4103
Q 1706 4750 2913 4750
Q 3378 4750 3804 4662
Q 4231 4575 4609 4403
L 4609 3438
Q 4219 3659 3833 3768
Q 3447 3878 3059 3878
Q 2341 3878 1952 3476
Q 1563 3075 1563 2328
Q 1563 1588 1938 1184
Q 2313 781 3003 781
Q 3191 781 3352 804
Q 3513 828 3641 878
L 3641 1784
L 2906 1784
L 2906 2591
L 4781 2591
L 4781 347
z
" transform="scale(0.015625)"/>
      <path id="DejaVuSans-Bold-61" d="M 2106 1575
Q 1756 1575 1579 1456
Q 1403 1338 1403 1106
Q 1403 894 1545 773
Q 1688 653 1941 653
Q 2256 653 2472 879
Q 2688 1106 2688 1447
L 2688 1575
L 2106 1575
z
M 3816 1997
L 3816 0
L 2688 0
L 2688 519
Q 2463 200 2181 54
Q 1900 -91 1497 -91
Q 953 -91 614 226
Q 275 544 275 1050
Q 275 1666 698 1953
Q 1122 2241 2028 2241
L 2688 2241
L 2688 2328
Q 2688 2594 2478 2717
Q 2269 2841 1825 2841
Q 1466 2841 1156 2769
Q 847 2697 581 2553
L 581 3406
Q 941 3494 1303 3539
Q 1666 3584 2028 3584
Q 2975 3584 3395 3211
Q 3816 2838 3816 1997
z
" transform="scale(0.015625)"/>
      <path id="DejaVuSans-Bold-72" d="M 3138 2547
Q 2991 2616 2845 2648
Q 2700 2681 2553 2681
Q 2122 2681 1889 2404
Q 1656 2128 1656 1613
L 1656 0
L 538 0
L 538 3500
L 1656 3500
L 1656 2925
Q 1872 3269 2151 3426
Q 2431 3584 2822 3584
Q 2878 3584 2943 3579
Q 3009 3575 3134 3559
L 3138 2547
z
" transform="scale(0.015625)"/>
      <path id="DejaVuSans-Bold-64" d="M 2919 2988
L 2919 4863
L 4044 4863
L 4044 0
L 2919 0
L 2919 506
Q 2688 197 2409 53
Q 2131 -91 1766 -91
Q 1119 -91 703 423
Q 288 938 288 1747
Q 288 2556 703 3070
Q 1119 3584 1766 3584
Q 2128 3584 2408 3439
Q 2688 3294 2919 2988
z
M 2181 722
Q 2541 722 2730 984
Q 2919 1247 2919 1747
Q 2919 2247 2730 2509
Q 2541 2772 2181 2772
Q 1825 2772 1636 2509
Q 1447 2247 1447 1747
Q 1447 1247 1636 984
Q 1825 722 2181 722
z
" transform="scale(0.015625)"/>
      <path id="DejaVuSans-Bold-51" d="M 2847 -84
L 2753 -84
Q 1600 -84 959 553
Q 319 1191 319 2328
Q 319 3463 958 4106
Q 1597 4750 2719 4750
Q 3853 4750 4486 4112
Q 5119 3475 5119 2328
Q 5119 1541 4783 972
Q 4447 403 3816 116
L 4756 -934
L 3609 -934
L 2847 -84
z
M 2719 3878
Q 2169 3878 1866 3472
Q 1563 3066 1563 2328
Q 1563 1578 1859 1179
Q 2156 781 2719 781
Q 3272 781 3575 1187
Q 3878 1594 3878 2328
Q 3878 3066 3575 3472
Q 3272 3878 2719 3878
z
" transform="scale(0.015625)"/>
      <path id="DejaVuSans-Bold-45" d="M 588 4666
L 3834 4666
L 3834 3756
L 1791 3756
L 1791 2888
L 3713 2888
L 3713 1978
L 1791 1978
L 1791 909
L 3903 909
L 3903 0
L 588 0
L 588 4666
z
" transform="scale(0.015625)"/>
      <path id="DejaVuSans-Bold-4d" d="M 588 4666
L 2119 4666
L 3181 2169
L 4250 4666
L 5778 4666
L 5778 0
L 4641 0
L 4641 3413
L 3566 897
L 2803 897
L 1728 3413
L 1728 0
L 588 0
L 588 4666
z
" transform="scale(0.015625)"/>
     </defs>
     <use xlink:href="#DejaVuSans-Bold-47"/>
     <use xlink:href="#DejaVuSans-Bold-75" transform="translate(82.080078 0)"/>
     <use xlink:href="#DejaVuSans-Bold-61" transform="translate(153.271484 0)"/>
     <use xlink:href="#DejaVuSans-Bold-72" transform="translate(220.751953 0)"/>
     <use xlink:href="#DejaVuSans-Bold-64" transform="translate(270.068359 0)"/>
     <use xlink:href="#DejaVuSans-Bold-65" transform="translate(341.650391 0)"/>
     <use xlink:href="#DejaVuSans-Bold-64" transform="translate(409.472656 0)"/>
     <use xlink:href="#DejaVuSans-Bold-20" transform="translate(481.054688 0)"/>
     <use xlink:href="#DejaVuSans-Bold-51" transform="translate(515.869141 0)"/>
     <use xlink:href="#DejaVuSans-Bold-45" transform="translate(600.878906 0)"/>
     <use xlink:href="#DejaVuSans-Bold-4d" transform="translate(669.189453 0)"/>
    </g>
   </g>
   <g id="text_4">
    <!-- quadrics + link condition -->
    <g style="fill: #666666" transform="translate(178.135594 95.570076) scale(0.083 -0.083)">
     <defs>
      <path id="DejaVuSans-71" d="M 947 1747
Q 947 1113 1208 752
Q 1469 391 1925 391
Q 2381 391 2643 752
Q 2906 1113 2906 1747
Q 2906 2381 2643 2742
Q 2381 3103 1925 3103
Q 1469 3103 1208 2742
Q 947 2381 947 1747
z
M 2906 525
Q 2725 213 2448 61
Q 2172 -91 1784 -91
Q 1150 -91 751 415
Q 353 922 353 1747
Q 353 2572 751 3078
Q 1150 3584 1784 3584
Q 2172 3584 2448 3432
Q 2725 3281 2906 2969
L 2906 3500
L 3481 3500
L 3481 -1331
L 2906 -1331
L 2906 525
z
" transform="scale(0.015625)"/>
      <path id="DejaVuSans-64" d="M 2906 2969
L 2906 4863
L 3481 4863
L 3481 0
L 2906 0
L 2906 525
Q 2725 213 2448 61
Q 2172 -91 1784 -91
Q 1150 -91 751 415
Q 353 922 353 1747
Q 353 2572 751 3078
Q 1150 3584 1784 3584
Q 2172 3584 2448 3432
Q 2725 3281 2906 2969
z
M 947 1747
Q 947 1113 1208 752
Q 1469 391 1925 391
Q 2381 391 2643 752
Q 2906 1113 2906 1747
Q 2906 2381 2643 2742
Q 2381 3103 1925 3103
Q 1469 3103 1208 2742
Q 947 2381 947 1747
z
" transform="scale(0.015625)"/>
      <path id="DejaVuSans-2b" d="M 2944 4013
L 2944 2272
L 4684 2272
L 4684 1741
L 2944 1741
L 2944 0
L 2419 0
L 2419 1741
L 678 1741
L 678 2272
L 2419 2272
L 2419 4013
L 2944 4013
z
" transform="scale(0.015625)"/>
      <path id="DejaVuSans-6c" d="M 603 4863
L 1178 4863
L 1178 0
L 603 0
L 603 4863
z
" transform="scale(0.015625)"/>
      <path id="DejaVuSans-6b" d="M 581 4863
L 1159 4863
L 1159 1991
L 2875 3500
L 3609 3500
L 1753 1863
L 3688 0
L 2938 0
L 1159 1709
L 1159 0
L 581 0
L 581 4863
z
" transform="scale(0.015625)"/>
      <path id="DejaVuSans-6f" d="M 1959 3097
Q 1497 3097 1228 2736
Q 959 2375 959 1747
Q 959 1119 1226 758
Q 1494 397 1959 397
Q 2419 397 2687 759
Q 2956 1122 2956 1747
Q 2956 2369 2687 2733
Q 2419 3097 1959 3097
z
M 1959 3584
Q 2709 3584 3137 3096
Q 3566 2609 3566 1747
Q 3566 888 3137 398
Q 2709 -91 1959 -91
Q 1206 -91 779 398
Q 353 888 353 1747
Q 353 2609 779 3096
Q 1206 3584 1959 3584
z
" transform="scale(0.015625)"/>
     </defs>
     <use xlink:href="#DejaVuSans-71"/>
     <use xlink:href="#DejaVuSans-75" transform="translate(63.476562 0)"/>
     <use xlink:href="#DejaVuSans-61" transform="translate(126.855469 0)"/>
     <use xlink:href="#DejaVuSans-64" transform="translate(188.134766 0)"/>
     <use xlink:href="#DejaVuSans-72" transform="translate(251.611328 0)"/>
     <use xlink:href="#DejaVuSans-69" transform="translate(292.724609 0)"/>
     <use xlink:href="#DejaVuSans-63" transform="translate(320.507812 0)"/>
     <use xlink:href="#DejaVuSans-73" transform="translate(375.488281 0)"/>
     <use xlink:href="#DejaVuSans-20" transform="translate(427.587891 0)"/>
     <use xlink:href="#DejaVuSans-2b" transform="translate(459.375 0)"/>
     <use xlink:href="#DejaVuSans-20" transform="translate(543.164062 0)"/>
     <use xlink:href="#DejaVuSans-6c" transform="translate(574.951172 0)"/>
     <use xlink:href="#DejaVuSans-69" transform="translate(602.734375 0)"/>
     <use xlink:href="#DejaVuSans-6e" transform="translate(630.517578 0)"/>
     <use xlink:href="#DejaVuSans-6b" transform="translate(693.896484 0)"/>
     <use xlink:href="#DejaVuSans-20" transform="translate(751.806641 0)"/>
     <use xlink:href="#DejaVuSans-63" transform="translate(783.59375 0)"/>
     <use xlink:href="#DejaVuSans-6f" transform="translate(838.574219 0)"/>
     <use xlink:href="#DejaVuSans-6e" transform="translate(899.755859 0)"/>
     <use xlink:href="#DejaVuSans-64" transform="translate(963.134766 0)"/>
     <use xlink:href="#DejaVuSans-69" transform="translate(1026.611328 0)"/>
     <use xlink:href="#DejaVuSans-74" transform="translate(1054.394531 0)"/>
     <use xlink:href="#DejaVuSans-69" transform="translate(1093.603516 0)"/>
     <use xlink:href="#DejaVuSans-6f" transform="translate(1121.386719 0)"/>
     <use xlink:href="#DejaVuSans-6e" transform="translate(1182.568359 0)"/>
    </g>
    <!-- cluster-radius bound -->
    <g style="fill: #666666" transform="translate(187.279859 104.23359) scale(0.083 -0.083)">
     <defs>
      <path id="DejaVuSans-2d" d="M 313 2009
L 1997 2009
L 1997 1497
L 313 1497
L 313 2009
z
" transform="scale(0.015625)"/>
      <path id="DejaVuSans-62" d="M 3116 1747
Q 3116 2381 2855 2742
Q 2594 3103 2138 3103
Q 1681 3103 1420 2742
Q 1159 2381 1159 1747
Q 1159 1113 1420 752
Q 1681 391 2138 391
Q 2594 391 2855 752
Q 3116 1113 3116 1747
z
M 1159 2969
Q 1341 3281 1617 3432
Q 1894 3584 2278 3584
Q 2916 3584 3314 3078
Q 3713 2572 3713 1747
Q 3713 922 3314 415
Q 2916 -91 2278 -91
Q 1894 -91 1617 61
Q 1341 213 1159 525
L 1159 0
L 581 0
L 581 4863
L 1159 4863
L 1159 2969
z
" transform="scale(0.015625)"/>
     </defs>
     <use xlink:href="#DejaVuSans-63"/>
     <use xlink:href="#DejaVuSans-6c" transform="translate(54.980469 0)"/>
     <use xlink:href="#DejaVuSans-75" transform="translate(82.763672 0)"/>
     <use xlink:href="#DejaVuSans-73" transform="translate(146.142578 0)"/>
     <use xlink:href="#DejaVuSans-74" transform="translate(198.242188 0)"/>
     <use xlink:href="#DejaVuSans-65" transform="translate(237.451172 0)"/>
     <use xlink:href="#DejaVuSans-72" transform="translate(298.974609 0)"/>
     <use xlink:href="#DejaVuSans-2d" transform="translate(333.712891 0)"/>
     <use xlink:href="#DejaVuSans-72" transform="translate(369.796875 0)"/>
     <use xlink:href="#DejaVuSans-61" transform="translate(410.910156 0)"/>
     <use xlink:href="#DejaVuSans-64" transform="translate(472.189453 0)"/>
     <use xlink:href="#DejaVuSans-69" transform="translate(535.666016 0)"/>
     <use xlink:href="#DejaVuSans-75" transform="translate(563.449219 0)"/>
     <use xlink:href="#DejaVuSans-73" transform="translate(626.828125 0)"/>
     <use xlink:href="#DejaVuSans-20" transform="translate(678.927734 0)"/>
     <use xlink:href="#DejaVuSans-62" transform="translate(710.714844 0)"/>
     <use xlink:href="#DejaVuSans-6f" transform="translate(774.191406 0)"/>
     <use xlink:href="#DejaVuSans-75" transform="translate(835.373047 0)"/>
     <use xlink:href="#DejaVuSans-6e" transform="translate(898.751953 0)"/>
     <use xlink:href="#DejaVuSans-64" transform="translate(962.130859 0)"/>
    </g>
   </g>
   <g id="text_5">
    <!-- Checkpoint -->
    <g style="fill: #17365d" transform="translate(354.868945 80.75008) scale(0.105 -0.105)">
     <defs>
      <path id="DejaVuSans-Bold-43" d="M 4288 256
Q 3956 84 3597 -3
Q 3238 -91 2847 -91
Q 1681 -91 1000 561
Q 319 1213 319 2328
Q 319 3447 1000 4098
Q 1681 4750 2847 4750
Q 3238 4750 3597 4662
Q 3956 4575 4288 4403
L 4288 3438
Q 3953 3666 3628 3772
Q 3303 3878 2944 3878
Q 2300 3878 1931 3465
Q 1563 3053 1563 2328
Q 1563 1606 1931 1193
Q 2300 781 2944 781
Q 3303 781 3628 887
Q 3953 994 4288 1222
L 4288 256
z
" transform="scale(0.015625)"/>
      <path id="DejaVuSans-Bold-63" d="M 3366 3391
L 3366 2478
Q 3138 2634 2908 2709
Q 2678 2784 2431 2784
Q 1963 2784 1702 2511
Q 1441 2238 1441 1747
Q 1441 1256 1702 982
Q 1963 709 2431 709
Q 2694 709 2930 787
Q 3166 866 3366 1019
L 3366 103
Q 3103 6 2833 -42
Q 2563 -91 2291 -91
Q 1344 -91 809 395
Q 275 881 275 1747
Q 275 2613 809 3098
Q 1344 3584 2291 3584
Q 2566 3584 2833 3536
Q 3100 3488 3366 3391
z
" transform="scale(0.015625)"/>
      <path id="DejaVuSans-Bold-6b" d="M 538 4863
L 1656 4863
L 1656 2216
L 2944 3500
L 4244 3500
L 2534 1894
L 4378 0
L 3022 0
L 1656 1459
L 1656 0
L 538 0
L 538 4863
z
" transform="scale(0.015625)"/>
      <path id="DejaVuSans-Bold-6f" d="M 2203 2784
Q 1831 2784 1636 2517
Q 1441 2250 1441 1747
Q 1441 1244 1636 976
Q 1831 709 2203 709
Q 2569 709 2762 976
Q 2956 1244 2956 1747
Q 2956 2250 2762 2517
Q 2569 2784 2203 2784
z
M 2203 3584
Q 3106 3584 3614 3096
Q 4122 2609 4122 1747
Q 4122 884 3614 396
Q 3106 -91 2203 -91
Q 1297 -91 786 396
Q 275 884 275 1747
Q 275 2609 786 3096
Q 1297 3584 2203 3584
z
" transform="scale(0.015625)"/>
      <path id="DejaVuSans-Bold-69" d="M 538 3500
L 1656 3500
L 1656 0
L 538 0
L 538 3500
z
M 538 4863
L 1656 4863
L 1656 3950
L 538 3950
L 538 4863
z
" transform="scale(0.015625)"/>
     </defs>
     <use xlink:href="#DejaVuSans-Bold-43"/>
     <use xlink:href="#DejaVuSans-Bold-68" transform="translate(73.388672 0)"/>
     <use xlink:href="#DejaVuSans-Bold-65" transform="translate(144.580078 0)"/>
     <use xlink:href="#DejaVuSans-Bold-63" transform="translate(212.402344 0)"/>
     <use xlink:href="#DejaVuSans-Bold-6b" transform="translate(271.679688 0)"/>
     <use xlink:href="#DejaVuSans-Bold-70" transform="translate(338.183594 0)"/>
     <use xlink:href="#DejaVuSans-Bold-6f" transform="translate(409.765625 0)"/>
     <use xlink:href="#DejaVuSans-Bold-69" transform="translate(478.466797 0)"/>
     <use xlink:href="#DejaVuSans-Bold-6e" transform="translate(512.744141 0)"/>
     <use xlink:href="#DejaVuSans-Bold-74" transform="translate(583.935547 0)"/>
    </g>
   </g>
   <g id="text_6">
    <!-- deterministic canonical -->
    <g style="fill: #666666" transform="translate(339.756883 95.570076) scale(0.083 -0.083)">
     <use xlink:href="#DejaVuSans-64"/>
     <use xlink:href="#DejaVuSans-65" transform="translate(63.476562 0)"/>
     <use xlink:href="#DejaVuSans-74" transform="translate(125 0)"/>
     <use xlink:href="#DejaVuSans-65" transform="translate(164.208984 0)"/>
     <use xlink:href="#DejaVuSans-72" transform="translate(225.732422 0)"/>
     <use xlink:href="#DejaVuSans-6d" transform="translate(265.095703 0)"/>
     <use xlink:href="#DejaVuSans-69" transform="translate(362.507812 0)"/>
     <use xlink:href="#DejaVuSans-6e" transform="translate(390.291016 0)"/>
     <use xlink:href="#DejaVuSans-69" transform="translate(453.669922 0)"/>
     <use xlink:href="#DejaVuSans-73" transform="translate(481.453125 0)"/>
     <use xlink:href="#DejaVuSans-74" transform="translate(533.552734 0)"/>
     <use xlink:href="#DejaVuSans-69" transform="translate(572.761719 0)"/>
     <use xlink:href="#DejaVuSans-63" transform="translate(600.544922 0)"/>
     <use xlink:href="#DejaVuSans-20" transform="translate(655.525391 0)"/>
     <use xlink:href="#DejaVuSans-63" transform="translate(687.3125 0)"/>
     <use xlink:href="#DejaVuSans-61" transform="translate(742.292969 0)"/>
     <use xlink:href="#DejaVuSans-6e" transform="translate(803.572266 0)"/>
     <use xlink:href="#DejaVuSans-6f" transform="translate(866.951172 0)"/>
     <use xlink:href="#DejaVuSans-6e" transform="translate(928.132812 0)"/>
     <use xlink:href="#DejaVuSans-69" transform="translate(991.511719 0)"/>
     <use xlink:href="#DejaVuSans-63" transform="translate(1019.294922 0)"/>
     <use xlink:href="#DejaVuSans-61" transform="translate(1074.275391 0)"/>
     <use xlink:href="#DejaVuSans-6c" transform="translate(1135.554688 0)"/>
    </g>
    <!-- mesh state -->
    <g style="fill: #666666" transform="translate(364.81575 104.23359) scale(0.083 -0.083)">
     <defs>
      <path id="DejaVuSans-68" d="M 3513 2113
L 3513 0
L 2938 0
L 2938 2094
Q 2938 2591 2744 2837
Q 2550 3084 2163 3084
Q 1697 3084 1428 2787
Q 1159 2491 1159 1978
L 1159 0
L 581 0
L 581 4863
L 1159 4863
L 1159 2956
Q 1366 3272 1645 3428
Q 1925 3584 2291 3584
Q 2894 3584 3203 3211
Q 3513 2838 3513 2113
z
" transform="scale(0.015625)"/>
     </defs>
     <use xlink:href="#DejaVuSans-6d"/>
     <use xlink:href="#DejaVuSans-65" transform="translate(97.412109 0)"/>
     <use xlink:href="#DejaVuSans-73" transform="translate(158.935547 0)"/>
     <use xlink:href="#DejaVuSans-68" transform="translate(211.035156 0)"/>
     <use xlink:href="#DejaVuSans-20" transform="translate(274.414062 0)"/>
     <use xlink:href="#DejaVuSans-73" transform="translate(306.201172 0)"/>
     <use xlink:href="#DejaVuSans-74" transform="translate(358.300781 0)"/>
     <use xlink:href="#DejaVuSans-61" transform="translate(397.509766 0)"/>
     <use xlink:href="#DejaVuSans-74" transform="translate(458.789062 0)"/>
     <use xlink:href="#DejaVuSans-65" transform="translate(497.998047 0)"/>
    </g>
   </g>
   <g id="text_7">
    <!-- Output -->
    <g style="fill: #548235" transform="translate(507.936469 80.75008) scale(0.105 -0.105)">
     <defs>
      <path id="DejaVuSans-Bold-4f" d="M 2719 3878
Q 2169 3878 1866 3472
Q 1563 3066 1563 2328
Q 1563 1594 1866 1187
Q 2169 781 2719 781
Q 3272 781 3575 1187
Q 3878 1594 3878 2328
Q 3878 3066 3575 3472
Q 3272 3878 2719 3878
z
M 2719 4750
Q 3844 4750 4481 4106
Q 5119 3463 5119 2328
Q 5119 1197 4481 553
Q 3844 -91 2719 -91
Q 1597 -91 958 553
Q 319 1197 319 2328
Q 319 3463 958 4106
Q 1597 4750 2719 4750
z
" transform="scale(0.015625)"/>
     </defs>
     <use xlink:href="#DejaVuSans-Bold-4f"/>
     <use xlink:href="#DejaVuSans-Bold-75" transform="translate(85.009766 0)"/>
     <use xlink:href="#DejaVuSans-Bold-74" transform="translate(156.201172 0)"/>
     <use xlink:href="#DejaVuSans-Bold-70" transform="translate(204.003906 0)"/>
     <use xlink:href="#DejaVuSans-Bold-75" transform="translate(275.585938 0)"/>
     <use xlink:href="#DejaVuSans-Bold-74" transform="translate(346.777344 0)"/>
    </g>
   </g>
   <g id="text_8">
    <!-- valid 2-manifold -->
    <g style="fill: #666666" transform="translate(495.09825 95.570076) scale(0.083 -0.083)">
     <defs>
      <path id="DejaVuSans-76" d="M 191 3500
L 800 3500
L 1894 563
L 2988 3500
L 3597 3500
L 2284 0
L 1503 0
L 191 3500
z
" transform="scale(0.015625)"/>
      <path id="DejaVuSans-32" d="M 1228 531
L 3431 531
L 3431 0
L 469 0
L 469 531
Q 828 903 1448 1529
Q 2069 2156 2228 2338
Q 2531 2678 2651 2914
Q 2772 3150 2772 3378
Q 2772 3750 2511 3984
Q 2250 4219 1831 4219
Q 1534 4219 1204 4116
Q 875 4013 500 3803
L 500 4441
Q 881 4594 1212 4672
Q 1544 4750 1819 4750
Q 2544 4750 2975 4387
Q 3406 4025 3406 3419
Q 3406 3131 3298 2873
Q 3191 2616 2906 2266
Q 2828 2175 2409 1742
Q 1991 1309 1228 531
z
" transform="scale(0.015625)"/>
      <path id="DejaVuSans-66" d="M 2375 4863
L 2375 4384
L 1825 4384
Q 1516 4384 1395 4259
Q 1275 4134 1275 3809
L 1275 3500
L 2222 3500
L 2222 3053
L 1275 3053
L 1275 0
L 697 0
L 697 3053
L 147 3053
L 147 3500
L 697 3500
L 697 3744
Q 697 4328 969 4595
Q 1241 4863 1831 4863
L 2375 4863
z
" transform="scale(0.015625)"/>
     </defs>
     <use xlink:href="#DejaVuSans-76"/>
     <use xlink:href="#DejaVuSans-61" transform="translate(59.179688 0)"/>
     <use xlink:href="#DejaVuSans-6c" transform="translate(120.458984 0)"/>
     <use xlink:href="#DejaVuSans-69" transform="translate(148.242188 0)"/>
     <use xlink:href="#DejaVuSans-64" transform="translate(176.025391 0)"/>
     <use xlink:href="#DejaVuSans-20" transform="translate(239.501953 0)"/>
     <use xlink:href="#DejaVuSans-32" transform="translate(271.289062 0)"/>
     <use xlink:href="#DejaVuSans-2d" transform="translate(334.912109 0)"/>
     <use xlink:href="#DejaVuSans-6d" transform="translate(370.996094 0)"/>
     <use xlink:href="#DejaVuSans-61" transform="translate(468.408203 0)"/>
     <use xlink:href="#DejaVuSans-6e" transform="translate(529.6875 0)"/>
     <use xlink:href="#DejaVuSans-69" transform="translate(593.066406 0)"/>
     <use xlink:href="#DejaVuSans-66" transform="translate(620.849609 0)"/>
     <use xlink:href="#DejaVuSans-6f" transform="translate(656.054688 0)"/>
     <use xlink:href="#DejaVuSans-6c" transform="translate(717.236328 0)"/>
     <use xlink:href="#DejaVuSans-64" transform="translate(745.019531 0)"/>
    </g>
    <!-- compact OBJ -->
    <g style="fill: #666666" transform="translate(502.043664 104.23359) scale(0.083 -0.083)">
     <defs>
      <path id="DejaVuSans-4f" d="M 2522 4238
Q 1834 4238 1429 3725
Q 1025 3213 1025 2328
Q 1025 1447 1429 934
Q 1834 422 2522 422
Q 3209 422 3611 934
Q 4013 1447 4013 2328
Q 4013 3213 3611 3725
Q 3209 4238 2522 4238
z
M 2522 4750
Q 3503 4750 4090 4092
Q 4678 3434 4678 2328
Q 4678 1225 4090 567
Q 3503 -91 2522 -91
Q 1538 -91 948 565
Q 359 1222 359 2328
Q 359 3434 948 4092
Q 1538 4750 2522 4750
z
" transform="scale(0.015625)"/>
      <path id="DejaVuSans-42" d="M 1259 2228
L 1259 519
L 2272 519
Q 2781 519 3026 730
Q 3272 941 3272 1375
Q 3272 1813 3026 2020
Q 2781 2228 2272 2228
L 1259 2228
z
M 1259 4147
L 1259 2741
L 2194 2741
Q 2656 2741 2882 2914
Q 3109 3088 3109 3444
Q 3109 3797 2882 3972
Q 2656 4147 2194 4147
L 1259 4147
z
M 628 4666
L 2241 4666
Q 2963 4666 3353 4366
Q 3744 4066 3744 3513
Q 3744 3084 3544 2831
Q 3344 2578 2956 2516
Q 3422 2416 3680 2098
Q 3938 1781 3938 1306
Q 3938 681 3513 340
Q 3088 0 2303 0
L 628 0
L 628 4666
z
" transform="scale(0.015625)"/>
      <path id="DejaVuSans-4a" d="M 628 4666
L 1259 4666
L 1259 325
Q 1259 -519 939 -900
Q 619 -1281 -91 -1281
L -331 -1281
L -331 -750
L -134 -750
Q 284 -750 456 -515
Q 628 -281 628 325
L 628 4666
z
" transform="scale(0.015625)"/>
     </defs>
     <use xlink:href="#DejaVuSans-63"/>
     <use xlink:href="#DejaVuSans-6f" transform="translate(54.980469 0)"/>
     <use xlink:href="#DejaVuSans-6d" transform="translate(116.162109 0)"/>
     <use xlink:href="#DejaVuSans-70" transform="translate(213.574219 0)"/>
     <use xlink:href="#DejaVuSans-61" transform="translate(277.050781 0)"/>
     <use xlink:href="#DejaVuSans-63" transform="translate(338.330078 0)"/>
     <use xlink:href="#DejaVuSans-74" transform="translate(393.310547 0)"/>
     <use xlink:href="#DejaVuSans-20" transform="translate(432.519531 0)"/>
     <use xlink:href="#DejaVuSans-4f" transform="translate(464.306641 0)"/>
     <use xlink:href="#DejaVuSans-42" transform="translate(543.017578 0)"/>
     <use xlink:href="#DejaVuSans-4a" transform="translate(611.621094 0)"/>
    </g>
   </g>
   <g id="text_9">
    <!-- Perceptual surrogate -->
    <g style="fill: #c65911" transform="translate(120.106172 202.734722) scale(0.105 -0.105)">
     <defs>
      <path id="DejaVuSans-Bold-50" d="M 588 4666
L 2584 4666
Q 3475 4666 3951 4270
Q 4428 3875 4428 3144
Q 4428 2409 3951 2014
Q 3475 1619 2584 1619
L 1791 1619
L 1791 0
L 588 0
L 588 4666
z
M 1791 3794
L 1791 2491
L 2456 2491
Q 2806 2491 2997 2661
Q 3188 2831 3188 3144
Q 3188 3456 2997 3625
Q 2806 3794 2456 3794
L 1791 3794
z
" transform="scale(0.015625)"/>
      <path id="DejaVuSans-Bold-6c" d="M 538 4863
L 1656 4863
L 1656 0
L 538 0
L 538 4863
z
" transform="scale(0.015625)"/>
      <path id="DejaVuSans-Bold-67" d="M 2919 594
Q 2688 288 2409 144
Q 2131 0 1766 0
Q 1125 0 706 504
Q 288 1009 288 1791
Q 288 2575 706 3076
Q 1125 3578 1766 3578
Q 2131 3578 2409 3434
Q 2688 3291 2919 2981
L 2919 3500
L 4044 3500
L 4044 353
Q 4044 -491 3511 -936
Q 2978 -1381 1966 -1381
Q 1638 -1381 1331 -1331
Q 1025 -1281 716 -1178
L 716 -306
Q 1009 -475 1290 -558
Q 1572 -641 1856 -641
Q 2406 -641 2662 -400
Q 2919 -159 2919 353
L 2919 594
z
M 2181 2772
Q 1834 2772 1640 2515
Q 1447 2259 1447 1791
Q 1447 1309 1634 1061
Q 1822 813 2181 813
Q 2531 813 2725 1069
Q 2919 1325 2919 1791
Q 2919 2259 2725 2515
Q 2531 2772 2181 2772
z
" transform="scale(0.015625)"/>
     </defs>
     <use xlink:href="#DejaVuSans-Bold-50"/>
     <use xlink:href="#DejaVuSans-Bold-65" transform="translate(73.291016 0)"/>
     <use xlink:href="#DejaVuSans-Bold-72" transform="translate(141.113281 0)"/>
     <use xlink:href="#DejaVuSans-Bold-63" transform="translate(190.429688 0)"/>
     <use xlink:href="#DejaVuSans-Bold-65" transform="translate(249.707031 0)"/>
     <use xlink:href="#DejaVuSans-Bold-70" transform="translate(317.529297 0)"/>
     <use xlink:href="#DejaVuSans-Bold-74" transform="translate(389.111328 0)"/>
     <use xlink:href="#DejaVuSans-Bold-75" transform="translate(436.914062 0)"/>
     <use xlink:href="#DejaVuSans-Bold-61" transform="translate(508.105469 0)"/>
     <use xlink:href="#DejaVuSans-Bold-6c" transform="translate(575.585938 0)"/>
     <use xlink:href="#DejaVuSans-Bold-20" transform="translate(609.863281 0)"/>
     <use xlink:href="#DejaVuSans-Bold-73" transform="translate(644.677734 0)"/>
     <use xlink:href="#DejaVuSans-Bold-75" transform="translate(704.199219 0)"/>
     <use xlink:href="#DejaVuSans-Bold-72" transform="translate(775.390625 0)"/>
     <use xlink:href="#DejaVuSans-Bold-72" transform="translate(824.707031 0)"/>
     <use xlink:href="#DejaVuSans-Bold-6f" transform="translate(874.023438 0)"/>
     <use xlink:href="#DejaVuSans-Bold-67" transform="translate(942.724609 0)"/>
     <use xlink:href="#DejaVuSans-Bold-61" transform="translate(1014.306641 0)"/>
     <use xlink:href="#DejaVuSans-Bold-74" transform="translate(1081.787109 0)"/>
     <use xlink:href="#DejaVuSans-Bold-65" transform="translate(1129.589844 0)"/>
    </g>
   </g>
   <g id="text_10">
    <!-- projected-area normal cost -->
    <g style="fill: #666666" transform="translate(126.84125 219.571615) scale(0.083 -0.083)">
     <defs>
      <path id="DejaVuSans-6a" d="M 603 3500
L 1178 3500
L 1178 -63
Q 1178 -731 923 -1031
Q 669 -1331 103 -1331
L -116 -1331
L -116 -844
L 38 -844
Q 366 -844 484 -692
Q 603 -541 603 -63
L 603 3500
z
M 603 4863
L 1178 4863
L 1178 4134
L 603 4134
L 603 4863
z
" transform="scale(0.015625)"/>
     </defs>
     <use xlink:href="#DejaVuSans-70"/>
     <use xlink:href="#DejaVuSans-72" transform="translate(63.476562 0)"/>
     <use xlink:href="#DejaVuSans-6f" transform="translate(102.339844 0)"/>
     <use xlink:href="#DejaVuSans-6a" transform="translate(163.521484 0)"/>
     <use xlink:href="#DejaVuSans-65" transform="translate(191.304688 0)"/>
     <use xlink:href="#DejaVuSans-63" transform="translate(252.828125 0)"/>
     <use xlink:href="#DejaVuSans-74" transform="translate(307.808594 0)"/>
     <use xlink:href="#DejaVuSans-65" transform="translate(347.017578 0)"/>
     <use xlink:href="#DejaVuSans-64" transform="translate(408.541016 0)"/>
     <use xlink:href="#DejaVuSans-2d" transform="translate(472.017578 0)"/>
     <use xlink:href="#DejaVuSans-61" transform="translate(508.101562 0)"/>
     <use xlink:href="#DejaVuSans-72" transform="translate(569.380859 0)"/>
     <use xlink:href="#DejaVuSans-65" transform="translate(608.244141 0)"/>
     <use xlink:href="#DejaVuSans-61" transform="translate(669.767578 0)"/>
     <use xlink:href="#DejaVuSans-20" transform="translate(731.046875 0)"/>
     <use xlink:href="#DejaVuSans-6e" transform="translate(762.833984 0)"/>
     <use xlink:href="#DejaVuSans-6f" transform="translate(826.212891 0)"/>
     <use xlink:href="#DejaVuSans-72" transform="translate(887.394531 0)"/>
     <use xlink:href="#DejaVuSans-6d" transform="translate(926.757812 0)"/>
     <use xlink:href="#DejaVuSans-61" transform="translate(1024.169922 0)"/>
     <use xlink:href="#DejaVuSans-6c" transform="translate(1085.449219 0)"/>
     <use xlink:href="#DejaVuSans-20" transform="translate(1113.232422 0)"/>
     <use xlink:href="#DejaVuSans-63" transform="translate(1145.019531 0)"/>
     <use xlink:href="#DejaVuSans-6f" transform="translate(1200 0)"/>
     <use xlink:href="#DejaVuSans-73" transform="translate(1261.181641 0)"/>
     <use xlink:href="#DejaVuSans-74" transform="translate(1313.28125 0)"/>
    </g>
    <!-- cluster-normal memory -->
    <g style="fill: #666666" transform="translate(134.424078 228.235129) scale(0.083 -0.083)">
     <defs>
      <path id="DejaVuSans-79" d="M 2059 -325
Q 1816 -950 1584 -1140
Q 1353 -1331 966 -1331
L 506 -1331
L 506 -850
L 844 -850
Q 1081 -850 1212 -737
Q 1344 -625 1503 -206
L 1606 56
L 191 3500
L 800 3500
L 1894 763
L 2988 3500
L 3597 3500
L 2059 -325
z
" transform="scale(0.015625)"/>
     </defs>
     <use xlink:href="#DejaVuSans-63"/>
     <use xlink:href="#DejaVuSans-6c" transform="translate(54.980469 0)"/>
     <use xlink:href="#DejaVuSans-75" transform="translate(82.763672 0)"/>
     <use xlink:href="#DejaVuSans-73" transform="translate(146.142578 0)"/>
     <use xlink:href="#DejaVuSans-74" transform="translate(198.242188 0)"/>
     <use xlink:href="#DejaVuSans-65" transform="translate(237.451172 0)"/>
     <use xlink:href="#DejaVuSans-72" transform="translate(298.974609 0)"/>
     <use xlink:href="#DejaVuSans-2d" transform="translate(333.712891 0)"/>
     <use xlink:href="#DejaVuSans-6e" transform="translate(369.796875 0)"/>
     <use xlink:href="#DejaVuSans-6f" transform="translate(433.175781 0)"/>
     <use xlink:href="#DejaVuSans-72" transform="translate(494.357422 0)"/>
     <use xlink:href="#DejaVuSans-6d" transform="translate(533.720703 0)"/>
     <use xlink:href="#DejaVuSans-61" transform="translate(631.132812 0)"/>
     <use xlink:href="#DejaVuSans-6c" transform="translate(692.412109 0)"/>
     <use xlink:href="#DejaVuSans-20" transform="translate(720.195312 0)"/>
     <use xlink:href="#DejaVuSans-6d" transform="translate(751.982422 0)"/>
     <use xlink:href="#DejaVuSans-65" transform="translate(849.394531 0)"/>
     <use xlink:href="#DejaVuSans-6d" transform="translate(910.917969 0)"/>
     <use xlink:href="#DejaVuSans-6f" transform="translate(1008.330078 0)"/>
     <use xlink:href="#DejaVuSans-72" transform="translate(1069.511719 0)"/>
     <use xlink:href="#DejaVuSans-79" transform="translate(1110.625 0)"/>
    </g>
   </g>
   <g id="text_11">
    <!-- Renderer-aware search -->
    <g style="fill: #c65911" transform="translate(272.004914 202.775737) scale(0.105 -0.105)">
     <defs>
      <path id="DejaVuSans-Bold-52" d="M 2297 2597
Q 2675 2597 2839 2737
Q 3003 2878 3003 3200
Q 3003 3519 2839 3656
Q 2675 3794 2297 3794
L 1791 3794
L 1791 2597
L 2297 2597
z
M 1791 1766
L 1791 0
L 588 0
L 588 4666
L 2425 4666
Q 3347 4666 3776 4356
Q 4206 4047 4206 3378
Q 4206 2916 3982 2619
Q 3759 2322 3309 2181
Q 3556 2125 3751 1926
Q 3947 1728 4147 1325
L 4800 0
L 3519 0
L 2950 1159
Q 2778 1509 2601 1637
Q 2425 1766 2131 1766
L 1791 1766
z
" transform="scale(0.015625)"/>
      <path id="DejaVuSans-Bold-2d" d="M 347 2297
L 2309 2297
L 2309 1388
L 347 1388
L 347 2297
z
" transform="scale(0.015625)"/>
      <path id="DejaVuSans-Bold-77" d="M 225 3500
L 1313 3500
L 1900 1088
L 2491 3500
L 3425 3500
L 4013 1113
L 4603 3500
L 5691 3500
L 4769 0
L 3547 0
L 2956 2406
L 2369 0
L 1147 0
L 225 3500
z
" transform="scale(0.015625)"/>
     </defs>
     <use xlink:href="#DejaVuSans-Bold-52"/>
     <use xlink:href="#DejaVuSans-Bold-65" transform="translate(77.001953 0)"/>
     <use xlink:href="#DejaVuSans-Bold-6e" transform="translate(144.824219 0)"/>
     <use xlink:href="#DejaVuSans-Bold-64" transform="translate(216.015625 0)"/>
     <use xlink:href="#DejaVuSans-Bold-65" transform="translate(287.597656 0)"/>
     <use xlink:href="#DejaVuSans-Bold-72" transform="translate(355.419922 0)"/>
     <use xlink:href="#DejaVuSans-Bold-65" transform="translate(404.736328 0)"/>
     <use xlink:href="#DejaVuSans-Bold-72" transform="translate(472.558594 0)"/>
     <use xlink:href="#DejaVuSans-Bold-2d" transform="translate(521.875 0)"/>
     <use xlink:href="#DejaVuSans-Bold-61" transform="translate(563.378906 0)"/>
     <use xlink:href="#DejaVuSans-Bold-77" transform="translate(630.859375 0)"/>
     <use xlink:href="#DejaVuSans-Bold-61" transform="translate(723.242188 0)"/>
     <use xlink:href="#DejaVuSans-Bold-72" transform="translate(790.722656 0)"/>
     <use xlink:href="#DejaVuSans-Bold-65" transform="translate(840.039062 0)"/>
     <use xlink:href="#DejaVuSans-Bold-20" transform="translate(907.861328 0)"/>
     <use xlink:href="#DejaVuSans-Bold-73" transform="translate(942.675781 0)"/>
     <use xlink:href="#DejaVuSans-Bold-65" transform="translate(1002.197266 0)"/>
     <use xlink:href="#DejaVuSans-Bold-61" transform="translate(1070.019531 0)"/>
     <use xlink:href="#DejaVuSans-Bold-72" transform="translate(1137.5 0)"/>
     <use xlink:href="#DejaVuSans-Bold-63" transform="translate(1186.816406 0)"/>
     <use xlink:href="#DejaVuSans-Bold-68" transform="translate(1246.09375 0)"/>
    </g>
   </g>
   <g id="text_12">
    <!-- edge flips + fan deletion -->
    <g style="fill: #666666" transform="translate(289.992203 219.571615) scale(0.083 -0.083)">
     <use xlink:href="#DejaVuSans-65"/>
     <use xlink:href="#DejaVuSans-64" transform="translate(61.523438 0)"/>
     <use xlink:href="#DejaVuSans-67" transform="translate(125 0)"/>
     <use xlink:href="#DejaVuSans-65" transform="translate(188.476562 0)"/>
     <use xlink:href="#DejaVuSans-20" transform="translate(250 0)"/>
     <use xlink:href="#DejaVuSans-66" transform="translate(281.787109 0)"/>
     <use xlink:href="#DejaVuSans-6c" transform="translate(316.992188 0)"/>
     <use xlink:href="#DejaVuSans-69" transform="translate(344.775391 0)"/>
     <use xlink:href="#DejaVuSans-70" transform="translate(372.558594 0)"/>
     <use xlink:href="#DejaVuSans-73" transform="translate(436.035156 0)"/>
     <use xlink:href="#DejaVuSans-20" transform="translate(488.134766 0)"/>
     <use xlink:href="#DejaVuSans-2b" transform="translate(519.921875 0)"/>
     <use xlink:href="#DejaVuSans-20" transform="translate(603.710938 0)"/>
     <use xlink:href="#DejaVuSans-66" transform="translate(635.498047 0)"/>
     <use xlink:href="#DejaVuSans-61" transform="translate(670.703125 0)"/>
     <use xlink:href="#DejaVuSans-6e" transform="translate(731.982422 0)"/>
     <use xlink:href="#DejaVuSans-20" transform="translate(795.361328 0)"/>
     <use xlink:href="#DejaVuSans-64" transform="translate(827.148438 0)"/>
     <use xlink:href="#DejaVuSans-65" transform="translate(890.625 0)"/>
     <use xlink:href="#DejaVuSans-6c" transform="translate(952.148438 0)"/>
     <use xlink:href="#DejaVuSans-65" transform="translate(979.931641 0)"/>
     <use xlink:href="#DejaVuSans-74" transform="translate(1041.455078 0)"/>
     <use xlink:href="#DejaVuSans-69" transform="translate(1080.664062 0)"/>
     <use xlink:href="#DejaVuSans-6f" transform="translate(1108.447266 0)"/>
     <use xlink:href="#DejaVuSans-6e" transform="translate(1169.628906 0)"/>
    </g>
    <!-- coordinate fitting -->
    <g style="fill: #666666" transform="translate(305.423719 228.235129) scale(0.083 -0.083)">
     <use xlink:href="#DejaVuSans-63"/>
     <use xlink:href="#DejaVuSans-6f" transform="translate(54.980469 0)"/>
     <use xlink:href="#DejaVuSans-6f" transform="translate(116.162109 0)"/>
     <use xlink:href="#DejaVuSans-72" transform="translate(177.34375 0)"/>
     <use xlink:href="#DejaVuSans-64" transform="translate(216.707031 0)"/>
     <use xlink:href="#DejaVuSans-69" transform="translate(280.183594 0)"/>
     <use xlink:href="#DejaVuSans-6e" transform="translate(307.966797 0)"/>
     <use xlink:href="#DejaVuSans-61" transform="translate(371.345703 0)"/>
     <use xlink:href="#DejaVuSans-74" transform="translate(432.625 0)"/>
     <use xlink:href="#DejaVuSans-65" transform="translate(471.833984 0)"/>
     <use xlink:href="#DejaVuSans-20" transform="translate(533.357422 0)"/>
     <use xlink:href="#DejaVuSans-66" transform="translate(565.144531 0)"/>
     <use xlink:href="#DejaVuSans-69" transform="translate(600.349609 0)"/>
     <use xlink:href="#DejaVuSans-74" transform="translate(628.132812 0)"/>
     <use xlink:href="#DejaVuSans-74" transform="translate(667.341797 0)"/>
     <use xlink:href="#DejaVuSans-69" transform="translate(706.550781 0)"/>
     <use xlink:href="#DejaVuSans-6e" transform="translate(734.333984 0)"/>
     <use xlink:href="#DejaVuSans-67" transform="translate(797.712891 0)"/>
    </g>
   </g>
   <g id="text_13">
    <!-- Validation funnel -->
    <g style="fill: #548235" transform="translate(448.800961 202.775737) scale(0.105 -0.105)">
     <defs>
      <path id="DejaVuSans-Bold-56" d="M 31 4666
L 1241 4666
L 2478 1222
L 3713 4666
L 4922 4666
L 3194 0
L 1759 0
L 31 4666
z
" transform="scale(0.015625)"/>
      <path id="DejaVuSans-Bold-66" d="M 2841 4863
L 2841 4128
L 2222 4128
Q 1984 4128 1890 4042
Q 1797 3956 1797 3744
L 1797 3500
L 2753 3500
L 2753 2700
L 1797 2700
L 1797 0
L 678 0
L 678 2700
L 122 2700
L 122 3500
L 678 3500
L 678 3744
Q 678 4316 997 4589
Q 1316 4863 1984 4863
L 2841 4863
z
" transform="scale(0.015625)"/>
     </defs>
     <use xlink:href="#DejaVuSans-Bold-56"/>
     <use xlink:href="#DejaVuSans-Bold-61" transform="translate(71.892578 0)"/>
     <use xlink:href="#DejaVuSans-Bold-6c" transform="translate(139.373047 0)"/>
     <use xlink:href="#DejaVuSans-Bold-69" transform="translate(173.650391 0)"/>
     <use xlink:href="#DejaVuSans-Bold-64" transform="translate(207.927734 0)"/>
     <use xlink:href="#DejaVuSans-Bold-61" transform="translate(279.509766 0)"/>
     <use xlink:href="#DejaVuSans-Bold-74" transform="translate(346.990234 0)"/>
     <use xlink:href="#DejaVuSans-Bold-69" transform="translate(394.792969 0)"/>
     <use xlink:href="#DejaVuSans-Bold-6f" transform="translate(429.070312 0)"/>
     <use xlink:href="#DejaVuSans-Bold-6e" transform="translate(497.771484 0)"/>
     <use xlink:href="#DejaVuSans-Bold-20" transform="translate(568.962891 0)"/>
     <use xlink:href="#DejaVuSans-Bold-66" transform="translate(603.777344 0)"/>
     <use xlink:href="#DejaVuSans-Bold-75" transform="translate(647.283203 0)"/>
     <use xlink:href="#DejaVuSans-Bold-6e" transform="translate(718.474609 0)"/>
     <use xlink:href="#DejaVuSans-Bold-6e" transform="translate(789.666016 0)"/>
     <use xlink:href="#DejaVuSans-Bold-65" transform="translate(860.857422 0)"/>
     <use xlink:href="#DejaVuSans-Bold-6c" transform="translate(928.679688 0)"/>
    </g>
   </g>
   <g id="text_14">
    <!-- topology → Hausdorff -->
    <g style="fill: #666666" transform="translate(454.85957 219.571615) scale(0.083 -0.083)">
     <defs>
      <path id="DejaVuSans-2192" d="M 5050 2147
L 5050 1866
L 3822 638
L 3447 1013
L 4175 1741
L 366 1741
L 366 2272
L 4175 2272
L 3447 3000
L 3822 3375
L 5050 2147
z
" transform="scale(0.015625)"/>
      <path id="DejaVuSans-48" d="M 628 4666
L 1259 4666
L 1259 2753
L 3553 2753
L 3553 4666
L 4184 4666
L 4184 0
L 3553 0
L 3553 2222
L 1259 2222
L 1259 0
L 628 0
L 628 4666
z
" transform="scale(0.015625)"/>
     </defs>
     <use xlink:href="#DejaVuSans-74"/>
     <use xlink:href="#DejaVuSans-6f" transform="translate(39.208984 0)"/>
     <use xlink:href="#DejaVuSans-70" transform="translate(100.390625 0)"/>
     <use xlink:href="#DejaVuSans-6f" transform="translate(163.867188 0)"/>
     <use xlink:href="#DejaVuSans-6c" transform="translate(225.048828 0)"/>
     <use xlink:href="#DejaVuSans-6f" transform="translate(252.832031 0)"/>
     <use xlink:href="#DejaVuSans-67" transform="translate(314.013672 0)"/>
     <use xlink:href="#DejaVuSans-79" transform="translate(377.490234 0)"/>
     <use xlink:href="#DejaVuSans-20" transform="translate(436.669922 0)"/>
     <use xlink:href="#DejaVuSans-2192" transform="translate(468.457031 0)"/>
     <use xlink:href="#DejaVuSans-20" transform="translate(552.246094 0)"/>
     <use xlink:href="#DejaVuSans-48" transform="translate(584.033203 0)"/>
     <use xlink:href="#DejaVuSans-61" transform="translate(659.228516 0)"/>
     <use xlink:href="#DejaVuSans-75" transform="translate(720.507812 0)"/>
     <use xlink:href="#DejaVuSans-73" transform="translate(783.886719 0)"/>
     <use xlink:href="#DejaVuSans-64" transform="translate(835.986328 0)"/>
     <use xlink:href="#DejaVuSans-6f" transform="translate(899.462891 0)"/>
     <use xlink:href="#DejaVuSans-72" transform="translate(960.644531 0)"/>
     <use xlink:href="#DejaVuSans-66" transform="translate(1001.757812 0)"/>
     <use xlink:href="#DejaVuSans-66" transform="translate(1036.962891 0)"/>
    </g>
    <!-- 1024² six-view SSIM -->
    <g style="fill: #666666" transform="translate(457.70232 228.235129) scale(0.083 -0.083)">
     <defs>
      <path id="DejaVuSans-31" d="M 794 531
L 1825 531
L 1825 4091
L 703 3866
L 703 4441
L 1819 4666
L 2450 4666
L 2450 531
L 3481 531
L 3481 0
L 794 0
L 794 531
z
" transform="scale(0.015625)"/>
      <path id="DejaVuSans-30" d="M 2034 4250
Q 1547 4250 1301 3770
Q 1056 3291 1056 2328
Q 1056 1369 1301 889
Q 1547 409 2034 409
Q 2525 409 2770 889
Q 3016 1369 3016 2328
Q 3016 3291 2770 3770
Q 2525 4250 2034 4250
z
M 2034 4750
Q 2819 4750 3233 4129
Q 3647 3509 3647 2328
Q 3647 1150 3233 529
Q 2819 -91 2034 -91
Q 1250 -91 836 529
Q 422 1150 422 2328
Q 422 3509 836 4129
Q 1250 4750 2034 4750
z
" transform="scale(0.015625)"/>
      <path id="DejaVuSans-34" d="M 2419 4116
L 825 1625
L 2419 1625
L 2419 4116
z
M 2253 4666
L 3047 4666
L 3047 1625
L 3713 1625
L 3713 1100
L 3047 1100
L 3047 0
L 2419 0
L 2419 1100
L 313 1100
L 313 1709
L 2253 4666
z
" transform="scale(0.015625)"/>
      <path id="DejaVuSans-b2" d="M 838 2444
L 2163 2444
L 2163 2088
L 294 2088
L 294 2431
Q 400 2528 597 2703
Q 1672 3656 1672 3950
Q 1672 4156 1509 4282
Q 1347 4409 1081 4409
Q 919 4409 728 4354
Q 538 4300 313 4191
L 313 4575
Q 553 4663 761 4706
Q 969 4750 1147 4750
Q 1600 4750 1872 4544
Q 2144 4338 2144 4000
Q 2144 3566 1109 2678
Q 934 2528 838 2444
z
" transform="scale(0.015625)"/>
      <path id="DejaVuSans-78" d="M 3513 3500
L 2247 1797
L 3578 0
L 2900 0
L 1881 1375
L 863 0
L 184 0
L 1544 1831
L 300 3500
L 978 3500
L 1906 2253
L 2834 3500
L 3513 3500
z
" transform="scale(0.015625)"/>
      <path id="DejaVuSans-77" d="M 269 3500
L 844 3500
L 1563 769
L 2278 3500
L 2956 3500
L 3675 769
L 4391 3500
L 4966 3500
L 4050 0
L 3372 0
L 2619 2869
L 1863 0
L 1184 0
L 269 3500
z
" transform="scale(0.015625)"/>
      <path id="DejaVuSans-53" d="M 3425 4513
L 3425 3897
Q 3066 4069 2747 4153
Q 2428 4238 2131 4238
Q 1616 4238 1336 4038
Q 1056 3838 1056 3469
Q 1056 3159 1242 3001
Q 1428 2844 1947 2747
L 2328 2669
Q 3034 2534 3370 2195
Q 3706 1856 3706 1288
Q 3706 609 3251 259
Q 2797 -91 1919 -91
Q 1588 -91 1214 -16
Q 841 59 441 206
L 441 856
Q 825 641 1194 531
Q 1563 422 1919 422
Q 2459 422 2753 634
Q 3047 847 3047 1241
Q 3047 1584 2836 1778
Q 2625 1972 2144 2069
L 1759 2144
Q 1053 2284 737 2584
Q 422 2884 422 3419
Q 422 4038 858 4394
Q 1294 4750 2059 4750
Q 2388 4750 2728 4690
Q 3069 4631 3425 4513
z
" transform="scale(0.015625)"/>
      <path id="DejaVuSans-49" d="M 628 4666
L 1259 4666
L 1259 0
L 628 0
L 628 4666
z
" transform="scale(0.015625)"/>
      <path id="DejaVuSans-4d" d="M 628 4666
L 1569 4666
L 2759 1491
L 3956 4666
L 4897 4666
L 4897 0
L 4281 0
L 4281 4097
L 3078 897
L 2444 897
L 1241 4097
L 1241 0
L 628 0
L 628 4666
z
" transform="scale(0.015625)"/>
     </defs>
     <use xlink:href="#DejaVuSans-31"/>
     <use xlink:href="#DejaVuSans-30" transform="translate(63.623047 0)"/>
     <use xlink:href="#DejaVuSans-32" transform="translate(127.246094 0)"/>
     <use xlink:href="#DejaVuSans-34" transform="translate(190.869141 0)"/>
     <use xlink:href="#DejaVuSans-b2" transform="translate(254.492188 0)"/>
     <use xlink:href="#DejaVuSans-20" transform="translate(294.580078 0)"/>
     <use xlink:href="#DejaVuSans-73" transform="translate(326.367188 0)"/>
     <use xlink:href="#DejaVuSans-69" transform="translate(378.466797 0)"/>
     <use xlink:href="#DejaVuSans-78" transform="translate(406.25 0)"/>
     <use xlink:href="#DejaVuSans-2d" transform="translate(465.429688 0)"/>
     <use xlink:href="#DejaVuSans-76" transform="translate(498.888672 0)"/>
     <use xlink:href="#DejaVuSans-69" transform="translate(558.068359 0)"/>
     <use xlink:href="#DejaVuSans-65" transform="translate(585.851562 0)"/>
     <use xlink:href="#DejaVuSans-77" transform="translate(647.375 0)"/>
     <use xlink:href="#DejaVuSans-20" transform="translate(729.162109 0)"/>
     <use xlink:href="#DejaVuSans-53" transform="translate(760.949219 0)"/>
     <use xlink:href="#DejaVuSans-53" transform="translate(824.425781 0)"/>
     <use xlink:href="#DejaVuSans-49" transform="translate(887.902344 0)"/>
     <use xlink:href="#DejaVuSans-4d" transform="translate(917.394531 0)"/>
    </g>
   </g>
   <g id="text_15">
    <!-- Hybrid online simplification and offline renderer-guided replay -->
    <g style="fill: #17365d" transform="translate(51.900469 25.16256) scale(0.14 -0.14)">
     <defs>
      <path id="DejaVuSans-Bold-48" d="M 588 4666
L 1791 4666
L 1791 2888
L 3566 2888
L 3566 4666
L 4769 4666
L 4769 0
L 3566 0
L 3566 1978
L 1791 1978
L 1791 0
L 588 0
L 588 4666
z
" transform="scale(0.015625)"/>
      <path id="DejaVuSans-Bold-79" d="M 78 3500
L 1197 3500
L 2138 1125
L 2938 3500
L 4056 3500
L 2584 -331
Q 2363 -916 2067 -1148
Q 1772 -1381 1288 -1381
L 641 -1381
L 641 -647
L 991 -647
Q 1275 -647 1404 -556
Q 1534 -466 1606 -231
L 1638 -134
L 78 3500
z
" transform="scale(0.015625)"/>
      <path id="DejaVuSans-Bold-62" d="M 2400 722
Q 2759 722 2948 984
Q 3138 1247 3138 1747
Q 3138 2247 2948 2509
Q 2759 2772 2400 2772
Q 2041 2772 1848 2508
Q 1656 2244 1656 1747
Q 1656 1250 1848 986
Q 2041 722 2400 722
z
M 1656 2988
Q 1888 3294 2169 3439
Q 2450 3584 2816 3584
Q 3463 3584 3878 3070
Q 4294 2556 4294 1747
Q 4294 938 3878 423
Q 3463 -91 2816 -91
Q 2450 -91 2169 54
Q 1888 200 1656 506
L 1656 0
L 538 0
L 538 4863
L 1656 4863
L 1656 2988
z
" transform="scale(0.015625)"/>
     </defs>
     <use xlink:href="#DejaVuSans-Bold-48"/>
     <use xlink:href="#DejaVuSans-Bold-79" transform="translate(83.691406 0)"/>
     <use xlink:href="#DejaVuSans-Bold-62" transform="translate(148.876953 0)"/>
     <use xlink:href="#DejaVuSans-Bold-72" transform="translate(220.458984 0)"/>
     <use xlink:href="#DejaVuSans-Bold-69" transform="translate(269.775391 0)"/>
     <use xlink:href="#DejaVuSans-Bold-64" transform="translate(304.052734 0)"/>
     <use xlink:href="#DejaVuSans-Bold-20" transform="translate(375.634766 0)"/>
     <use xlink:href="#DejaVuSans-Bold-6f" transform="translate(410.449219 0)"/>
     <use xlink:href="#DejaVuSans-Bold-6e" transform="translate(479.150391 0)"/>
     <use xlink:href="#DejaVuSans-Bold-6c" transform="translate(550.341797 0)"/>
     <use xlink:href="#DejaVuSans-Bold-69" transform="translate(584.619141 0)"/>
     <use xlink:href="#DejaVuSans-Bold-6e" transform="translate(618.896484 0)"/>
     <use xlink:href="#DejaVuSans-Bold-65" transform="translate(690.087891 0)"/>
     <use xlink:href="#DejaVuSans-Bold-20" transform="translate(757.910156 0)"/>
     <use xlink:href="#DejaVuSans-Bold-73" transform="translate(792.724609 0)"/>
     <use xlink:href="#DejaVuSans-Bold-69" transform="translate(852.246094 0)"/>
     <use xlink:href="#DejaVuSans-Bold-6d" transform="translate(886.523438 0)"/>
     <use xlink:href="#DejaVuSans-Bold-70" transform="translate(990.722656 0)"/>
     <use xlink:href="#DejaVuSans-Bold-6c" transform="translate(1062.304688 0)"/>
     <use xlink:href="#DejaVuSans-Bold-69" transform="translate(1096.582031 0)"/>
     <use xlink:href="#DejaVuSans-Bold-66" transform="translate(1130.859375 0)"/>
     <use xlink:href="#DejaVuSans-Bold-69" transform="translate(1174.365234 0)"/>
     <use xlink:href="#DejaVuSans-Bold-63" transform="translate(1208.642578 0)"/>
     <use xlink:href="#DejaVuSans-Bold-61" transform="translate(1267.919922 0)"/>
     <use xlink:href="#DejaVuSans-Bold-74" transform="translate(1335.400391 0)"/>
     <use xlink:href="#DejaVuSans-Bold-69" transform="translate(1383.203125 0)"/>
     <use xlink:href="#DejaVuSans-Bold-6f" transform="translate(1417.480469 0)"/>
     <use xlink:href="#DejaVuSans-Bold-6e" transform="translate(1486.181641 0)"/>
     <use xlink:href="#DejaVuSans-Bold-20" transform="translate(1557.373047 0)"/>
     <use xlink:href="#DejaVuSans-Bold-61" transform="translate(1592.1875 0)"/>
     <use xlink:href="#DejaVuSans-Bold-6e" transform="translate(1659.667969 0)"/>
     <use xlink:href="#DejaVuSans-Bold-64" transform="translate(1730.859375 0)"/>
     <use xlink:href="#DejaVuSans-Bold-20" transform="translate(1802.441406 0)"/>
     <use xlink:href="#DejaVuSans-Bold-6f" transform="translate(1837.255859 0)"/>
     <use xlink:href="#DejaVuSans-Bold-66" transform="translate(1905.957031 0)"/>
     <use xlink:href="#DejaVuSans-Bold-66" transform="translate(1949.462891 0)"/>
     <use xlink:href="#DejaVuSans-Bold-6c" transform="translate(1992.96875 0)"/>
     <use xlink:href="#DejaVuSans-Bold-69" transform="translate(2027.246094 0)"/>
     <use xlink:href="#DejaVuSans-Bold-6e" transform="translate(2061.523438 0)"/>
     <use xlink:href="#DejaVuSans-Bold-65" transform="translate(2132.714844 0)"/>
     <use xlink:href="#DejaVuSans-Bold-20" transform="translate(2200.537109 0)"/>
     <use xlink:href="#DejaVuSans-Bold-72" transform="translate(2235.351562 0)"/>
     <use xlink:href="#DejaVuSans-Bold-65" transform="translate(2284.667969 0)"/>
     <use xlink:href="#DejaVuSans-Bold-6e" transform="translate(2352.490234 0)"/>
     <use xlink:href="#DejaVuSans-Bold-64" transform="translate(2423.681641 0)"/>
     <use xlink:href="#DejaVuSans-Bold-65" transform="translate(2495.263672 0)"/>
     <use xlink:href="#DejaVuSans-Bold-72" transform="translate(2563.085938 0)"/>
     <use xlink:href="#DejaVuSans-Bold-65" transform="translate(2612.402344 0)"/>
     <use xlink:href="#DejaVuSans-Bold-72" transform="translate(2680.224609 0)"/>
     <use xlink:href="#DejaVuSans-Bold-2d" transform="translate(2729.541016 0)"/>
     <use xlink:href="#DejaVuSans-Bold-67" transform="translate(2771.044922 0)"/>
     <use xlink:href="#DejaVuSans-Bold-75" transform="translate(2842.626953 0)"/>
     <use xlink:href="#DejaVuSans-Bold-69" transform="translate(2913.818359 0)"/>
     <use xlink:href="#DejaVuSans-Bold-64" transform="translate(2948.095703 0)"/>
     <use xlink:href="#DejaVuSans-Bold-65" transform="translate(3019.677734 0)"/>
     <use xlink:href="#DejaVuSans-Bold-64" transform="translate(3087.5 0)"/>
     <use xlink:href="#DejaVuSans-Bold-20" transform="translate(3159.082031 0)"/>
     <use xlink:href="#DejaVuSans-Bold-72" transform="translate(3193.896484 0)"/>
     <use xlink:href="#DejaVuSans-Bold-65" transform="translate(3243.212891 0)"/>
     <use xlink:href="#DejaVuSans-Bold-70" transform="translate(3311.035156 0)"/>
     <use xlink:href="#DejaVuSans-Bold-6c" transform="translate(3382.617188 0)"/>
     <use xlink:href="#DejaVuSans-Bold-61" transform="translate(3416.894531 0)"/>
     <use xlink:href="#DejaVuSans-Bold-79" transform="translate(3481.25 0)"/>
    </g>
   </g>
   <g id="text_16">
    <!-- Every specialized branch is transactional: if a structural or visual gate fails, execution falls back to an Accepted checkpoint. -->
    <g style="fill: #666666" transform="translate(27.870437 284.1228) scale(0.088 -0.088)">
     <defs>
      <path id="DejaVuSans-45" d="M 628 4666
L 3578 4666
L 3578 4134
L 1259 4134
L 1259 2753
L 3481 2753
L 3481 2222
L 1259 2222
L 1259 531
L 3634 531
L 3634 0
L 628 0
L 628 4666
z
" transform="scale(0.015625)"/>
      <path id="DejaVuSans-7a" d="M 353 3500
L 3084 3500
L 3084 2975
L 922 459
L 3084 459
L 3084 0
L 275 0
L 275 525
L 2438 3041
L 353 3041
L 353 3500
z
" transform="scale(0.015625)"/>
      <path id="DejaVuSans-3a" d="M 750 794
L 1409 794
L 1409 0
L 750 0
L 750 794
z
M 750 3309
L 1409 3309
L 1409 2516
L 750 2516
L 750 3309
z
" transform="scale(0.015625)"/>
      <path id="DejaVuSans-2c" d="M 750 794
L 1409 794
L 1409 256
L 897 -744
L 494 -744
L 750 256
L 750 794
z
" transform="scale(0.015625)"/>
      <path id="DejaVuSans-41" d="M 2188 4044
L 1331 1722
L 3047 1722
L 2188 4044
z
M 1831 4666
L 2547 4666
L 4325 0
L 3669 0
L 3244 1197
L 1141 1197
L 716 0
L 50 0
L 1831 4666
z
" transform="scale(0.015625)"/>
      <path id="DejaVuSans-2e" d="M 684 794
L 1344 794
L 1344 0
L 684 0
L 684 794
z
" transform="scale(0.015625)"/>
     </defs>
     <use xlink:href="#DejaVuSans-45"/>
     <use xlink:href="#DejaVuSans-76" transform="translate(63.183594 0)"/>
     <use xlink:href="#DejaVuSans-65" transform="translate(122.363281 0)"/>
     <use xlink:href="#DejaVuSans-72" transform="translate(183.886719 0)"/>
     <use xlink:href="#DejaVuSans-79" transform="translate(225 0)"/>
     <use xlink:href="#DejaVuSans-20" transform="translate(284.179688 0)"/>
     <use xlink:href="#DejaVuSans-73" transform="translate(315.966797 0)"/>
     <use xlink:href="#DejaVuSans-70" transform="translate(368.066406 0)"/>
     <use xlink:href="#DejaVuSans-65" transform="translate(431.542969 0)"/>
     <use xlink:href="#DejaVuSans-63" transform="translate(493.066406 0)"/>
     <use xlink:href="#DejaVuSans-69" transform="translate(548.046875 0)"/>
     <use xlink:href="#DejaVuSans-61" transform="translate(575.830078 0)"/>
     <use xlink:href="#DejaVuSans-6c" transform="translate(637.109375 0)"/>
     <use xlink:href="#DejaVuSans-69" transform="translate(664.892578 0)"/>
     <use xlink:href="#DejaVuSans-7a" transform="translate(692.675781 0)"/>
     <use xlink:href="#DejaVuSans-65" transform="translate(745.166016 0)"/>
     <use xlink:href="#DejaVuSans-64" transform="translate(806.689453 0)"/>
     <use xlink:href="#DejaVuSans-20" transform="translate(870.166016 0)"/>
     <use xlink:href="#DejaVuSans-62" transform="translate(901.953125 0)"/>
     <use xlink:href="#DejaVuSans-72" transform="translate(965.429688 0)"/>
     <use xlink:href="#DejaVuSans-61" transform="translate(1006.542969 0)"/>
     <use xlink:href="#DejaVuSans-6e" transform="translate(1067.822266 0)"/>
     <use xlink:href="#DejaVuSans-63" transform="translate(1131.201172 0)"/>
     <use xlink:href="#DejaVuSans-68" transform="translate(1186.181641 0)"/>
     <use xlink:href="#DejaVuSans-20" transform="translate(1249.560547 0)"/>
     <use xlink:href="#DejaVuSans-69" transform="translate(1281.347656 0)"/>
     <use xlink:href="#DejaVuSans-73" transform="translate(1309.130859 0)"/>
     <use xlink:href="#DejaVuSans-20" transform="translate(1361.230469 0)"/>
     <use xlink:href="#DejaVuSans-74" transform="translate(1393.017578 0)"/>
     <use xlink:href="#DejaVuSans-72" transform="translate(1432.226562 0)"/>
     <use xlink:href="#DejaVuSans-61" transform="translate(1473.339844 0)"/>
     <use xlink:href="#DejaVuSans-6e" transform="translate(1534.619141 0)"/>
     <use xlink:href="#DejaVuSans-73" transform="translate(1597.998047 0)"/>
     <use xlink:href="#DejaVuSans-61" transform="translate(1650.097656 0)"/>
     <use xlink:href="#DejaVuSans-63" transform="translate(1711.376953 0)"/>
     <use xlink:href="#DejaVuSans-74" transform="translate(1766.357422 0)"/>
     <use xlink:href="#DejaVuSans-69" transform="translate(1805.566406 0)"/>
     <use xlink:href="#DejaVuSans-6f" transform="translate(1833.349609 0)"/>
     <use xlink:href="#DejaVuSans-6e" transform="translate(1894.53125 0)"/>
     <use xlink:href="#DejaVuSans-61" transform="translate(1957.910156 0)"/>
     <use xlink:href="#DejaVuSans-6c" transform="translate(2019.189453 0)"/>
     <use xlink:href="#DejaVuSans-3a" transform="translate(2046.972656 0)"/>
     <use xlink:href="#DejaVuSans-20" transform="translate(2080.664062 0)"/>
     <use xlink:href="#DejaVuSans-69" transform="translate(2112.451172 0)"/>
     <use xlink:href="#DejaVuSans-66" transform="translate(2140.234375 0)"/>
     <use xlink:href="#DejaVuSans-20" transform="translate(2175.439453 0)"/>
     <use xlink:href="#DejaVuSans-61" transform="translate(2207.226562 0)"/>
     <use xlink:href="#DejaVuSans-20" transform="translate(2268.505859 0)"/>
     <use xlink:href="#DejaVuSans-73" transform="translate(2300.292969 0)"/>
     <use xlink:href="#DejaVuSans-74" transform="translate(2352.392578 0)"/>
     <use xlink:href="#DejaVuSans-72" transform="translate(2391.601562 0)"/>
     <use xlink:href="#DejaVuSans-75" transform="translate(2432.714844 0)"/>
     <use xlink:href="#DejaVuSans-63" transform="translate(2496.09375 0)"/>
     <use xlink:href="#DejaVuSans-74" transform="translate(2551.074219 0)"/>
     <use xlink:href="#DejaVuSans-75" transform="translate(2590.283203 0)"/>
     <use xlink:href="#DejaVuSans-72" transform="translate(2653.662109 0)"/>
     <use xlink:href="#DejaVuSans-61" transform="translate(2694.775391 0)"/>
     <use xlink:href="#DejaVuSans-6c" transform="translate(2756.054688 0)"/>
     <use xlink:href="#DejaVuSans-20" transform="translate(2783.837891 0)"/>
     <use xlink:href="#DejaVuSans-6f" transform="translate(2815.625 0)"/>
     <use xlink:href="#DejaVuSans-72" transform="translate(2876.806641 0)"/>
     <use xlink:href="#DejaVuSans-20" transform="translate(2917.919922 0)"/>
     <use xlink:href="#DejaVuSans-76" transform="translate(2949.707031 0)"/>
     <use xlink:href="#DejaVuSans-69" transform="translate(3008.886719 0)"/>
     <use xlink:href="#DejaVuSans-73" transform="translate(3036.669922 0)"/>
     <use xlink:href="#DejaVuSans-75" transform="translate(3088.769531 0)"/>
     <use xlink:href="#DejaVuSans-61" transform="translate(3152.148438 0)"/>
     <use xlink:href="#DejaVuSans-6c" transform="translate(3213.427734 0)"/>
     <use xlink:href="#DejaVuSans-20" transform="translate(3241.210938 0)"/>
     <use xlink:href="#DejaVuSans-67" transform="translate(3272.998047 0)"/>
     <use xlink:href="#DejaVuSans-61" transform="translate(3336.474609 0)"/>
     <use xlink:href="#DejaVuSans-74" transform="translate(3397.753906 0)"/>
     <use xlink:href="#DejaVuSans-65" transform="translate(3436.962891 0)"/>
     <use xlink:href="#DejaVuSans-20" transform="translate(3498.486328 0)"/>
     <use xlink:href="#DejaVuSans-66" transform="translate(3530.273438 0)"/>
     <use xlink:href="#DejaVuSans-61" transform="translate(3565.478516 0)"/>
     <use xlink:href="#DejaVuSans-69" transform="translate(3626.757812 0)"/>
     <use xlink:href="#DejaVuSans-6c" transform="translate(3654.541016 0)"/>
     <use xlink:href="#DejaVuSans-73" transform="translate(3682.324219 0)"/>
     <use xlink:href="#DejaVuSans-2c" transform="translate(3734.423828 0)"/>
     <use xlink:href="#DejaVuSans-20" transform="translate(3766.210938 0)"/>
     <use xlink:href="#DejaVuSans-65" transform="translate(3797.998047 0)"/>
     <use xlink:href="#DejaVuSans-78" transform="translate(3857.771484 0)"/>
     <use xlink:href="#DejaVuSans-65" transform="translate(3913.826172 0)"/>
     <use xlink:href="#DejaVuSans-63" transform="translate(3975.349609 0)"/>
     <use xlink:href="#DejaVuSans-75" transform="translate(4030.330078 0)"/>
     <use xlink:href="#DejaVuSans-74" transform="translate(4093.708984 0)"/>
     <use xlink:href="#DejaVuSans-69" transform="translate(4132.917969 0)"/>
     <use xlink:href="#DejaVuSans-6f" transform="translate(4160.701172 0)"/>
     <use xlink:href="#DejaVuSans-6e" transform="translate(4221.882812 0)"/>
     <use xlink:href="#DejaVuSans-20" transform="translate(4285.261719 0)"/>
     <use xlink:href="#DejaVuSans-66" transform="translate(4317.048828 0)"/>
     <use xlink:href="#DejaVuSans-61" transform="translate(4352.253906 0)"/>
     <use xlink:href="#DejaVuSans-6c" transform="translate(4413.533203 0)"/>
     <use xlink:href="#DejaVuSans-6c" transform="translate(4441.316406 0)"/>
     <use xlink:href="#DejaVuSans-73" transform="translate(4469.099609 0)"/>
     <use xlink:href="#DejaVuSans-20" transform="translate(4521.199219 0)"/>
     <use xlink:href="#DejaVuSans-62" transform="translate(4552.986328 0)"/>
     <use xlink:href="#DejaVuSans-61" transform="translate(4616.462891 0)"/>
     <use xlink:href="#DejaVuSans-63" transform="translate(4677.742188 0)"/>
     <use xlink:href="#DejaVuSans-6b" transform="translate(4732.722656 0)"/>
     <use xlink:href="#DejaVuSans-20" transform="translate(4790.632812 0)"/>
     <use xlink:href="#DejaVuSans-74" transform="translate(4822.419922 0)"/>
     <use xlink:href="#DejaVuSans-6f" transform="translate(4861.628906 0)"/>
     <use xlink:href="#DejaVuSans-20" transform="translate(4922.810547 0)"/>
     <use xlink:href="#DejaVuSans-61" transform="translate(4954.597656 0)"/>
     <use xlink:href="#DejaVuSans-6e" transform="translate(5015.876953 0)"/>
     <use xlink:href="#DejaVuSans-20" transform="translate(5079.255859 0)"/>
     <use xlink:href="#DejaVuSans-41" transform="translate(5111.042969 0)"/>
     <use xlink:href="#DejaVuSans-63" transform="translate(5177.701172 0)"/>
     <use xlink:href="#DejaVuSans-63" transform="translate(5232.681641 0)"/>
     <use xlink:href="#DejaVuSans-65" transform="translate(5287.662109 0)"/>
     <use xlink:href="#DejaVuSans-70" transform="translate(5349.185547 0)"/>
     <use xlink:href="#DejaVuSans-74" transform="translate(5412.662109 0)"/>
     <use xlink:href="#DejaVuSans-65" transform="translate(5451.871094 0)"/>
     <use xlink:href="#DejaVuSans-64" transform="translate(5513.394531 0)"/>
     <use xlink:href="#DejaVuSans-20" transform="translate(5576.871094 0)"/>
     <use xlink:href="#DejaVuSans-63" transform="translate(5608.658203 0)"/>
     <use xlink:href="#DejaVuSans-68" transform="translate(5663.638672 0)"/>
     <use xlink:href="#DejaVuSans-65" transform="translate(5727.017578 0)"/>
     <use xlink:href="#DejaVuSans-63" transform="translate(5788.541016 0)"/>
     <use xlink:href="#DejaVuSans-6b" transform="translate(5843.521484 0)"/>
     <use xlink:href="#DejaVuSans-70" transform="translate(5901.431641 0)"/>
     <use xlink:href="#DejaVuSans-6f" transform="translate(5964.908203 0)"/>
     <use xlink:href="#DejaVuSans-69" transform="translate(6026.089844 0)"/>
     <use xlink:href="#DejaVuSans-6e" transform="translate(6053.873047 0)"/>
     <use xlink:href="#DejaVuSans-74" transform="translate(6117.251953 0)"/>
     <use xlink:href="#DejaVuSans-2e" transform="translate(6156.460938 0)"/>
    </g>
   </g>
  </g>
 </g>
 <defs>
  <clipPath id="pba5a924ca3">
   <rect x="7.2" y="7.2" width="585.9" height="299.376"/>
  </clipPath>
 </defs>
</svg>
